SplineFontDB: 3.2
FontName: NewCMSans10-BoldOblique
FullName: NewComputerModernSans10-BoldOblique
FamilyName: NewComputerModernSans10
Weight: Bold
Copyright: (C) 2019-2021 Antonis Tsolomitis. This work is released under the GUST Font License --  see http://tug.org/fonts/licenses/GUST-FONT-LICENSE.txt for details.
Version: 3.93
ItalicAngle: 0
UnderlinePosition: -146
UnderlineWidth: 83
Ascent: 806
Descent: 194
InvalidEm: 0
LayerCount: 2
Layer: 0 0 "Back" 1
Layer: 1 0 "Fore" 0
XUID: [1021 210 1223046955 5815304]
StyleMap: 0x0020
FSType: 8
OS2Version: 3
OS2_WeightWidthSlopeOnly: 0
OS2_UseTypoMetrics: 0
CreationTime: 1254996033
ModificationTime: 1633794330
PfmFamily: 81
TTFWeight: 700
TTFWidth: 5
LineGap: 0
VLineGap: 0
Panose: 0 0 8 0 0 0 0 0 0 0
OS2TypoAscent: 806
OS2TypoAOffset: 0
OS2TypoDescent: -194
OS2TypoDOffset: 0
OS2TypoLinegap: 200
OS2WinAscent: 1134
OS2WinAOffset: 0
OS2WinDescent: 297
OS2WinDOffset: 0
HheadAscent: 1134
HheadAOffset: 0
HheadDescent: -297
HheadDOffset: 0
OS2SubXSize: 650
OS2SubYSize: 600
OS2SubXOff: 0
OS2SubYOff: 75
OS2SupXSize: 650
OS2SupYSize: 600
OS2SupXOff: 0
OS2SupYOff: 350
OS2StrikeYSize: 83
OS2StrikeYPos: 274
OS2CapHeight: 694
OS2XHeight: 458
OS2Vendor: 'UKWN'
OS2CodePages: 20000193.00000000
OS2UnicodeRanges: 20000007.00000000.00000000.00000000
Lookup: 1 0 0 "'aalt' Access All Alternates lookup 0" { "'aalt' Access All Alternates lookup 0 subtable"  } ['aalt' ('DFLT' <'dflt' > 'cyrl' <'dflt' > 'latn' <'AZE ' 'CRT ' 'MOL ' 'NLD ' 'PLK ' 'ROM ' 'TRK ' 'dflt' > ) ]
Lookup: 3 0 0 "'aalt' Access All Alternates lookup 1" { "'aalt' Access All Alternates lookup 1 subtable"  } ['aalt' ('DFLT' <'dflt' > 'cyrl' <'dflt' > 'latn' <'AZE ' 'CRT ' 'MOL ' 'NLD ' 'PLK ' 'ROM ' 'TRK ' 'dflt' > ) ]
Lookup: 1 0 0 "'locl' Localized Forms in Latin lookup 2" { "'locl' Localized Forms in Latin lookup 2 subtable"  } ['locl' ('latn' <'MOL ' 'ROM ' > ) ]

StartChar: OE
Encoding: 338 338 1
Width: 1069
Flags: HMW
LayerCount: 2
Fore
SplineSet
591 0 m 2
 525 0 456.32421875 -22 391.32421875 -22 c 0
 291.32421875 -22 192.575195312 -2 136.666015625 69 c 0
 102.268699579 111.903870227 89.2896003857 167.204574873 89.2896003857 226.613196923 c 0
 89.2896003857 264.132976006 94.4664570223 303.291243181 102.694335938 342 c 0
 124.375 444 166.90625 550 254.422851562 623 c 0
 339.7265625 695 448.403320312 717 548.403320312 717 c 0
 613.403320312 717 672.514648438 694 738.514648438 694 c 2
 1153.51464844 694 l 1
 1132.25878906 594 l 1
 789.258789062 594 l 1
 749.72265625 408 l 1
 1062.72265625 408 l 1
 1042.74316406 314 l 1
 729.743164062 314 l 1
 686.380859375 110 l 1
 1045.38085938 110 l 1
 1022 0 l 1
 591 0 l 2
616.4140625 463 m 2
 623.841244944 497.943889726 632.665815828 539.460273111 632.665815828 572.752580536 c 0
 632.665815828 588.049817435 630.802734608 601.610752175 626.084960938 612 c 0
 612.673828125 643 570.88671875 644 532.88671875 644 c 0
 469.88671875 644 400.422851562 623 352.0078125 574 c 0
 293.25390625 514 267.674804688 436 251.733398438 361 c 0
 242.643745778 318.236667719 235.614026703 274.929402485 235.614026703 233.77300507 c 0
 235.614026703 196.010749329 241.532083429 160.059228502 257.20703125 128 c 0
 282.94140625 75 342.627929688 50 406.627929688 50 c 0
 444.627929688 50 486.052734375 52 513.642578125 83 c 0
 542.444335938 115 556.047851562 179 567.100585938 231 c 2
 616.4140625 463 l 2
EndSplineSet
Validated: 1
EndChar

StartChar: oe
Encoding: 339 339 2
Width: 856
Flags: HMW
LayerCount: 2
Fore
SplineSet
867.82421875 432 m 0
 883.022843198 406.979274887 888.552135407 377.701500315 888.552135407 346.547587839 c 0
 888.552135407 315.445286046 883.041148068 282.473057353 876.138671875 250 c 1
 578.138671875 250 l 1
 575.80078125 239 l 2
 570.78225183 215.389285069 567.343984996 190.419104546 567.343984996 166.888122678 c 0
 567.343984996 109.692640444 587.657399553 61 654.965820312 61 c 0
 716.965820312 61 781.067382812 85 834.419921875 129 c 1
 836.419921875 129 l 1
 825.290039062 39 l 2
 825.077148438 38 825.077148438 38 824.077148438 38 c 0
 765.275390625 6 701.662109375 -11 639.662109375 -11 c 0
 572.662109375 -11 507.424804688 2 467.77734375 46 c 1
 414.0625 5 346.662109375 -11 274.662109375 -11 c 0
 139.09695822 -11 71.950084706 50.496576394 71.950084706 162.193262143 c 0
 71.950084706 185.621690089 74.9042277354 211.258684054 80.80078125 239 c 0
 115.022460938 400 218.940429688 489 380.940429688 489 c 0
 451.940429688 489 511.5390625 473 548.037109375 433 c 1
 601.96484375 475 668.940429688 489 730.940429688 489 c 0
 786.940429688 489 841.96484375 475 867.82421875 432 c 0
389.10546875 104 m 0
 414.907226562 136 426.197265625 175 439.80078125 239 c 2
 441.2890625 246 l 2
 448.743884541 281.072531745 452.850227554 310.112006432 452.850227554 333.68863179 c 0
 452.850227554 392.123431059 427.625002337 417 365.635742188 417 c 0
 274.635742188 417 238.158203125 363 213.2890625 246 c 0
 205.150727194 207.712779337 200.650487243 175.931082044 200.650487243 150.143978052 c 0
 200.650487243 88.3738381157 226.472357695 61 289.965820312 61 c 0
 327.965820312 61 364.94140625 75 389.10546875 104 c 0
593.404296875 303 m 1
 772.404296875 303 l 1
 773.816222194 313.526250947 774.697772262 324.563698937 774.697772262 335.452909122 c 0
 774.697772262 377.322247277 761.664711699 417 715.635742188 417 c 0
 656.635742188 417 613.158203125 363 593.404296875 303 c 1
EndSplineSet
Validated: 1
EndChar

StartChar: A
Encoding: 65 65 3
Width: 733
Flags: HMW
LayerCount: 2
Fore
SplineSet
478.944335938 569 m 1
 476.944335938 569 l 1
 473.543945312 553 387.384765625 397 298.375976562 237 c 1
 515.375976562 237 l 1
 496.049000381 384.314807054 478.544955051 528.238730923 478.544955051 562.622219937 c 0
 478.544955051 565.582962317 478.674744618 567.731480705 478.944335938 569 c 1
527.095703125 151 m 1
 251.095703125 151 l 1
 219.405273438 96 190.352539062 44 166 0 c 1
 30 0 l 1
 420.514648438 694 l 1
 605.514648438 694 l 1
 701 0 l 1
 548 0 l 1
 542.352539062 44 534.405273438 96 527.095703125 151 c 1
EndSplineSet
Validated: 1
EndChar

StartChar: a
Encoding: 97 97 4
Width: 525
Flags: HMW
LayerCount: 2
Fore
SplineSet
164.756835938 347 m 1
 163.756835938 347 l 1
 176.799804688 446 l 1
 245.389648438 477 296.940429688 489 365.940429688 489 c 0
 471.564020883 489 537.740203058 451.522362883 537.740203058 366.833016627 c 0
 537.740203058 353.702357652 536.149397163 339.436778791 532.868164062 324 c 2
 464 0 l 1
 330 0 l 1
 344.87890625 70 l 1
 303.250976562 20 234.662109375 -11 164.662109375 -11 c 0
 98.890243203 -11 54.5409958049 36.9328352327 54.5409958049 100.39069295 c 0
 54.5409958049 110.258977049 55.6134993319 120.502704755 57.8447265625 131 c 0
 80.3759765625 237 235.540039062 266 385.390625 270 c 1
 396.868164062 324 l 2
 399.931305044 338.410760232 401.619448591 351.960643507 401.619448591 364.138418036 c 0
 401.619448591 399.283294269 387.559052614 423 351.911132812 423 c 0
 279.911132812 423 225.022460938 400 165.756835938 347 c 2
 164.544921875 346 l 1
 164.756835938 347 l 1
376.887695312 230 m 1
 294.038085938 226 203.723632812 201 188.844726562 131 c 0
 187.761118399 125.902023834 187.240410108 120.912036703 187.240410108 116.092817833 c 0
 187.240410108 84.9898763964 208.929639211 61 240.965820312 61 c 0
 294.965820312 61 348.618164062 97 358.608398438 144 c 2
 376.887695312 230 l 1
EndSplineSet
Validated: 1
EndChar

StartChar: ampersand
Encoding: 38 38 5
Width: 831
Flags: HMW
LayerCount: 2
Fore
SplineSet
820.423828125 416 m 1
 758.641601562 290 670.259765625 180 568.680664062 102 c 1
 593.4921875 87 622.579101562 78 656.579101562 78 c 0
 699.579101562 78 744.280273438 86 787.467773438 101 c 1
 789.255859375 100 l 1
 765.9375 -5 l 1
 721.598632812 -16 678.32421875 -22 635.32421875 -22 c 0
 567.32421875 -22 509.787109375 -1 460.014648438 33 c 1
 388.575195312 -2 314.32421875 -22 239.32421875 -22 c 0
 146.029039932 -22 73.9541551475 33.2634310515 73.9541551475 115.731454069 c 0
 73.9541551475 126.07789935 75.0886306451 136.852551255 77.4580078125 148 c 0
 88.7236328125 201 127.713867188 248 177.303710938 279 c 2
 264.78125 333 l 1
 260.189898395 357.494863202 257.671587873 382.709724392 257.671587873 408.527008555 c 0
 257.671587873 435.409108647 260.401914207 462.944349522 266.365234375 491 c 0
 291.021484375 607 382.403320312 717 489.403320312 717 c 0
 572.674742943 717 631.731184196 660.912301677 631.731184196 584.43072318 c 0
 631.731184196 573.658478845 630.559620303 562.481659951 628.119140625 551 c 0
 611.751953125 474 497.59765625 398 396.418945312 336 c 1
 420.815429688 272 458.487304688 214 500.646484375 163 c 1
 591.67578125 229 671.71875 328 726.162109375 443 c 1
 727.375 444 l 1
 727.375 444 727.375 444 728.375 444 c 2
 819.848632812 418 l 1
 820.423828125 416 l 1
384.467773438 101 m 1
 340.883789062 150 305.787109375 206 283.752929688 267 c 1
 273.477539062 261 l 2
 242.438476562 242 225.999023438 207 218.984375 174 c 0
 216.558196048 162.585091621 215.263039414 151.170183242 215.263039414 140.400832191 c 0
 215.263039414 105.884769353 228.567146394 78 260.579101562 78 c 0
 302.579101562 78 344.280273438 86 384.467773438 101 c 1
382.119140625 551 m 0
 376.319136074 523.715024088 373.723510594 497.256013313 373.723510594 471.478503324 c 0
 373.723510594 448.128958052 375.853203358 425.338579464 379.66015625 403 c 1
 441.162109375 443 499.727539062 488 513.119140625 551 c 0
 515.548430425 562.429211619 516.879669861 573.920156167 516.879669861 584.736598467 c 0
 516.879669861 617.453897809 504.699812742 644 473.88671875 644 c 0
 429.88671875 644 392.321289062 599 382.119140625 551 c 0
EndSplineSet
Validated: 1
EndChar

StartChar: asciicircum
Encoding: 94 94 6
Width: 556
Flags: HMW
HStem: 562 21G<6 6 549 549> 685 59<277 278>
VStem: -5 566<584 584>
LayerCount: 2
Fore
SplineSet
685.1328125 584 m 1
 668.45703125 562 l 1
 422.6015625 685 l 1
 125.45703125 562 l 1
 119.1328125 584 l 1
 436.141601562 744 l 1
 685.1328125 584 l 1
EndSplineSet
Validated: 1
EndChar

StartChar: asciitilde
Encoding: 126 126 7
Width: 556
Flags: HMW
HStem: 193 43<368 383.5> 211 43 246 43 264 43<171.5 187>
LayerCount: 2
Fore
SplineSet
616.641601562 290 m 1x90
 553.2890625 246 l 2x20
 533.313476562 232 510.974609375 221 488.849609375 211 c 0x40
 464.723632812 201 437.0234375 193 412.0234375 193 c 0
 372.0234375 193 344.63671875 210 319.25 227 c 0
 288.501953125 247 263.115234375 264 223.115234375 264 c 0
 172.115234375 264 112.73828125 234 55.0234375 193 c 1x90
 44.63671875 210 l 1
 107.989257812 254 l 2x40
 127.96484375 268 150.303710938 279 172.428710938 289 c 0x20
 196.5546875 299 224.254882812 307 249.254882812 307 c 0
 289.254882812 307 316.641601562 290 342.028320312 273 c 0
 372.776367188 253 398.163085938 236 438.163085938 236 c 0
 489.163085938 236 548.540039062 266 606.254882812 307 c 1
 616.641601562 290 l 1x90
EndSplineSet
Validated: 1
EndChar

StartChar: asterisk
Encoding: 42 42 8
Width: 550
Flags: HMW
CounterMasks: 1 38
LayerCount: 2
Fore
SplineSet
345.25390625 514 m 1
 212.45703125 562 l 2
 199.953637822 566.770888661 193.717897235 577.232121977 193.717897235 590.869996171 c 0
 193.717897235 594.383485375 194.13177484 598.107814094 194.958984375 602 c 0
 201.3359375 632 234.287109375 660 260.287109375 660 c 0
 278.287109375 660 294.036132812 640 370.693359375 549 c 1
 371.577148438 699 l 2
 371.001953125 701 371.639648438 704 372.064453125 706 c 0
 377.37890625 731 405.416992188 750 433.416992188 750 c 0
 458.359598753 750 476.923680419 734.922782113 476.923680419 713.957907393 c 0
 476.923680419 711.38809296 476.6447522 708.729815567 476.064453125 706 c 0
 475.639648438 704 475.001953125 701 473.577148438 699 c 2
 473.577148438 699 433.171875 603 410.693359375 549 c 1
 540.162109375 650 l 2
 548.649414062 657 558.287109375 660 568.287109375 660 c 0
 591.104798371 660 610.109155352 638.434742498 610.109155352 612.87813245 c 0
 610.109155352 609.31383278 609.73950161 605.671897312 608.958984375 602 c 0
 604.920898438 583 592.51953125 567 574.45703125 562 c 2
 487.717773438 535 l 2
 464.017578125 527 440.31640625 519 421.25390625 514 c 1
 554.051757812 466 l 2
 566.60826406 461.208845213 572.708007679 450.041255926 572.708007679 436.570630097 c 0
 572.708007679 433.171887567 572.319703051 429.626535638 571.548828125 426 c 0
 564.53515625 393 530.220703125 368 506.220703125 368 c 0
 496.220703125 368 487.858398438 371 482.346679688 378 c 2
 428.737304688 441 l 2
 416.500976562 454 404.263671875 467 395.814453125 479 c 1
 394.930664062 329 l 2
 395.505859375 327 394.868164062 324 394.23046875 321 c 0
 389.12890625 297 361.090820312 278 333.090820312 278 c 0
 308.046424365 278 289.432720352 293.20052755 289.432720352 313.583476582 c 0
 289.432720352 315.9889619 289.69196165 318.466625098 290.23046875 321 c 0
 290.868164062 324 291.505859375 327 292.930664062 329 c 2
 347.98828125 461 l 2
 351.263671875 467 353.5390625 473 355.814453125 479 c 2
 226.346679688 378 l 2
 217.858398438 371 208.220703125 368 198.220703125 368 c 0
 177.137729188 368 156.297414682 387.292178386 156.297414682 414.352334493 c 0
 156.297414682 418.096359452 156.696367139 421.989089163 157.548828125 426 c 0
 161.375 444 173.776367188 460 192.051757812 466 c 2
 228.389648438 477 l 2
 261.514648438 487 312.340820312 505 345.25390625 514 c 1
EndSplineSet
Validated: 1
EndChar

StartChar: at
Encoding: 64 64 9
Width: 733
Flags: HMW
LayerCount: 2
Fore
SplineSet
408.31640625 519 m 0
 455.03125 560 515.645507812 577 580.645507812 577 c 0
 603.645507812 577 625.219726562 575 645.157226562 570 c 1
 644.370117188 571 l 1
 636.447265625 609 603.547851562 633 561.547851562 633 c 0
 389.547851562 633 291.954101562 522 254.756835938 347 c 0
 247.158417995 311.252153026 243.265745572 278.327611173 243.265745572 248.534177731 c 0
 243.265745572 129.97654666 304.906191877 61 439.965820312 61 c 0
 491.965820312 61 546.091796875 71 598.91796875 89 c 1
 689.705078125 88 l 1
 610.1015625 24 515.662109375 -11 424.662109375 -11 c 0
 312.662109375 -11 221.763671875 13 168.791992188 79 c 0
 136.010600914 119.820088514 121.775456664 173.25118006 121.775456664 234.882337933 c 0
 121.775456664 269.879929469 126.365719298 307.521713251 134.756835938 347 c 0
 157.712890625 455 203.119140625 551 282.934570312 616 c 0
 363.750976562 681 465.064453125 706 577.064453125 706 c 0
 718.033242942 706 768.089630087 642.905765945 768.089630087 524.421037678 c 0
 768.089630087 474.805112714 759.312006937 415.476203812 744.756835938 347 c 0
 714.787109375 206 629.08203125 118 483.08203125 118 c 0
 365.111205653 118 310.208774713 174.926133151 310.208774713 273.16067172 c 0
 310.208774713 295.667918422 313.090867098 320.343641795 318.756835938 347 c 0
 333.635742188 417 360.389648438 477 408.31640625 519 c 0
498.385742188 190 m 0
 569.385742188 190 606.689453125 262 624.756835938 347 c 0
 630.060605578 371.951271571 633.093045224 395.504257872 633.093045224 416.408710926 c 0
 633.093045224 468.393826268 614.339966728 504 565.12890625 504 c 0
 494.12890625 504 457.461914062 435 438.756835938 347 c 0
 433.274188127 321.205369336 429.967509336 296.760176824 429.967509336 275.175478655 c 0
 429.967509336 224.796206231 447.981246929 190 498.385742188 190 c 0
EndSplineSet
Validated: 1
EndChar

StartChar: B
Encoding: 66 66 10
Width: 733
Flags: HMW
LayerCount: 2
Fore
SplineSet
91 0 m 1
 238.514648438 694 l 1
 518.514648438 694 l 2
 626.852642083 694 753.630179864 669.54766486 753.630179864 553.679205542 c 0
 753.630179864 541.20658478 752.161161302 527.674691329 749.041992188 513 c 0
 731.82421875 432 661.409179688 383 573.370117188 364 c 1
 658.998511234 350.104870867 715.42752228 305.287635646 715.42752228 230.858253656 c 0
 715.42752228 219.583494257 714.132646287 207.629225202 711.448242188 195 c 0
 678.077148438 38 527 0 401 0 c 2
 91 0 l 1
251.280273438 86 m 1
 389.280273438 86 l 2
 462.280273438 86 553.318359375 105 572.448242188 195 c 0
 574.816890134 206.143666535 575.935506976 216.404075045 575.935506976 225.84121039 c 0
 575.935506976 302.783885692 501.576162643 325 424.081054688 325 c 2
 302.081054688 325 l 1
 251.280273438 86 l 1
317.384765625 397 m 1
 424.384765625 397 l 2
 501.384765625 397 593.2734375 420 613.041992188 513 c 0
 614.531793589 520.009200148 615.236482573 526.51206397 615.236482573 532.544123748 c 0
 615.236482573 597.941178699 532.407449575 608 469.234375 608 c 2
 362.234375 608 l 1
 317.384765625 397 l 1
EndSplineSet
Validated: 1
EndChar

StartChar: b
Encoding: 98 98 11
Width: 561
Flags: HMW
LayerCount: 2
Fore
SplineSet
277.133789062 377 m 1
 217.618164062 97 l 1
 231.94140625 75 254.965820312 61 285.965820312 61 c 0
 372.965820312 61 408.956054688 108 436.163085938 236 c 0
 444.963103474 277.401099585 449.818617467 310.112586614 449.818617467 335.491805926 c 0
 449.818617467 390.416679095 427.077237312 411 372.360351562 411 c 0
 338.360351562 411 304.59765625 398 277.133789062 377 c 1
206.352539062 44 m 1
 197 0 l 1
 61 0 l 1
 208.514648438 694 l 1
 341.514648438 694 l 1
 284.124023438 424 l 1
 332.98828125 461 395.665039062 483 457.665039062 483 c 0
 550.182924328 483 585.088022249 423.28851576 585.088022249 336.302275341 c 0
 585.088022249 305.762266418 580.78547094 271.860254666 573.163085938 236 c 0
 542.129882812 90 461.662109375 -11 318.662109375 -11 c 0
 269.662109375 -11 231.125976562 10 206.352539062 44 c 1
EndSplineSet
Validated: 1
EndChar

StartChar: backslash
Encoding: 92 92 12
Width: 575
Flags: HMW
HStem: 730 20G<87 104.5>
LayerCount: 2
Fore
SplineSet
463.450195312 -219 m 0
 459.19921875 -239 440.861328125 -250 426.861328125 -250 c 0
 405.861328125 -250 403.048828125 -235 400.237304688 -220 c 2
 218.577148438 699 l 2
 216.33984375 712 215.552734375 713 216.828125 719 c 0
 221.079101562 739 239.416992188 750 253.416992188 750 c 0
 274.416992188 750 276.654296875 737 280.041015625 720 c 2
 461.701171875 -199 l 2
 463.938476562 -212 464.725585938 -213 463.450195312 -219 c 0
EndSplineSet
Validated: 1
EndChar

StartChar: bar
Encoding: 124 124 13
Width: 319
Flags: HMW
HStem: 730 20G<144.5 175>
VStem: 129 61<-206 706>
LayerCount: 2
Fore
SplineSet
146.212890625 -206 m 2
 143.025390625 -221 136.861328125 -250 105.861328125 -250 c 0
 87.0227281425 -250 82.528099236 -238.170238357 82.528099236 -225.901140386 c 0
 82.528099236 -218.632006245 84.1058337938 -211.208653342 85.212890625 -206 c 2
 279.064453125 706 l 2
 282.252929688 721 288.416992188 750 319.416992188 750 c 0
 338.255085447 750 342.749979272 738.170874745 342.749979272 725.902130433 c 0
 342.749979272 718.632680284 341.171923559 711.208889812 340.064453125 706 c 2
 146.212890625 -206 l 2
EndSplineSet
Validated: 1
EndChar

StartChar: braceleft
Encoding: 123 123 14
Width: 575
Flags: HMW
HStem: -250 36 232 36 714 36
VStem: 232 111<-111 -103 -103 99 99 117.5 417 606>
CounterMasks: 1 e0
LayerCount: 2
Fore
SplineSet
446.686523438 -232 m 0
 442.861328125 -250 433.861328125 -250 411.861328125 -250 c 0
 349.924737964 -250 205.384115653 -240.599787657 205.384115653 -138.061218428 c 0
 205.384115653 -129.678535446 206.350125377 -120.673379991 208.40625 -111 c 2
 253.04296875 99 l 2
 259.890529121 131.216610869 261.098594001 136.897903582 261.098594001 143.109514271 c 0
 261.098594001 181.770083722 234.065891711 226.954130672 144.313476562 232 c 0
 132.525390625 233 128.375976562 237 131.138671875 250 c 0
 134.752929688 267 142.752929688 267 156.96484375 268 c 0
 198.390625 270 236.366210938 284 263.830078125 305 c 0
 302.994140625 334 307.458007812 355 320.635742188 417 c 2
 364.422851562 623 l 2
 381.790039062 700 482.416992188 750 624.416992188 750 c 0
 643.139500389 750 652.446884472 750 652.446884472 738.905785686 c 0
 652.446884472 736.963674296 652.161662614 734.681584198 651.591796875 732 c 0
 647.977539062 715 639.977539062 715 625.765625 714 c 0
 573.127929688 711 540.301757812 693 527.813476562 686 c 0
 482.649414062 657 476.485351562 628 471.809570312 606 c 2
 427.172851562 396 l 2
 417.607421875 351 402.94140625 282 277.138671875 250 c 1
 347.897743314 229.935495069 373.032232433 188.562177233 373.032232433 150.444299472 c 0
 373.032232433 144.867543773 372.494240361 139.360469257 371.482421875 134 c 2
 321.106445312 -103 l 2
 318.120561339 -117.048180599 316.441079255 -124.950470529 316.441079255 -132.914218828 c 0
 316.441079255 -134.587570517 316.515229873 -136.263635647 316.666992188 -138 c 0
 321.015625 -174 350.575195312 -209 433.512695312 -214 c 0
 445.30078125 -215 449.450195312 -219 446.686523438 -232 c 0
EndSplineSet
Validated: 1
EndChar

StartChar: braceright
Encoding: 125 125 15
Width: 575
Flags: HMW
HStem: -250 36 232 36 714 36
VStem: 232 111<-106 83 -123 104 -123 127 381.5 401 401 603 603 611>
CounterMasks: 1 e0
LayerCount: 2
Fore
SplineSet
549.138671875 250 m 0
 545.525390625 233 537.525390625 233 523.313476562 232 c 0
 469.67578125 229 431.999023438 207 418.661132812 196 c 0
 378.072265625 165 374.458007812 148 360.642578125 83 c 2
 316.85546875 -123 l 2
 300.338867188 -196 205.861328125 -250 55.861328125 -250 c 0
 37.8087672874 -250 27.8851054991 -250 27.8851054991 -238.565134185 c 0
 27.8851054991 -236.698165192 28.1496410343 -234.526376425 28.6865234375 -232 c 0
 32.30078125 -215 40.30078125 -215 54.5126953125 -214 c 0
 109.150390625 -211 144.401367188 -191 155.889648438 -184 c 0
 199.053710938 -155 204.580078125 -129 209.46875 -106 c 2
 254.10546875 104 l 2
 263.883789062 150 278.336914062 218 404.138671875 250 c 1
 332.897395226 270.87696288 308.211879319 311.427601203 308.211879319 349.272581436 c 0
 308.211879319 354.933906733 308.76428974 360.534685039 309.795898438 366 c 2
 360.171875 603 l 2
 363.157758974 617.048180599 364.837241057 624.950470529 364.837241057 632.914218828 c 0
 364.837241057 634.587570517 364.763090439 636.263635647 364.611328125 638 c 0
 360.900390625 677 326.915039062 710 246.765625 714 c 0
 234.977539062 715 230.828125 719 233.591796875 732 c 0
 237.416992188 750 247.416992188 750 268.416992188 750 c 0
 343.928144851 750 475.915589727 736.432042412 475.915589727 638.234829501 c 0
 475.915589727 629.796516735 474.9409468 620.733271005 472.872070312 611 c 2
 428.235351562 401 l 2
 422.085597577 372.068844958 420.264110158 363.498922057 420.264110158 357.736398692 c 0
 420.264110158 355.730880619 420.48473476 354.065404094 420.8203125 352 c 0
 426.12890625 297 472.602539062 271 535.96484375 268 c 0
 547.752929688 267 551.90234375 263 549.138671875 250 c 0
EndSplineSet
Validated: 1
EndChar

StartChar: bracketleft
Encoding: 91 91 16
Width: 343
Flags: HMW
LayerCount: 2
Fore
SplineSet
183.116210938 -150 m 1
 285.116210938 -150 l 1
 269.8125 -222 l 1
 37.8125 -222 l 1
 244.416992188 750 l 1
 476.416992188 750 l 1
 461.11328125 678 l 1
 359.11328125 678 l 1
 183.116210938 -150 l 1
EndSplineSet
Validated: 1
EndChar

StartChar: bracketright
Encoding: 93 93 17
Width: 343
Flags: HMW
LayerCount: 2
Fore
SplineSet
270.11328125 678 m 1
 168.11328125 678 l 1
 183.416992188 750 l 1
 415.416992188 750 l 1
 208.8125 -222 l 1
 -23.1875 -222 l 1
 -7.8837890625 -150 l 1
 94.1162109375 -150 l 1
 270.11328125 678 l 1
EndSplineSet
Validated: 1
EndChar

StartChar: C
Encoding: 67 67 18
Width: 703
Flags: HMW
LayerCount: 2
Fore
SplineSet
577.064453125 706 m 0
 655.064453125 706 706.939453125 696 775.625 671 c 1
 776.413085938 670 l 1
 725.780273438 540 l 1
 723.780273438 540 l 1
 676.770507812 587 629.809570312 606 555.809570312 606 c 0
 402.809570312 606 314.916015625 503 281.756835938 347 c 0
 274.886749991 314.67880839 271.280163178 284.618690253 271.280163178 257.282066191 c 0
 271.280163178 153.522758496 323.23916036 89 445.91796875 89 c 0
 538.91796875 89 580.467773438 101 667.946289062 155 c 1
 668.946289062 155 l 1
 655.565429688 45 l 1
 560.787109375 -1 519.662109375 -11 424.662109375 -11 c 0
 312.662109375 -11 221.763671875 13 168.791992188 79 c 0
 136.010600914 119.820088514 121.775456664 173.25118006 121.775456664 234.882337933 c 0
 121.775456664 269.879929469 126.365719298 307.521713251 134.756835938 347 c 0
 157.712890625 455 203.119140625 551 282.934570312 616 c 0
 363.750976562 681 465.064453125 706 577.064453125 706 c 0
EndSplineSet
Validated: 1
EndChar

StartChar: c
Encoding: 99 99 19
Width: 489
Flags: HMW
LayerCount: 2
Fore
SplineSet
361.360351562 411 m 0
 279.360351562 411 247.39453125 350 223.163085938 236 c 0
 216.200118742 203.241201869 211.944710097 174.351894802 211.944710097 150.144642111 c 0
 211.944710097 97.5006541094 232.07026331 67 288.241210938 67 c 0
 357.241210938 67 416.91796875 89 474.057617188 132 c 1
 476.057617188 132 l 1
 463.65234375 36 l 2
 463.439453125 35 463.439453125 35 463.439453125 35 c 1
 399.850585938 4 340.662109375 -11 271.662109375 -11 c 0
 141.204582115 -11 78.1544809489 49.587990099 78.1544809489 158.059870681 c 0
 78.1544809489 181.792159339 81.1725605685 207.816552074 87.1630859375 236 c 0
 120.747070312 394 216.940429688 489 377.940429688 489 c 0
 453.940429688 489 484.239257812 481 544.799804688 446 c 1
 508.607421875 351 l 1
 506.607421875 351 l 1
 462.810546875 399 434.360351562 411 361.360351562 411 c 0
EndSplineSet
Validated: 1
EndChar

StartChar: colon
Encoding: 58 58 20
Width: 306
Flags: HMW
LayerCount: 2
Fore
SplineSet
160.694335938 342 m 2
 159.694335938 342 158.694335938 342 158.907226562 343 c 2
 186.114257812 471 l 2
 186.327148438 472 187.327148438 472 188.327148438 472 c 2
 316.327148438 472 l 2
 317.327148438 472 317.327148438 472 317.114257812 471 c 2
 289.907226562 343 l 2
 289.694335938 342 289.694335938 342 288.694335938 342 c 2
 160.694335938 342 l 2
88 0 m 2
 87 0 86 0 86.212890625 1 c 2
 113.6328125 130 l 1
 113.6328125 130 114.844726562 131 115.844726562 131 c 2
 243.844726562 131 l 2
 244.844726562 131 244.6328125 130 244.6328125 130 c 1
 217.212890625 1 l 2
 217 0 217 0 216 0 c 2
 88 0 l 2
EndSplineSet
Validated: 1
EndChar

StartChar: comma
Encoding: 44 44 21
Width: 306
Flags: HMW
LayerCount: 2
Fore
SplineSet
88 0 m 2
 87 0 86 0 86.212890625 1 c 2
 113.6328125 130 l 1
 113.6328125 130 114.844726562 131 115.844726562 131 c 2
 243.844726562 131 l 2
 244.844726562 131 244.6328125 130 244.6328125 130 c 1
 217.212890625 1 l 1
 217.212890625 1 217.212890625 1 217 0 c 2
 128.40625 -111 l 2
 127.40625 -111 127.40625 -111 127.40625 -111 c 1
 64.40625 -111 l 1
 126 0 l 1
 88 0 l 2
EndSplineSet
Validated: 1
EndChar

StartChar: D
Encoding: 68 68 22
Width: 794
Flags: HMW
LayerCount: 2
Fore
SplineSet
91 0 m 1
 238.514648438 694 l 1
 543.514648438 694 l 2
 636.514648438 694 727.05078125 673 776.809570312 606 c 0
 806.603551887 565.203167279 817.659972563 514.55591308 817.659972563 460.393070857 c 0
 817.659972563 421.622253707 811.994690059 381.050057983 803.481445312 341 c 0
 782.713867188 248 745.095703125 151 666.067382812 85 c 0
 587.250976562 20 489 0 396 0 c 2
 91 0 l 1
254.280273438 86 m 1
 377.280273438 86 l 2
 443.280273438 86 513.830078125 98 568.033203125 146 c 0
 625.0859375 198 644.815429688 272 659.481445312 341 c 0
 667.723438774 379.775599174 675.298921382 419.397631313 675.298921382 456.269280483 c 0
 675.298921382 488.813203136 669.397386508 519.214492528 652.84375 545 c 0
 620.470703125 595 554.234375 608 488.234375 608 c 2
 365.234375 608 l 1
 254.280273438 86 l 1
EndSplineSet
Validated: 1
EndChar

StartChar: d
Encoding: 100 100 23
Width: 561
Flags: HMW
LayerCount: 2
Fore
SplineSet
325.665039062 483 m 0
 380.665039062 483 426.4140625 463 455.974609375 428 c 1
 512.514648438 694 l 1
 646.514648438 694 l 1
 499 0 l 1
 362 0 l 1
 373.052734375 52 l 1
 328.763671875 13 274.662109375 -11 218.662109375 -11 c 0
 116.49735463 -11 76.010611604 49.4541245074 76.010611604 141.555093655 c 0
 76.010611604 170.254393608 79.9418288788 202.026566631 87.1630859375 236 c 0
 117.771484375 380 190.665039062 483 325.665039062 483 c 0
384.10546875 104 m 1
 443.196289062 382 l 1
 427.022460938 400 402.360351562 411 373.360351562 411 c 0
 288.360351562 411 251.0078125 367 223.163085938 236 c 0
 214.596231863 195.696304727 209.899032397 163.49453793 209.899032397 138.266288916 c 0
 209.899032397 82.7465047606 232.64792827 61 286.965820312 61 c 0
 321.965820312 61 356.3671875 77 384.10546875 104 c 1
EndSplineSet
Validated: 1
EndChar

StartChar: dollar
Encoding: 36 36 24
Width: 550
Flags: HMW
LayerCount: 2
Fore
SplineSet
387.639648438 704 m 1
 397.416992188 750 l 1
 469.416992188 750 l 1
 459.639648438 704 l 1
 516.790039062 700 559.388671875 684 606.162109375 650 c 1
 606.94921875 649 l 1
 565.84375 545 l 2
 564.84375 545 564.84375 545 564.84375 545 c 1
 527.495117188 581 489.321289062 599 438.383789062 604 c 1
 400.974609375 428 l 1
 410.548828125 426 l 2
 489.141997609 407.472657882 536.765669575 340.009146322 536.765669575 257.653903877 c 0
 536.765669575 242.217713407 535.092574443 226.258352812 531.63671875 210 c 0
 505.91796875 89 435.637695312 3 308.086914062 -9 c 1
 298.096679688 -56 l 1
 226.096679688 -56 l 1
 236.086914062 -9 l 1
 169.362304688 -3 109.250976562 20 61.541015625 59 c 1
 104.709960938 168 l 1
 142.569335938 125 195.830078125 98 257.342773438 91 c 1
 300.491210938 294 l 1
 289.12890625 297 l 2
 288.12890625 297 288.12890625 297 288.12890625 297 c 1
 211.094119623 315.763335602 162.40245396 378.898217768 162.40245396 456.626111081 c 0
 162.40245396 470.034127139 163.851325494 483.876373535 166.853515625 498 c 0
 192.147460938 617 264.088867188 692 387.639648438 704 c 1
368.666015625 276 m 1
 329.767578125 93 l 1
 376.53125 106 400.970703125 141 410.53515625 186 c 0
 411.981977418 192.806224306 412.680320085 199.49663689 412.680320085 205.982560686 c 0
 412.680320085 237.614239274 396.07033005 264.382178507 368.666015625 276 c 1
332.587890625 445 m 1
 365.958984375 602 l 1
 324.045898438 593 296.881835938 564 288.166992188 523 c 0
 287.057713181 517.781462315 286.526051527 512.710017182 286.526051527 507.813079176 c 0
 286.526051527 478.928567501 305.023685643 456.115528058 332.587890625 445 c 1
EndSplineSet
Validated: 1
EndChar

StartChar: E
Encoding: 69 69 25
Width: 642
Flags: HMW
LayerCount: 2
Fore
SplineSet
91 0 m 1
 238.088867188 692 l 1
 726.088867188 692 l 1
 704.62109375 591 l 1
 364.62109375 591 l 1
 325.510742188 407 l 1
 634.510742188 407 l 1
 614.317382812 312 l 1
 305.317382812 312 l 1
 262.380859375 110 l 1
 617.380859375 110 l 1
 594 0 l 1
 91 0 l 1
EndSplineSet
Validated: 1
EndChar

StartChar: e
Encoding: 101 101 26
Width: 511
Flags: HMW
LayerCount: 2
Fore
SplineSet
520.82421875 432 m 0
 537.477880593 406.163987984 543.556342169 375.045805697 543.556342169 341.870313205 c 0
 543.556342169 312.125911902 538.670163066 280.727739163 532.138671875 250 c 1
 211.138671875 250 l 1
 205.562503108 223.765857462 201.51496411 196.167802449 201.51496411 170.413793345 c 0
 201.51496411 110.760063704 223.230800216 61 297.965820312 61 c 0
 363.965820312 61 432.067382812 85 490.419921875 129 c 1
 492.419921875 129 l 1
 481.290039062 39 l 2
 481.077148438 38 480.077148438 38 480.077148438 38 c 1
 416.275390625 6 348.662109375 -11 282.662109375 -11 c 0
 212.662109375 -11 144.637695312 3 104.840820312 51 c 0
 80.8500131942 80.6809925112 71.7291174838 119.15630372 71.7291174838 160.515061628 c 0
 71.7291174838 186.041546147 75.203555207 212.666426735 80.80078125 239 c 0
 120.336914062 425 242.940429688 489 373.940429688 489 c 0
 432.940429688 489 491.176757812 476 520.82421875 432 c 0
226.404296875 303 m 1
 430.404296875 303 l 1
 431.111987731 310.535398437 431.49587493 318.005548693 431.49587493 325.304199822 c 0
 431.49587493 375.151885443 413.58946928 417 358.635742188 417 c 0
 296.635742188 417 250.220703125 368 226.404296875 303 c 1
EndSplineSet
Validated: 1
EndChar

StartChar: eight
Encoding: 56 56 27
Width: 550
Flags: HMW
LayerCount: 2
Fore
SplineSet
426.403320312 717 m 0
 484.403320312 717 541.27734375 707 575.775390625 667 c 0
 596.243564514 643.432924928 604.119898624 612.157498125 604.119898624 578.341950142 c 0
 604.119898624 559.067529533 601.560994965 538.96786138 597.31640625 519 c 0
 582.86328125 451 536.384765625 397 457.708984375 375 c 1
 524.07005657 354.330145114 550.928269295 308.379645196 550.928269295 251.71952973 c 0
 550.928269295 237.108559347 549.142273962 221.785429759 545.787109375 206 c 0
 532.395507812 143 505.791992188 79 452.439453125 35 c 0
 399.086914062 -9 332.32421875 -22 269.32421875 -22 c 0
 206.32421875 -22 145.086914062 -9 110.439453125 35 c 0
 89.3047341834 61.8397050828 81.2866153662 96.1212466216 81.2866153662 133.07818074 c 0
 81.2866153662 156.707050236 84.5642950062 181.429577732 89.787109375 206 c 0
 106.153320312 283 155.182617188 349 249.708984375 375 c 1
 193.328073448 392.892448884 167.243185003 431.951160714 167.243185003 482.493048841 c 0
 167.243185003 494.095898196 168.617908535 506.303932914 171.31640625 519 c 0
 183.0078125 574 207.91015625 630 255.775390625 667 c 0
 307.27734375 707 368.403320312 717 426.403320312 717 c 0
361.360351562 411 m 0
 433.360351562 411 455.500976562 454 469.31640625 519 c 0
 473.382950798 538.130819067 475.899365726 555.032346198 475.899365726 569.470133624 c 0
 475.899365726 607.105774359 458.800016001 628 407.485351562 628 c 0
 335.485351562 628 313.983398438 588 299.31640625 519 c 0
 295.456556317 500.839852156 292.976349219 484.396959065 292.976349219 470.129291081 c 0
 292.976349219 433.329179941 309.476207636 411 361.360351562 411 c 0
346.056640625 339 m 0
 265.056640625 339 244.515625 280 228.787109375 206 c 0
 223.237050539 179.89007543 219.107455673 156.245308577 219.107455673 136.340998266 c 0
 219.107455673 96.783773172 235.417863375 72 289.303710938 72 c 0
 370.303710938 72 390.20703125 128 406.787109375 206 c 0
 412.031845437 230.675594179 416.032625992 253.683315052 416.032625992 273.391762933 c 0
 416.032625992 312.787267428 400.046868618 339 346.056640625 339 c 0
EndSplineSet
Validated: 1
EndChar

StartChar: equal
Encoding: 61 61 28
Width: 856
Flags: HMW
LayerCount: 2
Fore
SplineSet
193.336914062 425 m 2
 840.336914062 425 l 2
 861.016727019 425 874.24297765 410.893335739 874.24297765 391.636420587 c 0
 874.24297765 388.54468275 873.902044967 385.320187043 873.196289062 382 c 0
 868.307617188 359 846.26953125 340 822.26953125 340 c 2
 175.26953125 340 l 2
 155.213818381 340 141.269962446 354.446882334 141.269962446 373.395251444 c 0
 141.269962446 376.176974521 141.570478032 379.055712869 142.196289062 382 c 0
 147.297851562 406 170.336914062 425 193.336914062 425 c 2
142.9609375 188 m 2
 789.9609375 188 l 2
 810.640750457 188 823.867001088 173.893335739 823.867001088 154.636420587 c 0
 823.867001088 151.54468275 823.526068405 148.320187043 822.8203125 145 c 0
 817.931640625 122 795.893554688 103 771.893554688 103 c 2
 124.893554688 103 l 2
 104.837841819 103 90.8939858834 117.446882334 90.8939858834 136.395251444 c 0
 90.8939858834 139.176974521 91.1945014699 142.055712869 91.8203125 145 c 0
 96.921875 169 119.9609375 188 142.9609375 188 c 2
EndSplineSet
Validated: 1
EndChar

StartChar: exclam
Encoding: 33 33 29
Width: 367
Flags: HMW
LayerCount: 2
Fore
SplineSet
117 0 m 1
 144.844726562 131 l 1
 275.844726562 131 l 1
 248 0 l 1
 117 0 l 1
265.514648438 694 m 1
 395.514648438 694 l 1
 280.298828125 199 l 1
 170.51171875 200 l 1
 265.514648438 694 l 1
EndSplineSet
Validated: 1
EndChar

StartChar: F
Encoding: 70 70 30
Width: 611
Flags: HMW
LayerCount: 2
Fore
SplineSet
91 0 m 1
 238.088867188 692 l 1
 710.088867188 692 l 1
 688.62109375 591 l 1
 364.62109375 591 l 1
 322.53515625 393 l 1
 601.53515625 393 l 1
 581.5546875 299 l 1
 302.5546875 299 l 1
 239 0 l 1
 91 0 l 1
EndSplineSet
Validated: 1
EndChar

StartChar: f
Encoding: 102 102 31
Width: 336
Flags: HMW
LayerCount: 2
Fore
SplineSet
219 0 m 1
 85 0 l 1
 170.022460938 400 l 1
 113.022460938 400 l 1
 128.327148438 472 l 1
 185.327148438 472 l 1
 201.268554688 547 l 2
 225.075195312 659 319.064453125 706 437.064453125 706 c 0
 472.064453125 706 495.427734375 703 526.514648438 694 c 1
 506.470703125 595 l 1
 505.258789062 594 l 2
 504.258789062 594 504.470703125 595 504.470703125 595 c 2
 484.209960938 622 459.547851562 633 421.547851562 633 c 0
 378.547851562 633 346.934570312 616 338.432617188 576 c 2
 316.327148438 472 l 1
 414.327148438 472 l 1
 399.022460938 400 l 1
 304.022460938 400 l 1
 219 0 l 1
EndSplineSet
Validated: 1
EndChar

StartChar: five
Encoding: 53 53 32
Width: 550
Flags: HMW
LayerCount: 2
Fore
SplineSet
144.916992188 296 m 1
 229.514648438 694 l 1
 604.514648438 694 l 1
 583.258789062 594 l 1
 339.258789062 594 l 1
 305.25 434 l 1
 327.587890625 445 351.86328125 451 379.86328125 451 c 0
 495.432834551 451 548.630760163 394.175706217 548.630760163 296.363044017 c 0
 548.630760163 273.147197452 545.633850937 247.622268005 539.762695312 220 c 0
 505.752929688 60 399.32421875 -22 235.32421875 -22 c 0
 155.32421875 -22 87.61328125 17 54.4296875 82 c 1
 54.642578125 83 l 1
 124.921875 169 l 1
 126.709960938 168 l 1
 140.380859375 110 191.303710938 72 255.303710938 72 c 0
 335.303710938 72 368.53125 106 392.762695312 220 c 0
 403.395280439 270.023385808 409.188512846 305.307964676 409.188512846 329.703629404 c 0
 409.188512846 367.243984609 395.470462441 379 364.55859375 379 c 0
 311.55859375 379 273.481445312 341 246.916992188 296 c 1
 144.916992188 296 l 1
EndSplineSet
Validated: 1
EndChar

StartChar: four
Encoding: 52 52 33
Width: 550
Flags: HMW
LayerCount: 2
Fore
SplineSet
574.514648438 694 m 1
 479.501953125 247 l 1
 570.501953125 247 l 1
 550.521484375 153 l 1
 459.521484375 153 l 1
 427 0 l 1
 303 0 l 1
 335.521484375 153 l 1
 62.521484375 153 l 1
 82.501953125 247 l 1
 211.635742188 417 l 2
 307.206054688 542 420.514648438 694 421.514648438 694 c 2
 574.514648438 694 l 1
186.501953125 247 m 1
 361.501953125 247 l 1
 434.833007812 592 l 1
 432.833007812 592 l 1
 427.094726562 565 273.9453125 362 186.501953125 247 c 1
EndSplineSet
Validated: 1
EndChar

StartChar: G
Encoding: 71 71 34
Width: 733
Flags: HMW
LayerCount: 2
Fore
SplineSet
577.064453125 706 m 0
 662.064453125 706 718.301757812 693 787.649414062 657 c 1
 788.4375 656 l 1
 736.8046875 526 l 1
 688.920898438 583 637.809570312 606 555.809570312 606 c 0
 402.809570312 606 314.916015625 503 281.756835938 347 c 0
 274.886749991 314.67880839 271.280163178 284.618690253 271.280163178 257.282066191 c 0
 271.280163178 153.522758496 323.23916036 89 445.91796875 89 c 0
 477.91796875 89 510.555664062 92 543.04296875 99 c 1
 571.951171875 235 l 1
 477.951171875 235 l 2
 476.951171875 235 477.163085938 236 477.163085938 236 c 1
 496.930664062 329 l 1
 496.930664062 329 497.143554688 330 498.143554688 330 c 2
 727.143554688 330 l 2
 728.143554688 330 727.930664062 329 727.930664062 329 c 1
 666.290039062 39 l 2
 666.077148438 38 666.077148438 38 666.077148438 38 c 1
 586.0625 5 503.662109375 -11 424.662109375 -11 c 0
 312.662109375 -11 221.763671875 13 168.791992188 79 c 0
 136.010600914 119.820088514 121.775456664 173.25118006 121.775456664 234.882337933 c 0
 121.775456664 269.879929469 126.365719298 307.521713251 134.756835938 347 c 0
 157.712890625 455 203.119140625 551 282.934570312 616 c 0
 363.750976562 681 465.064453125 706 577.064453125 706 c 0
EndSplineSet
Validated: 5
EndChar

StartChar: g
Encoding: 103 103 35
Width: 561
Flags: HMW
LayerCount: 2
Fore
SplineSet
452.786132812 413 m 1
 467.665039062 483 l 1
 601.665039062 483 l 1
 499 0 l 2
 471.155273438 -131 370.401367188 -191 233.401367188 -191 c 0
 156.401367188 -191 105.377929688 -177 46.455078125 -139 c 1
 65.5849609375 -49 l 1
 67.796875 -48 l 1
 117.95703125 -99 168.706054688 -119 248.706054688 -119 c 0
 312.706054688 -119 347.333984375 -69 362 0 c 2
 387.719726562 121 l 1
 350.390625 63 297.1015625 24 239.1015625 24 c 0
 130.115460481 24 79.2041349982 76.2588362792 79.2041349982 167.325991971 c 0
 79.2041349982 188.22723075 81.885987649 211.172772899 87.1630859375 236 c 0
 119.471679688 388 202.665039062 483 345.665039062 483 c 0
 396.665039062 483 432.92578125 456 452.786132812 413 c 1
415.138671875 250 m 1
 416.3515625 251 l 1
 418.3515625 251 l 1
 440.032226562 353 l 1
 431.471679688 388 409.360351562 411 373.360351562 411 c 0
 286.360351562 411 243.568359375 332 223.163085938 236 c 0
 218.878061227 215.840600912 216.533268376 197.131771859 216.533268376 180.378720712 c 0
 216.533268376 128.987369932 238.597901883 96 294.405273438 96 c 0
 354.405273438 96 397.072265625 165 415.138671875 250 c 1
EndSplineSet
Validated: 1
EndChar

StartChar: grave
Encoding: 96 96 36
Width: 550
Flags: HMW
HStem: 537 21G<289 326 289 289> 674 20G<146 228 228 238>
LayerCount: 2
Fore
SplineSet
469.90625 550 m 1
 467.142578125 537 456.142578125 537 440.142578125 537 c 2
 403.142578125 537 l 1
 271.5625 666 l 2
 267.413085938 670 262.475585938 675 263.750976562 681 c 0
 266.514648438 694 277.514648438 694 293.514648438 694 c 2
 375.514648438 694 l 2
 395.514648438 694 396.301757812 693 402.963867188 682 c 2
 464.094726562 565 l 2
 470.755859375 554 469.90625 550 469.90625 550 c 1
EndSplineSet
Validated: 1
EndChar

StartChar: H
Encoding: 72 72 37
Width: 794
Flags: HMW
LayerCount: 2
Fore
SplineSet
238.514648438 694 m 1
 386.514648438 694 l 1
 325.72265625 408 l 1
 640.72265625 408 l 1
 701.514648438 694 l 1
 848.514648438 694 l 1
 701 0 l 1
 554 0 l 1
 620.743164062 314 l 1
 305.743164062 314 l 1
 239 0 l 1
 91 0 l 1
 238.514648438 694 l 1
EndSplineSet
Validated: 1
EndChar

StartChar: h
Encoding: 104 104 38
Width: 561
Flags: HMW
LayerCount: 2
Fore
SplineSet
206.514648438 694 m 1
 340.514648438 694 l 1
 273.346679688 378 l 1
 315.524414062 440 381.665039062 483 450.665039062 483 c 0
 539.640480554 483 576.674958393 454.480543295 576.674958393 387.189964574 c 0
 576.674958393 369.020608867 573.974877637 348.024558509 568.868164062 324 c 2
 500 0 l 1
 364 0 l 1
 432.868164062 324 l 2
 436.131503843 339.352189596 437.953494565 352.543890042 437.953494565 363.675611155 c 0
 437.953494565 396.049297696 422.543380926 411 382.360351562 411 c 0
 322.360351562 411 269.39453125 350 254.090820312 278 c 2
 195 0 l 1
 59 0 l 1
 206.514648438 694 l 1
EndSplineSet
Validated: 1
EndChar

StartChar: hyphen
Encoding: 45 45 39
Width: 367
Flags: HMW
LayerCount: 2
Fore
SplineSet
54.51171875 200 m 1
 69.8154296875 272 l 1
 361.815429688 272 l 1
 346.51171875 200 l 1
 54.51171875 200 l 1
EndSplineSet
Validated: 1
EndChar

StartChar: I
Encoding: 73 73 40
Width: 331
Flags: HMW
LayerCount: 2
Fore
SplineSet
238.514648438 694 m 1
 385.514648438 694 l 1
 238 0 l 1
 91 0 l 1
 238.514648438 694 l 1
EndSplineSet
Validated: 1
EndChar

StartChar: i
Encoding: 105 105 41
Width: 256
Flags: HMW
LayerCount: 2
Fore
SplineSet
159.327148438 472 m 1
 292.327148438 472 l 1
 192 0 l 1
 59 0 l 1
 159.327148438 472 l 1
179.58203125 572 m 1
 205.514648438 694 l 1
 339.514648438 694 l 1
 313.58203125 572 l 1
 179.58203125 572 l 1
EndSplineSet
Validated: 1
EndChar

StartChar: J
Encoding: 74 74 42
Width: 519
Flags: HMW
LayerCount: 2
Fore
SplineSet
429.514648438 694 m 1
 573.514648438 694 l 1
 457.033203125 146 l 2
 434.501953125 40 346.32421875 -22 231.32421875 -22 c 0
 165.32421875 -22 104.299804688 -8 50.2509765625 20 c 1
 96.7578125 140 l 1
 97.544921875 139 l 1
 113.04296875 99 150.94140625 75 197.94140625 75 c 0
 257.94140625 75 302.830078125 98 313.033203125 146 c 2
 429.514648438 694 l 1
EndSplineSet
Validated: 1
EndChar

StartChar: j
Encoding: 106 106 43
Width: 286
Flags: HMW
LayerCount: 2
Fore
SplineSet
191.327148438 472 m 1
 324.327148438 472 l 1
 212.096679688 -56 l 2
 194.029296875 -141 126.165039062 -178 39.1650390625 -178 c 0
 -11.8349609375 -178 -58.7099609375 -168 -101.458007812 -148 c 1
 -102.24609375 -147 l 1
 -65.154296875 -76 l 1
 -45.4921875 -87 -22.767578125 -93 1.232421875 -93 c 0
 37.232421875 -93 72.294921875 -88 76.9716796875 -66 c 2
 191.327148438 472 l 1
212.58203125 572 m 1
 238.514648438 694 l 1
 371.514648438 694 l 1
 345.58203125 572 l 1
 212.58203125 572 l 1
EndSplineSet
Validated: 1
EndChar

StartChar: K
Encoding: 75 75 44
Width: 764
Flags: HMW
LayerCount: 2
Fore
SplineSet
238.514648438 694 m 1
 368.514648438 694 l 1
 300.49609375 374 l 1
 690.514648438 694 l 1
 848.514648438 694 l 1
 511.848632812 418 l 1
 716 0 l 1
 568 0 l 1
 406.568359375 332 l 1
 267.125 217 l 1
 221 0 l 1
 91 0 l 1
 238.514648438 694 l 1
EndSplineSet
Validated: 1
EndChar

StartChar: k
Encoding: 107 107 45
Width: 531
Flags: HMW
LayerCount: 2
Fore
SplineSet
215.946289062 155 m 1
 183 0 l 1
 69 0 l 1
 216.514648438 694 l 1
 333.514648438 694 l 1
 252.955078125 315 l 1
 436.327148438 472 l 1
 586.327148438 472 l 1
 377.279296875 293 l 1
 510 0 l 1
 376 0 l 1
 280.63671875 210 l 1
 215.946289062 155 l 1
EndSplineSet
Validated: 1
EndChar

StartChar: L
Encoding: 76 76 46
Width: 581
Flags: HMW
LayerCount: 2
Fore
SplineSet
238.514648438 694 m 1
 385.514648438 694 l 1
 260.318359375 105 l 1
 555.318359375 105 l 1
 533 0 l 1
 91 0 l 1
 238.514648438 694 l 1
EndSplineSet
Validated: 1
EndChar

StartChar: l
Encoding: 108 108 47
Width: 256
Flags: HMW
LayerCount: 2
Fore
SplineSet
206.514648438 694 m 1
 339.514648438 694 l 1
 192 0 l 1
 59 0 l 1
 206.514648438 694 l 1
EndSplineSet
Validated: 1
EndChar

StartChar: M
Encoding: 77 77 48
Width: 978
Flags: HMW
LayerCount: 2
Fore
SplineSet
91 0 m 1
 238.514648438 694 l 1
 418.514648438 694 l 1
 454.616210938 511 521.921875 169 517.24609375 147 c 1
 519.24609375 147 l 1
 523.921875 169 736.616210938 511 850.514648438 694 c 1
 1031.51464844 694 l 1
 884 0 l 1
 762 0 l 1
 882.944335938 569 l 2
 885.944335938 569 657.661132812 196 549.67578125 22 c 1
 432.67578125 22 l 1
 401.110351562 184 330.944335938 569 334.944335938 569 c 1
 214 0 l 1
 91 0 l 1
EndSplineSet
Validated: 37
EndChar

StartChar: m
Encoding: 109 109 49
Width: 867
Flags: HMW
CounterMasks: 1 38
LayerCount: 2
Fore
SplineSet
160.6015625 478 m 1
 291.6015625 478 l 1
 269.071289062 372 l 1
 311.887695312 437 379.665039062 483 450.665039062 483 c 0
 528.621450966 483 578.251458723 463.190525849 578.251458723 394.796257178 c 0
 578.251458723 389.493976353 577.953174438 383.899693142 577.346679688 378 c 1
 620.524414062 440 686.665039062 483 755.665039062 483 c 0
 844.527021722 483 881.843126033 455.790047276 881.843126033 388.239787971 c 0
 881.843126033 369.890778849 879.089737556 348.565238886 873.868164062 324 c 2
 805 0 l 1
 669 0 l 1
 737.868164062 324 l 2
 741.140765854 339.396161801 743.011283881 352.681350967 743.011283881 363.908876753 c 0
 743.011283881 395.706621155 728.007997341 411 687.360351562 411 c 0
 628.360351562 411 574.39453125 350 559.090820312 278 c 2
 500 0 l 1
 364 0 l 1
 432.868164062 324 l 2
 436.140765854 339.396161801 438.011283881 352.681350967 438.011283881 363.908876753 c 0
 438.011283881 395.706621155 423.007997341 411 382.360351562 411 c 0
 323.360351562 411 269.39453125 350 254.090820312 278 c 2
 195 0 l 1
 59 0 l 1
 160.6015625 478 l 1
EndSplineSet
Validated: 1
EndChar

StartChar: N
Encoding: 78 78 50
Width: 794
Flags: HMW
LayerCount: 2
Fore
SplineSet
91 0 m 1
 238.514648438 694 l 1
 429.514648438 694 l 1
 604.293945312 119 l 1
 726.514648438 694 l 1
 848.514648438 694 l 1
 701 0 l 1
 510 0 l 1
 336.219726562 575 l 1
 214 0 l 1
 91 0 l 1
EndSplineSet
Validated: 1
EndChar

StartChar: n
Encoding: 110 110 51
Width: 561
Flags: HMW
LayerCount: 2
Fore
SplineSet
160.6015625 478 m 1
 291.6015625 478 l 1
 269.071289062 372 l 1
 311.887695312 437 379.665039062 483 450.665039062 483 c 0
 539.640480554 483 576.674958393 454.480543295 576.674958393 387.189964574 c 0
 576.674958393 369.020608867 573.974877637 348.024558509 568.868164062 324 c 2
 500 0 l 1
 364 0 l 1
 432.868164062 324 l 2
 436.131503843 339.352189596 437.953494565 352.543890042 437.953494565 363.675611155 c 0
 437.953494565 396.049297696 422.543380926 411 382.360351562 411 c 0
 322.360351562 411 269.39453125 350 254.090820312 278 c 2
 195 0 l 1
 59 0 l 1
 160.6015625 478 l 1
EndSplineSet
Validated: 1
EndChar

StartChar: nine
Encoding: 57 57 52
Width: 550
Flags: HMW
LayerCount: 2
Fore
SplineSet
223.32421875 -22 m 0
 164.32421875 -22 126.086914062 -9 85.7392578125 27 c 1
 84.7392578125 27 l 1
 149.168945312 109 l 1
 151.380859375 110 l 1
 176.642578125 83 202.303710938 72 243.303710938 72 c 0
 345.303710938 72 390.8203125 145 426.830078125 305 c 1
 388.864257812 244 335.149414062 203 274.149414062 203 c 0
 170.95662573 203 130.800468763 262.005283321 130.800468763 354.802047111 c 0
 130.800468763 385.203394784 135.110417986 419.231572712 142.92578125 456 c 0
 161.84375 545 183.108398438 598 242.374023438 651 c 0
 299.21484375 702 353.403320312 717 432.403320312 717 c 0
 554.79755489 717 598.080699566 640.589388949 598.080699566 523.417445286 c 0
 598.080699566 472.098919149 589.777989202 412.961424652 576.182617188 349 c 0
 530.057617188 132 421.32421875 -22 223.32421875 -22 c 0
326.453125 275 m 0
 391.453125 275 435.969726562 348 456.162109375 443 c 2
 458.92578125 456 l 1
 466.039204632 497.460565284 470.230259403 530.605728115 470.230259403 556.29896166 c 0
 470.230259403 606.209484868 454.415228222 628 413.485351562 628 c 0
 342.485351562 628 314.447265625 609 281.92578125 456 c 0
 269.641338695 398.205945772 263.715488481 358.77273236 263.715488481 331.901302842 c 0
 263.715488481 280.195936714 285.655677439 275 326.453125 275 c 0
EndSplineSet
Validated: 1
EndChar

StartChar: numbersign
Encoding: 35 35 53
Width: 917
Flags: HMW
LayerCount: 2
Fore
SplineSet
193.336914062 425 m 2
 436.336914062 425 l 1
 558.137695312 664 l 2
 567.17578125 683 585.514648438 694 604.514648438 694 c 0
 626.968110758 694 639.538321912 679.084083723 639.538321912 660.84542685 c 0
 639.538321912 657.964620188 639.224715385 655.000916498 638.586914062 652 c 0
 637.736328125 648 635.88671875 644 634.036132812 640 c 2
 524.336914062 425 l 1
 668.336914062 425 l 1
 790.137695312 664 l 2
 800.17578125 683 818.514648438 694 837.514648438 694 c 0
 859.011223307 694 871.606544319 679.952076974 871.606544319 661.39251184 c 0
 871.606544319 658.367748719 871.271997899 655.22315112 870.586914062 652 c 0
 869.736328125 648 867.88671875 644 866.036132812 640 c 2
 756.336914062 425 l 1
 902.336914062 425 l 2
 922.291850742 425 936.195462939 410.69793864 936.195462939 391.23696055 c 0
 936.195462939 388.267273824 935.871705621 385.177457378 935.196289062 382 c 0
 930.307617188 359 907.26953125 340 884.26953125 340 c 2
 712.26953125 340 l 1
 634.9609375 188 l 1
 851.9609375 188 l 2
 871.915874179 188 885.819486377 173.69793864 885.819486377 154.23696055 c 0
 885.819486377 151.267273824 885.495729059 148.177457378 884.8203125 145 c 0
 879.931640625 122 856.893554688 103 833.893554688 103 c 2
 590.893554688 103 l 1
 469.092773438 -136 l 2
 459.053710938 -155 440.502929688 -167 421.502929688 -167 c 0
 400.639663742 -167 387.522930261 -151.886254655 387.522930261 -133.483342287 c 0
 387.522930261 -130.716515556 387.819424667 -127.87533955 388.430664062 -125 c 0
 389.280273438 -121 391.130859375 -117 392.981445312 -113 c 2
 502.893554688 103 l 1
 357.893554688 103 l 1
 237.092773438 -136 l 2
 227.053710938 -155 207.502929688 -167 189.502929688 -167 c 0
 168.639663742 -167 155.522930261 -151.886254655 155.522930261 -133.483342287 c 0
 155.522930261 -130.716515556 155.819424667 -127.87533955 156.430664062 -125 c 0
 157.280273438 -121 158.130859375 -117 160.981445312 -113 c 2
 269.893554688 103 l 1
 124.893554688 103 l 2
 104.837841819 103 90.8939858834 117.446882334 90.8939858834 136.395251444 c 0
 90.8939858834 139.176974521 91.1945014699 142.055712869 91.8203125 145 c 0
 96.921875 169 119.9609375 188 142.9609375 188 c 2
 314.9609375 188 l 1
 391.26953125 340 l 1
 175.26953125 340 l 2
 155.213818381 340 141.269962446 354.446882334 141.269962446 373.395251444 c 0
 141.269962446 376.176974521 141.570478032 379.055712869 142.196289062 382 c 0
 147.297851562 406 170.336914062 425 193.336914062 425 c 2
546.9609375 188 m 1
 624.26953125 340 l 1
 479.26953125 340 l 1
 402.9609375 188 l 1
 546.9609375 188 l 1
EndSplineSet
Validated: 1
EndChar

StartChar: O
Encoding: 79 79 54
Width: 794
Flags: HMW
LayerCount: 2
Fore
SplineSet
548.403320312 717 m 0
 642.403320312 717 732.301757812 693 780.422851562 623 c 0
 808.97368833 580.324543453 819.567297828 528.820581268 819.567297828 473.976635894 c 0
 819.567297828 431.149924978 813.107543158 386.286564325 803.694335938 342 c 0
 782.651367188 243 743.970703125 141 662.666015625 69 c 0
 585 0 485.32421875 -22 391.32421875 -22 c 0
 298.32421875 -22 208 0 159.666015625 69 c 0
 129.869530068 110.499835408 118.80235691 161.966316295 118.80235691 217.080337639 c 0
 118.80235691 257.586202441 124.78025246 300.062273686 133.694335938 342 c 0
 155.162109375 443 193.268554688 547 277.422851562 623 c 0
 354.301757812 693 454.403320312 717 548.403320312 717 c 0
531.823242188 639 m 0
 475.823242188 639 415.360351562 618 373.370117188 571 c 0
 319.404296875 510 300.25 434 284.733398438 361 c 0
 275.244561176 316.359272822 266.91842537 266.648121709 266.91842537 220.612707824 c 0
 266.91842537 132.586600237 297.361070332 58 408.328125 58 c 0
 576.328125 58 633.100585938 231 660.733398438 361 c 0
 669.078545047 400.262113339 675.532953226 442.048751252 675.532953226 480.974372148 c 0
 675.532953226 566.968879483 644.031778106 639 531.823242188 639 c 0
EndSplineSet
Validated: 1
EndChar

StartChar: o
Encoding: 111 111 55
Width: 550
Flags: HMW
LayerCount: 2
Fore
SplineSet
377.940429688 489 m 0
 445.940429688 489 511.5390625 473 547.124023438 424 c 0
 569.010623525 393.961215133 577.206914231 356.637193617 577.206914231 316.727573265 c 0
 577.206914231 288.878439495 573.21587917 259.77029528 567.100585938 231 c 0
 552.859375 164 524.405273438 96 467.415039062 49 c 0
 409.424804688 2 338.662109375 -11 271.662109375 -11 c 0
 204.662109375 -11 139.424804688 2 101.415039062 49 c 0
 78.7473538397 77.7864888491 70.1334852186 114.450705514 70.1334852186 153.937952198 c 0
 70.1334852186 178.921944221 73.581810316 205.036058572 79.1005859375 231 c 0
 93.9794921875 301 122.283203125 373 181.124023438 424 c 0
 237.5390625 473 309.940429688 489 377.940429688 489 c 0
362.635742188 417 m 0
 262.635742188 417 237.356445312 331 219.2890625 246 c 0
 212.255123953 212.907561564 206.06102812 179.950321829 206.06102812 151.502912062 c 0
 206.06102812 102.583195077 224.378280738 67 288.241210938 67 c 0
 389.241210938 67 414.159179688 156 433.2890625 246 c 0
 439.719298246 276.251755002 445.28970788 306.63017695 445.28970788 333.213206151 c 0
 445.28970788 381.321958698 427.045442185 417 362.635742188 417 c 0
EndSplineSet
Validated: 1
EndChar

StartChar: one
Encoding: 49 49 56
Width: 550
Flags: HMW
LayerCount: 2
Fore
SplineSet
342.62109375 591 m 1
 295.0703125 579 246.219726562 575 198.219726562 575 c 1
 213.524414062 647 l 1
 302.524414062 647 393.287109375 660 473.403320312 717 c 1
 507.403320312 717 l 1
 370.303710938 72 l 1
 487.303710938 72 l 1
 472 0 l 1
 91 0 l 1
 106.303710938 72 l 1
 232.303710938 72 l 1
 342.62109375 591 l 1
EndSplineSet
Validated: 1
EndChar

StartChar: P
Encoding: 80 80 57
Width: 703
Flags: HMW
LayerCount: 2
Fore
SplineSet
239 0 m 1
 91 0 l 1
 238.514648438 694 l 1
 528.514648438 694 l 2
 597.514648438 694 667.6015625 685 711.036132812 640 c 0
 737.330023728 612.680285833 748.013715348 575.56450765 748.013715348 535.343307173 c 0
 748.013715348 516.674871791 745.712129768 497.337435895 741.6015625 478 c 0
 728.848632812 418 696.8828125 357 643.018554688 320 c 0
 579.877929688 277 506.96484375 268 437.96484375 268 c 2
 295.96484375 268 l 1
 239 0 l 1
309.756835938 347 m 1
 417.756835938 347 l 2
 461.756835938 347 506.969726562 348 548.133789062 377 c 0
 582.235351562 401 594.3125 439 602.6015625 478 c 0
 606.078198833 494.354953736 608.897694448 511.296067833 608.897694448 527.182388361 c 0
 608.897694448 547.235873536 604.405024604 565.608618639 591.0703125 579 c 0
 563.021484375 607 517.234375 608 473.234375 608 c 2
 365.234375 608 l 1
 309.756835938 347 l 1
EndSplineSet
Validated: 1
EndChar

StartChar: p
Encoding: 112 112 58
Width: 561
Flags: HMW
LayerCount: 2
Fore
SplineSet
276.283203125 373 m 1
 217.618164062 97 l 1
 232.729492188 74 254.965820312 61 285.965820312 61 c 0
 371.965820312 61 415.544921875 139 436.163085938 236 c 0
 441.966897807 263.304580417 445.338492905 289.090405514 445.338492905 311.935961902 c 0
 445.338492905 367.739565019 425.221807821 406 371.297851562 406 c 0
 337.297851562 406 303.53515625 393 276.283203125 373 c 1
319.662109375 -11 m 0
 270.662109375 -11 232.125976562 10 206.352539062 44 c 1
 161.502929688 -167 l 1
 25.5029296875 -167 l 1
 161.327148438 472 l 1
 294.327148438 472 l 1
 283.69921875 422 l 1
 334.776367188 460 400.665039062 483 466.665039062 483 c 0
 552.804695377 483 585.56474669 424.914363508 585.56474669 339.864078018 c 0
 585.56474669 308.406658263 581.083083482 273.260401937 573.163085938 236 c 0
 542.129882812 90 461.662109375 -11 319.662109375 -11 c 0
EndSplineSet
Validated: 1
EndChar

StartChar: parenleft
Encoding: 40 40 59
Width: 428
Flags: HMW
LayerCount: 2
Fore
SplineSet
452.416992188 750 m 1
 452.416992188 750 452.416992188 750 453.416992188 750 c 2
 523.416992188 750 l 1
 524.205078125 749 l 1
 391.485351562 628 320.201171875 462 278.115234375 264 c 0
 260.55162973 181.369878094 250.440857138 104.601806631 250.440857138 34.4116915262 c 0
 250.440857138 -64.4386423452 270.494289349 -150.242435933 318.025390625 -221 c 1
 317.8125 -222 l 2
 316.8125 -222 316.8125 -222 316.8125 -222 c 1
 246.8125 -222 l 2
 245.8125 -222 245.8125 -222 245.8125 -222 c 1
 162.436190966 -144.212311538 123.924026428 -30.2647343608 123.924026428 100.216050494 c 0
 123.924026428 152.571468004 130.124545706 207.588758047 142.115234375 264 c 0
 183.98828125 461 289.249023438 641 452.416992188 750 c 1
EndSplineSet
Validated: 1
EndChar

StartChar: parenright
Encoding: 41 41 60
Width: 428
Flags: HMW
LayerCount: 2
Fore
SplineSet
219.9921875 748 m 1
 220.205078125 749 l 1
 220.416992188 750 l 1
 291.416992188 750 l 1
 375.206780636 672.684619625 414.145300879 557.957565115 414.145300879 426.731111397 c 0
 414.145300879 374.650480124 408.012072485 319.97101913 396.115234375 264 c 0
 354.241210938 67 247.768554688 -114 84.8125 -222 c 1
 14.8125 -222 l 1
 14.025390625 -221 l 1
 146.744140625 -100 217.81640625 65 260.115234375 264 c 0
 277.588132514 346.204033865 287.683390241 422.892301433 287.683390241 493.062931595 c 0
 287.683390241 591.908152833 267.651680763 677.820626585 219.9921875 748 c 1
EndSplineSet
Validated: 1
EndChar

StartChar: percent
Encoding: 37 37 61
Width: 1029
Flags: HMW
CounterMasks: 1 e0
LayerCount: 2
Fore
SplineSet
254.577148438 699 m 0
 294.229492188 735 347.416992188 750 402.416992188 750 c 0
 500.150379023 750 546.243359296 700.417462429 546.243359296 614.95319225 c 0
 546.243359296 594.607390493 543.631106336 572.228043461 538.481445312 548 c 0
 512.336914062 425 439.33203125 345 316.33203125 345 c 0
 216.200341402 345 169.639682437 394.557947692 169.639682437 480.509791059 c 0
 169.639682437 500.998062641 172.285253138 523.554230732 177.481445312 548 c 0
 190.659179688 610 213.712890625 662 254.577148438 699 c 0
331.848632812 418 m 0
 382.848632812 418 409.814453125 479 424.481445312 548 c 0
 429.403914677 571.15955316 432.554615094 593.6231311 432.554615094 613.178394102 c 0
 432.554615094 651.040382415 420.74361638 678 387.11328125 678 c 0
 338.11328125 678 318.94921875 649 297.481445312 548 c 0
 289.985989368 512.737518404 285.731109662 486.020144279 285.731109662 466.263935505 c 0
 285.731109662 431.114523 299.199516092 418 331.848632812 418 c 0
714.12890625 297 m 0
 753.568359375 332 805.756835938 347 860.756835938 347 c 0
 960.427903152 347 1004.80693599 296.604767956 1004.80693599 212.952148833 c 0
 1004.80693599 192.533194719 1002.16278815 170.132731714 997.033203125 146 c 0
 970.463867188 21 897.096679688 -56 775.096679688 -56 c 0
 676.0623057 -56 628.388040941 -6.5787730224 628.388040941 79.9608168525 c 0
 628.388040941 100.028958613 630.951749534 122.093159807 636.033203125 146 c 0
 649.211914062 208 672.051757812 259 714.12890625 297 c 0
790.61328125 17 m 0
 840.61328125 17 867.729492188 74 883.033203125 146 c 0
 887.930710964 169.040555762 891.050056897 191.277463067 891.050056897 210.610109763 c 0
 891.050056897 248.334245416 879.172708178 275 845.453125 275 c 0
 795.453125 275 776.864257812 244 756.033203125 146 c 0
 748.492365668 110.522976863 744.452701677 84.1190446333 744.452701677 64.7685248416 c 0
 744.452701677 28.4843593012 758.656164914 17 790.61328125 17 c 0
965.963867188 682 m 2
 268.709960938 -39 l 2
 257.372070312 -50 244.096679688 -56 231.096679688 -56 c 0
 210.266660906 -56 197.318871311 -40.1811053281 197.318871311 -21.6190252349 c 0
 197.318871311 -18.794186434 197.618739011 -15.9058161171 198.236328125 -13 c 0
 199.9375 -5 204.850585938 4 211.55078125 12 c 2
 908.803710938 733 l 2
 919.141601562 744 933.416992188 750 946.416992188 750 c 0
 966.621067208 750 980.294723922 733.795278647 980.294723922 715.620679675 c 0
 980.294723922 713.105602137 980.0328708 710.552801069 979.490234375 708 c 0
 977.577148438 699 972.6640625 690 965.963867188 682 c 2
EndSplineSet
Validated: 1
EndChar

StartChar: period
Encoding: 46 46 62
Width: 306
Flags: HMW
LayerCount: 2
Fore
SplineSet
88 0 m 2
 87 0 86 0 86 1 c 2
 86 130 l 1
 86 130 87 131 88 131 c 2
 216 131 l 2
 217 131 217 130 217 130 c 1
 217 1 l 2
 217 0 217 0 216 0 c 2
 88 0 l 2
EndSplineSet
Validated: 1
EndChar

StartChar: plus
Encoding: 43 43 63
Width: 856
Flags: HMW
LayerCount: 2
Fore
SplineSet
593.983398438 588 m 2
 534.041992188 306 l 1
 815.041992188 306 l 2
 835.829420241 306 849.086241979 291.746135179 849.086241979 272.985155191 c 0
 849.086241979 270.085758602 848.76961813 267.078714782 848.115234375 264 c 0
 843.2265625 241 821.1875 222 797.1875 222 c 2
 516.1875 222 l 1
 456.034179688 -61 l 2
 451.145507812 -84 428.106445312 -103 405.106445312 -103 c 0
 384.319171039 -103 371.063124273 -88.7463460717 371.063124273 -69.9855715574 c 0
 371.063124273 -67.0860464855 371.379764608 -64.0788621546 372.034179688 -61 c 2
 432.1875 222 l 1
 150.1875 222 l 2
 130.131923856 222 116.188863844 236.446685359 116.188863844 255.394863918 c 0
 116.188863844 258.17670716 116.489394284 261.055576144 117.115234375 264 c 0
 122.00390625 287 145.041992188 306 168.041992188 306 c 2
 450.041992188 306 l 1
 509.983398438 588 l 2
 515.084960938 612 537.123046875 631 561.123046875 631 c 0
 581.078123229 631 594.982525497 616.697738424 594.982525497 597.236551897 c 0
 594.982525497 594.266990368 594.658784015 591.17731163 593.983398438 588 c 2
EndSplineSet
Validated: 1
EndChar

StartChar: Q
Encoding: 81 81 64
Width: 794
Flags: HMW
LayerCount: 2
Fore
SplineSet
548.403320312 717 m 0
 642.403320312 717 732.301757812 693 780.422851562 623 c 0
 808.97368833 580.324543453 819.567297828 528.820581268 819.567297828 473.976635894 c 0
 819.567297828 431.149924978 813.107543158 386.286564325 803.694335938 342 c 0
 777.974609375 221 725.193359375 95 601.526367188 26 c 1
 677.40625 -111 l 1
 504.40625 -111 l 1
 462.173828125 -18 l 1
 438.536132812 -21 414.32421875 -22 391.32421875 -22 c 0
 298.32421875 -22 208 0 159.666015625 69 c 0
 129.869530068 110.499835408 118.80235691 161.966316295 118.80235691 217.080337639 c 0
 118.80235691 257.586202441 124.78025246 300.062273686 133.694335938 342 c 0
 155.162109375 443 193.268554688 547 277.422851562 623 c 0
 354.301757812 693 454.403320312 717 548.403320312 717 c 0
531.823242188 639 m 0
 364.823242188 639 305.5390625 473 277.694335938 342 c 0
 268.375073783 298.156313751 259.912843772 253.647021954 259.912843772 211.735968122 c 0
 259.912843772 180.997106682 264.464853884 151.655891662 276.569335938 125 c 0
 301.87890625 70 361.903320312 56 427.903320312 56 c 1
 366.236328125 194 l 1
 509.236328125 194 l 1
 554.59375 111 l 1
 620.41015625 176 642.051757812 259 659.694335938 342 c 0
 668.81046482 384.888296316 676.2587327 431.528076149 676.2587327 474.865938827 c 0
 676.2587327 563.901252483 644.821457599 639 531.823242188 639 c 0
EndSplineSet
Validated: 1
EndChar

StartChar: q
Encoding: 113 113 65
Width: 561
Flags: HMW
LayerCount: 2
Fore
SplineSet
388.168945312 109 m 1
 439.182617188 349 l 1
 430.409179688 383 408.297851562 406 372.297851562 406 c 0
 289.297851562 406 243.78125 333 223.163085938 236 c 0
 216.963356316 206.832816565 213.298807897 179.383538029 213.298807897 155.256223206 c 0
 213.298807897 99.1444041069 233.119151493 61 286.965820312 61 c 0
 323.965820312 61 359.791992188 79 388.168945312 109 c 1
340.665039062 483 m 0
 393.665039062 483 431.712890625 455 452.1484375 410 c 1
 467.665039062 483 l 1
 601.665039062 483 l 1
 463.502929688 -167 l 1
 326.502929688 -167 l 1
 373.265625 53 l 1
 329.763671875 13 276.662109375 -11 222.662109375 -11 c 0
 117.742499928 -11 76.1030693382 49.4100814107 76.1030693382 142.381861184 c 0
 76.1030693382 170.809063889 79.9959469042 202.280465405 87.1630859375 236 c 0
 118.622070312 384 198.665039062 483 340.665039062 483 c 0
EndSplineSet
Validated: 1
EndChar

StartChar: question
Encoding: 63 63 66
Width: 519
Flags: HMW
LayerCount: 2
Fore
SplineSet
178 0 m 1
 205.844726562 131 l 1
 336.844726562 131 l 1
 309 0 l 1
 178 0 l 1
378.547851562 633 m 0
 320.547851562 633 261.234375 608 215.668945312 563 c 1
 214.668945312 563 l 1
 214.668945312 563 214.668945312 563 213.881835938 564 c 2
 200.4375 656 l 1
 201.649414062 657 l 1
 263.451171875 689 330.064453125 706 394.064453125 706 c 0
 503.416052934 706 579.598080646 678.003134384 579.598080646 593.890768782 c 0
 579.598080646 582.623337903 578.231036189 570.348945336 575.393554688 557 c 0
 565.404296875 510 539.4765625 468 499.375 444 c 0
 423.59765625 398 367.206054688 335 352.327148438 265 c 2
 342.762695312 220 l 2
 342.549804688 219 341.549804688 219 341.549804688 219 c 1
 238.549804688 219 l 1
 238.549804688 219 237.549804688 219 237.762695312 220 c 2
 247.327148438 265 l 2
 265.39453125 350 325.612304688 431 408.065429688 499 c 0
 425.041992188 513 433.29296875 533 438.393554688 557 c 0
 441.752515509 572.802033146 443.392158516 585.319068139 443.392158516 595.23388055 c 0
 443.392158516 632.376995684 420.381081473 633 378.547851562 633 c 0
EndSplineSet
Validated: 1
EndChar

StartChar: quotesingle
Encoding: 39 39 67
Width: 306
Flags: HMW
LayerCount: 2
Fore
SplineSet
207.881835938 564 m 2
 206.881835938 564 205.881835938 564 206.094726562 565 c 2
 233.301757812 693 l 2
 233.514648438 694 234.514648438 694 235.514648438 694 c 2
 363.514648438 694 l 2
 364.514648438 694 364.514648438 694 364.301757812 693 c 2
 337.094726562 565 l 1
 337.094726562 565 337.094726562 565 336.881835938 564 c 2
 248.288085938 453 l 2
 247.288085938 453 247.288085938 453 247.288085938 453 c 1
 184.288085938 453 l 1
 245.881835938 564 l 1
 207.881835938 564 l 2
EndSplineSet
Validated: 1
EndChar

StartChar: R
Encoding: 82 82 68
Width: 703
Flags: HMW
LayerCount: 2
Fore
SplineSet
91 0 m 1
 238.514648438 694 l 1
 513.514648438 694 l 2
 630.681662078 694 750.646191174 662.00161043 750.646191174 542.196787723 c 0
 750.646191174 528.052376025 748.974045808 512.684059884 745.427734375 496 c 0
 726.297851562 406 655.907226562 343 550.23046875 321 c 1
 670 0 l 1
 523 0 l 1
 412.10546875 311 l 1
 302.10546875 311 l 1
 236 0 l 1
 91 0 l 1
317.409179688 383 m 1
 428.409179688 383 l 2
 501.409179688 383 583.684570312 389 606.427734375 496 c 0
 609.125431052 508.691521676 610.385900537 519.949484056 610.385900537 529.935230593 c 0
 610.385900537 603.350762481 542.254524758 608 476.234375 608 c 2
 365.234375 608 l 1
 317.409179688 383 l 1
EndSplineSet
Validated: 1
EndChar

StartChar: r
Encoding: 114 114 69
Width: 372
Flags: HMW
LayerCount: 2
Fore
SplineSet
246.926757812 249 m 2
 194 0 l 1
 60 0 l 1
 161.6015625 478 l 1
 289.6015625 478 l 1
 263.458007812 355 l 1
 308.399414062 430 380.665039062 483 456.665039062 483 c 0
 457.665039062 483 457.665039062 483 457.452148438 482 c 2
 436.409179688 383 l 2
 436.196289062 382 436.196289062 382 435.196289062 382 c 0
 348.196289062 382 263.29296875 326 246.926757812 249 c 2
EndSplineSet
Validated: 1
EndChar

StartChar: S
Encoding: 83 83 70
Width: 611
Flags: HMW
LayerCount: 2
Fore
SplineSet
457.403320312 717 m 0
 537.403320312 717 590.639648438 704 654.987304688 668 c 1
 655.775390625 667 l 1
 605.35546875 538 l 1
 604.142578125 537 l 1
 560.408203125 590 511.296875 613 435.296875 613 c 0
 366.296875 613 310.983398438 588 297.591796875 525 c 0
 296.58420088 520.25964699 296.099625546 515.652970046 296.099625546 511.195424577 c 0
 296.099625546 477.099013434 324.45184605 451.728197973 363.950195312 442 c 2
 452.2734375 420 l 2
 539.49657528 398.555875737 595.686273291 331.494585304 595.686273291 245.95384982 c 0
 595.686273291 231.769440978 594.141256445 217.076913123 590.936523438 202 c 0
 558.840820312 51 452.32421875 -22 300.32421875 -22 c 0
 210.32421875 -22 127.424804688 2 58.990234375 47 c 1
 59.203125 48 l 1
 111.047851562 179 l 1
 110.834960938 178 l 1
 161.506835938 120 237.4921875 87 323.4921875 87 c 0
 393.4921875 87 447.869140625 117 462.53515625 186 c 0
 463.779758177 191.854961467 464.377726378 197.56411709 464.377726378 203.094474114 c 0
 464.377726378 241.013834824 436.26559555 270.527381252 395.728515625 281 c 2
 306.404296875 303 l 2
 221.538729654 323.804965486 164.404892147 386.692238223 164.404892147 467.558934916 c 0
 164.404892147 479.97769558 165.752335461 492.820482629 168.553710938 506 c 0
 199.586914062 652 309.403320312 717 457.403320312 717 c 0
EndSplineSet
Validated: 1
EndChar

StartChar: s
Encoding: 115 115 71
Width: 422
Flags: HMW
LayerCount: 2
Fore
SplineSet
176.288085938 453 m 0
 216.239257812 481 261.940429688 489 319.940429688 489 c 0
 381.940429688 489 423.02734375 480 474.92578125 456 c 1
 475.712890625 455 l 1
 439.520507812 360 l 1
 437.520507812 360 l 1
 397.235351562 401 355.635742188 417 292.635742188 417 c 0
 251.635742188 417 221.873046875 404 213.370117188 364 c 0
 212.731402073 360.994834235 212.422855452 358.047467007 212.422855452 355.178741616 c 0
 212.422855452 334.18251566 228.95104618 317.398966847 253.530273438 313 c 2
 318.766601562 300 l 2
 385.339803109 286.999537534 429.224754218 237.943176542 429.224754218 175.61705236 c 0
 429.224754218 166.030976099 428.18661132 156.130990171 426.033203125 146 c 0
 402.2265625 34 328.662109375 -11 213.662109375 -11 c 0
 148.662109375 -11 89.0625 5 38.65234375 36 c 1
 37.8642578125 37 l 1
 79.8203125 145 l 1
 81.033203125 146 l 1
 81.8203125 145 l 1
 112.405273438 96 166.454101562 68 230.454101562 68 c 0
 277.454101562 68 313.004882812 80 322.782226562 126 c 0
 323.412348786 128.964372849 323.716242651 131.868474736 323.716242651 134.69907117 c 0
 323.716242651 157.65001694 303.737544014 175.768541109 275.685546875 182 c 2
 216.236328125 194 l 2
 150.713757513 207.137529007 105.242582252 253.259816863 105.242582252 312.883439446 c 0
 105.242582252 321.336114796 106.156459444 330.060139232 108.056640625 339 c 0
 118.046875 386 139.974609375 428 176.288085938 453 c 0
EndSplineSet
Validated: 1
EndChar

StartChar: semicolon
Encoding: 59 59 72
Width: 306
Flags: HMW
LayerCount: 2
Fore
SplineSet
160.694335938 342 m 2
 159.694335938 342 158.694335938 342 158.907226562 343 c 2
 186.114257812 471 l 2
 186.327148438 472 187.327148438 472 188.327148438 472 c 2
 316.327148438 472 l 2
 317.327148438 472 317.327148438 472 317.114257812 471 c 2
 289.907226562 343 l 2
 289.694335938 342 289.694335938 342 288.694335938 342 c 2
 160.694335938 342 l 2
88 0 m 2
 87 0 86 0 86.212890625 1 c 2
 113.6328125 130 l 1
 113.6328125 130 114.844726562 131 115.844726562 131 c 2
 243.844726562 131 l 2
 244.844726562 131 244.6328125 130 244.6328125 130 c 1
 217.212890625 1 l 1
 217.212890625 1 217.212890625 1 217 0 c 2
 128.40625 -111 l 2
 127.40625 -111 127.40625 -111 127.40625 -111 c 1
 64.40625 -111 l 1
 126 0 l 1
 88 0 l 2
EndSplineSet
Validated: 1
EndChar

StartChar: seven
Encoding: 55 55 73
Width: 550
Flags: HMW
LayerCount: 2
Fore
SplineSet
628.258789062 594 m 2
 627.045898438 593 624.62109375 591 623.196289062 589 c 0
 449.2734375 420 328.211914062 208 281.662109375 -11 c 1
 139.662109375 -11 l 1
 188.974609375 221 338.524414062 440 548.196289062 589 c 1
 170.770507812 587 l 1
 193.514648438 694 l 1
 649.514648438 694 l 1
 628.258789062 594 l 2
EndSplineSet
Validated: 1
EndChar

StartChar: six
Encoding: 54 54 74
Width: 550
Flags: HMW
LayerCount: 2
Fore
SplineSet
487.403320312 717 m 0
 524.403320312 717 548.127929688 711 578.939453125 696 c 1
 559.809570312 606 l 1
 558.596679688 605 l 1
 529.209960938 622 505.485351562 628 468.485351562 628 c 0
 356.485351562 628 305.543945312 553 268.897460938 390 c 1
 306.86328125 451 360.365234375 491 421.365234375 491 c 0
 523.746683713 491 564.894055308 432.910667872 564.894055308 339.413194723 c 0
 564.894055308 309.625063335 560.717397718 276.242834068 553.013671875 240 c 0
 533.883789062 150 513.830078125 98 454.139648438 43 c 0
 399.51171875 -7 346.32421875 -22 269.32421875 -22 c 0
 142.895341058 -22 98.1276844985 54.6011109232 98.1276844985 173.723055175 c 0
 98.1276844985 225.140249633 106.468289742 284.479446552 120.182617188 349 c 0
 165.881835938 564 278.403320312 717 487.403320312 717 c 0
369.061523438 419 m 0
 304.061523438 419 259.969726562 348 239.989257812 254 c 0
 230.998477025 211.701377625 226.236946244 177.483738871 226.236946244 150.625347095 c 0
 226.236946244 96.207471365 245.783480113 72 289.303710938 72 c 0
 356.303710938 72 381.705078125 88 414.013671875 240 c 0
 426.062100548 296.684278913 431.962284763 335.547465856 431.962284763 362.144209735 c 0
 431.962284763 412.966863688 410.418435125 419 369.061523438 419 c 0
EndSplineSet
Validated: 1
EndChar

StartChar: slash
Encoding: 47 47 75
Width: 550
Flags: HMW
LayerCount: 2
Fore
SplineSet
631.301757812 693 m 2
 100.551757812 -195 l 2
 89.9384765625 -212 72.8125 -222 55.8125 -222 c 0
 34.154354695 -222 21.8505961377 -206.23907133 21.8505961377 -188.37131332 c 0
 21.8505961377 -185.614315888 22.1435305543 -182.807157944 22.740234375 -180 c 0
 23.802734375 -175 25.865234375 -170 28.927734375 -165 c 2
 559.678710938 723 l 2
 569.291992188 740 586.416992188 750 604.416992188 750 c 0
 626.075309947 750 638.37982493 734.238820334 638.37982493 716.3708865 c 0
 638.37982493 713.614026164 638.086907403 710.807013082 637.490234375 708 c 0
 636.427734375 703 634.364257812 698 631.301757812 693 c 2
EndSplineSet
Validated: 1
EndChar

StartChar: T
Encoding: 84 84 77
Width: 733
Flags: HMW
LayerCount: 2
Fore
SplineSet
292 0 m 1
 416.345703125 585 l 1
 164.345703125 585 l 1
 186.451171875 689 l 1
 838.451171875 689 l 1
 816.983398438 588 l 1
 563.983398438 588 l 1
 439 0 l 1
 292 0 l 1
EndSplineSet
Validated: 1
EndChar

StartChar: t
Encoding: 116 116 78
Width: 404
Flags: HMW
LayerCount: 2
Fore
SplineSet
105.022460938 400 m 1
 120.327148438 472 l 1
 190.327148438 472 l 1
 219.021484375 607 l 1
 346.021484375 607 l 1
 317.327148438 472 l 1
 454.327148438 472 l 1
 439.022460938 400 l 1
 302.022460938 400 l 1
 250.796875 159 l 2
 246.97470069 141.018255567 244.407122997 124.07120916 244.407122997 109.74034319 c 0
 244.407122997 84.2228339847 252.547701818 67 276.241210938 67 c 0
 312.241210938 67 343.791992188 79 373.893554688 103 c 1
 374.893554688 103 l 1
 379.439453125 35 l 1
 378.2265625 34 l 1
 311.637695312 3 250.662109375 -11 179.662109375 -11 c 0
 126.048589132 -11 108.284354389 22.0717732906 108.284354389 70.3544809939 c 0
 108.284354389 92.3162038704 111.959682217 117.424990009 117.608398438 144 c 2
 172.022460938 400 l 1
 105.022460938 400 l 1
EndSplineSet
Validated: 1
EndChar

StartChar: three
Encoding: 51 51 79
Width: 550
Flags: HMW
LayerCount: 2
Fore
SplineSet
393.485351562 628 m 0
 333.485351562 628 270.68359375 596 229.630859375 544 c 1
 228.41796875 543 l 1
 192.360351562 618 l 1
 253.538085938 680 334.403320312 717 412.403320312 717 c 0
 520.931775168 717 592.483335428 677.801399891 592.483335428 587.623439206 c 0
 592.483335428 573.93697926 590.835170948 559.076228061 587.41796875 543 c 0
 572.114257812 471 514.786132812 413 440.346679688 378 c 1
 513.535045531 360.640356723 550.700739073 315.263376026 550.700739073 249.77752918 c 0
 550.700739073 236.044997984 549.066376027 221.428178494 545.787109375 206 c 0
 512.627929688 50 406.32421875 -22 255.32421875 -22 c 0
 176.32421875 -22 106.48828125 7 58.541015625 59 c 1
 95.095703125 151 l 1
 137.255859375 100 202.303710938 72 275.303710938 72 c 0
 350.303710938 72 380.293945312 119 398.787109375 206 c 0
 403.659556991 228.924207596 406.432598216 249.157174517 406.432598216 266.483116929 c 0
 406.432598216 313.399530502 386.099095189 339 332.056640625 339 c 2
 255.056640625 339 l 1
 270.1484375 410 l 1
 321.2109375 415 l 2
 381.061523438 419 433.176757812 476 447.41796875 543 c 0
 450.439785681 557.216639943 451.974393071 569.311489699 451.974393071 579.525691709 c 0
 451.974393071 615.293446848 433.156466608 628 393.485351562 628 c 0
EndSplineSet
Validated: 1
EndChar

StartChar: two
Encoding: 50 50 80
Width: 550
Flags: HMW
LayerCount: 2
Fore
SplineSet
76.04296875 99 m 1
 76.255859375 100 l 1
 219.762695312 220 l 2
 362.056640625 339 436.259765625 387 456.08984375 485 c 0
 458.852121816 497.99551954 460.220751523 510.547359329 460.220751523 522.401641482 c 0
 460.220751523 577.136663006 431.042045475 617 375.147460938 617 c 0
 305.147460938 617 256.944335938 569 218.514648438 487 c 1
 217.302734375 486 l 1
 217.302734375 486 217.302734375 486 216.302734375 486 c 2
 167.794921875 573 l 1
 227.200195312 669 307.403320312 717 411.403320312 717 c 0
 531.522230091 717 601.973976576 642.648785657 601.973976576 538.790774462 c 0
 601.973976576 521.601053921 600.044011757 503.603020136 596.08984375 485 c 0
 578.235351562 401 517.39453125 350 399.815429688 272 c 0
 363.713867188 248 343.951171875 235 322.549804688 219 c 2
 172.956054688 108 l 1
 515.956054688 108 l 1
 493 0 l 1
 55 0 l 1
 76.04296875 99 l 1
EndSplineSet
Validated: 1
EndChar

StartChar: U
Encoding: 85 85 81
Width: 764
Flags: HMW
LayerCount: 2
Fore
SplineSet
238.514648438 694 m 1
 386.514648438 694 l 1
 288.100585938 231 l 2
 282.767948649 205.91292228 277.171256346 179.582661412 277.171256346 155.128000622 c 0
 277.171256346 135.717060649 280.697410362 117.48782844 290.680664062 102 c 0
 310.87890625 70 354.603515625 64 397.603515625 64 c 0
 440.603515625 64 487.87890625 70 523.680664062 102 c 0
 561.907226562 136 573.323242188 185 583.100585938 231 c 2
 681.514648438 694 l 1
 818.514648438 694 l 1
 720.100585938 231 l 2
 705.008789062 160 670.705078125 88 607.71484375 41 c 0
 538.874023438 -10 456.32421875 -22 379.32421875 -22 c 0
 300.32421875 -22 220.662109375 -11 172.71484375 41 c 0
 143.910126732 72.4770768954 132.290215794 115.167444532 132.290215794 161.260888452 c 0
 132.290215794 183.991874177 135.116143333 207.550477863 140.100585938 231 c 2
 238.514648438 694 l 1
EndSplineSet
Validated: 1
EndChar

StartChar: u
Encoding: 117 117 82
Width: 561
Flags: HMW
LayerCount: 2
Fore
SplineSet
159.327148438 472 m 1
 295.327148438 472 l 1
 221.569335938 125 l 2
 217.49257362 105.820368452 215.457721049 91.5329394529 215.457721049 80.8927433687 c 0
 215.457721049 51.7364923333 230.73679553 49.9661778306 261.149740997 49.9661778306 c 0
 265.353463113 49.9661778306 269.846320492 50 274.627929688 50 c 0
 331.627929688 50 385.893554688 103 399.497070312 167 c 2
 464.327148438 472 l 1
 600.327148438 472 l 1
 500 0 l 1
 367 0 l 1
 384.004882812 80 l 1
 342.526367188 26 277.662109375 -11 211.662109375 -11 c 0
 124.790134764 -11 79.6399420286 8.1663237405 79.6399420286 75.9482406934 c 0
 79.6399420286 90.0926447654 81.6060222022 106.354031029 85.5693359375 125 c 2
 159.327148438 472 l 1
EndSplineSet
Validated: 1
EndChar

StartChar: underscore
Encoding: 95 95 83
Width: 733
Flags: HMW
HStem: -193 136<0 733 0 733>
LayerCount: 2
Fore
SplineSet
691.9765625 -193 m 1
 -41.0234375 -193 l 1
 -12.1162109375 -57 l 1
 720.883789062 -57 l 1
 691.9765625 -193 l 1
EndSplineSet
Validated: 1
EndChar

StartChar: V
Encoding: 86 86 84
Width: 733
Flags: HMW
LayerCount: 2
Fore
SplineSet
398.569335938 125 m 1
 400.569335938 125 l 1
 404.608398438 144 612.916015625 503 724.514648438 694 c 1
 863.514648438 694 l 1
 460 0 l 1
 271 0 l 1
 162.514648438 694 l 1
 316.514648438 694 l 1
 346.916015625 503 402.608398438 144 398.569335938 125 c 1
EndSplineSet
Validated: 33
EndChar

StartChar: v
Encoding: 118 118 85
Width: 500
Flags: HMW
LayerCount: 2
Fore
SplineSet
238.327148438 472 m 1
 274.444335938 115 l 1
 463.327148438 472 l 1
 583.327148438 472 l 1
 334 0 l 1
 164 0 l 1
 115.327148438 472 l 1
 238.327148438 472 l 1
EndSplineSet
Validated: 1
EndChar

StartChar: W
Encoding: 87 87 86
Width: 1039
Flags: HMW
LayerCount: 2
Fore
SplineSet
202 0 m 1
 162.514648438 694 l 1
 294.514648438 694 l 1
 303.708458921 529.426647563 319.807006561 245.561944855 319.807006561 153.0374977 c 0
 319.807006561 138.742434289 319.422728251 129.014733826 318.569335938 125 c 1
 320.569335938 125 l 1
 326.946289062 155 495.12890625 504 586.514648438 694 c 1
 752.514648438 694 l 1
 763.066786678 521.375429573 780.111390985 208.422017218 780.111390985 138.377202402 c 0
 780.111390985 131.326880749 779.938706706 126.737542957 779.569335938 125 c 1
 781.569335938 125 l 1
 785.608398438 144 959.12890625 504 1050.51464844 694 c 1
 1169.51464844 694 l 1
 835 0 l 1
 667 0 l 1
 656.264617863 179.843167434 637.723983792 514.838985636 637.723983792 563.378980251 c 0
 637.723983792 566.390229444 637.795337826 568.299047169 637.944335938 569 c 1
 635.944335938 569 l 1
 633.393554688 557 456.598632812 191 365 0 c 1
 202 0 l 1
EndSplineSet
Validated: 1
EndChar

StartChar: w
Encoding: 119 119 87
Width: 744
Flags: HMW
LayerCount: 2
Fore
SplineSet
143 0 m 1
 115.327148438 472 l 1
 236.327148438 472 l 1
 256.057617188 132 l 1
 420.327148438 472 l 1
 516.327148438 472 l 1
 537.65625 116 l 1
 709.327148438 472 l 1
 827.327148438 472 l 1
 600 0 l 1
 431 0 l 1
 426.652158113 78.6258735902 420.451400382 190.271188814 420.451400382 265.395344496 c 0
 420.451400382 297.28310553 421.568607281 322.590752782 424.418945312 336 c 1
 422.418945312 336 l 1
 412.853515625 291 325.806640625 112 272 0 c 1
 143 0 l 1
EndSplineSet
Validated: 1
EndChar

StartChar: X
Encoding: 88 88 88
Width: 733
Flags: HMW
LayerCount: 2
Fore
SplineSet
353.514648438 694 m 1
 461.514648438 487 l 1
 651.514648438 694 l 1
 817.514648438 694 l 1
 511.220703125 368 l 1
 716 0 l 1
 540 0 l 1
 413.689453125 262 l 1
 182 0 l 1
 15 0 l 1
 361.220703125 368 l 1
 177.514648438 694 l 1
 353.514648438 694 l 1
EndSplineSet
Validated: 1
EndChar

StartChar: x
Encoding: 120 120 89
Width: 500
Flags: HMW
LayerCount: 2
Fore
SplineSet
242.327148438 472 m 1
 317.418945312 336 l 1
 445.327148438 472 l 1
 580.327148438 472 l 1
 351.864257812 244 l 1
 498 0 l 1
 362 0 l 1
 282.34765625 171 l 1
 135 0 l 1
 0 0 l 1
 243.864257812 244 l 1
 106.327148438 472 l 1
 242.327148438 472 l 1
EndSplineSet
Validated: 1
EndChar

StartChar: Y
Encoding: 89 89 90
Width: 733
Flags: HMW
LayerCount: 2
Fore
SplineSet
458.66015625 403 m 1
 460.66015625 403 l 1
 463.423828125 416 626.68359375 596 716.514648438 694 c 1
 875.514648438 694 l 1
 497.090820312 278 l 1
 438 0 l 1
 293 0 l 1
 352.090820312 278 l 1
 150.514648438 694 l 1
 326.514648438 694 l 1
 374.68359375 596 461.423828125 416 458.66015625 403 c 1
EndSplineSet
Validated: 33
EndChar

StartChar: y
Encoding: 121 121 91
Width: 500
Flags: HMW
LayerCount: 2
Fore
SplineSet
295.907226562 136 m 1
 297.907226562 136 l 1
 309.598632812 191 401.733398438 361 462.327148438 472 c 1
 583.327148438 472 l 1
 300.009765625 -47 l 2
 257.430664062 -125 171.165039062 -178 89.1650390625 -178 c 0
 62.1650390625 -178 35.58984375 -176 9.65234375 -171 c 1
 8.865234375 -170 l 1
 22.333984375 -69 l 1
 46.9326171875 -85 76.232421875 -93 107.232421875 -93 c 0
 142.232421875 -93 179.208007812 -79 197.009765625 -47 c 2
 209.8984375 -24 l 2
 216.44921875 -12 222 0 222 0 c 1
 115.327148438 472 l 1
 243.327148438 472 l 1
 265.576847908 374.790980913 297.985641605 231.564949934 297.985641605 161.206072222 c 0
 297.985641605 151.224303568 297.333352598 142.709125849 295.907226562 136 c 1
EndSplineSet
Validated: 1
EndChar

StartChar: Z
Encoding: 90 90 92
Width: 672
Flags: HMW
LayerCount: 2
Fore
SplineSet
553.68359375 596 m 1
 202.68359375 596 l 1
 223.514648438 694 l 1
 756.514648438 694 l 1
 743.123046875 631 l 1
 743.123046875 631 376.612304688 224 266.467773438 101 c 1
 637.318359375 105 l 1
 615 0 l 1
 61 0 l 1
 75.2412109375 67 l 1
 75.2412109375 67 445.814453125 479 553.68359375 596 c 1
EndSplineSet
Validated: 1
EndChar

StartChar: z
Encoding: 122 122 93
Width: 476
Flags: HMW
LayerCount: 2
Fore
SplineSet
371.66015625 403 m 1
 131.66015625 403 l 1
 146.327148438 472 l 1
 470.327148438 472 l 2
 504.327148438 472 538.327148438 472 538.327148438 472 c 1
 528.974609375 428 l 1
 528.974609375 428 278.583984375 158 199.516601562 73 c 1
 457.154296875 76 l 1
 441 0 l 1
 30 0 l 1
 40.203125 48 l 1
 216.588867188 238 l 2
 277.6171875 304 340.858398438 371 371.66015625 403 c 1
EndSplineSet
Validated: 1
EndChar

StartChar: zero
Encoding: 48 48 94
Width: 550
Flags: HMW
LayerCount: 2
Fore
SplineSet
426.403320312 717 m 0
 497.403320312 717 561.6640625 690 585.91015625 630 c 0
 599.206339969 597.647885752 604.270182761 562.68817741 604.270182761 526.278773551 c 0
 604.270182761 467.028298604 590.859936596 403.93868912 577.694335938 342 c 0
 544.323242188 185 485.32421875 -22 269.32421875 -22 c 0
 129.934323501 -22 92.5724425638 64.2036046766 92.5724425638 167.544584908 c 0
 92.5724425638 224.341839161 103.858396179 286.315803491 115.694335938 342 c 0
 149.916015625 503 211.403320312 717 426.403320312 717 c 0
410.88671875 644 m 0
 310.88671875 644 286.12890625 504 255.733398438 361 c 0
 238.68492582 280.794870589 219.565026156 199.776004108 219.565026156 140.546305148 c 0
 219.565026156 86.050439335 235.750807609 50 284.627929688 50 c 0
 386.627929688 50 412.999023438 207 445.733398438 361 c 0
 460.925972613 432.475631218 477.208379702 503.201773582 477.208379702 556.070930862 c 0
 477.208379702 608.976138386 460.903759856 644 410.88671875 644 c 0
EndSplineSet
Validated: 1
EndChar

StartChar: ff
Encoding: 64256 64256 95
Width: 642
Flags: HMW
LayerCount: 2
Fore
SplineSet
219 0 m 1
 86 0 l 1
 171.022460938 400 l 1
 113.022460938 400 l 1
 128.327148438 472 l 1
 186.327148438 472 l 1
 202.268554688 547 l 2
 226.5 661 320.064453125 706 438.064453125 706 c 0
 472.064453125 706 496.427734375 703 527.514648438 694 c 1
 507.470703125 595 l 1
 506.258789062 594 l 2
 505.258789062 594 505.470703125 595 505.470703125 595 c 2
 485.209960938 622 460.547851562 633 422.547851562 633 c 0
 380.547851562 633 347.360351562 618 338.432617188 576 c 2
 316.327148438 472 l 1
 415.327148438 472 l 1
 400.022460938 400 l 1
 304.022460938 400 l 1
 219 0 l 1
524 0 m 1
 390 0 l 1
 506.268554688 547 l 2
 530.075195312 659 623.064453125 706 743.064453125 706 c 0
 777.064453125 706 800.427734375 703 831.514648438 694 c 1
 831.301757812 693 l 1
 810.258789062 594 l 1
 810.470703125 595 l 1
 789.209960938 622 765.547851562 633 727.547851562 633 c 0
 682.547851562 633 651.934570312 616 643.432617188 576 c 2
 621.327148438 472 l 1
 719.327148438 472 l 1
 704.022460938 400 l 1
 609.022460938 400 l 1
 524 0 l 1
EndSplineSet
Validated: 1
Ligature2: "'liga' Standard Ligatures lookup 9 subtable" f f
EndChar

StartChar: ffi
Encoding: 64259 64259 96
Width: 892
Flags: HMW
LayerCount: 2
Fore
SplineSet
814.668945312 563 m 1
 842.939453125 696 l 1
 975.939453125 696 l 1
 947.668945312 563 l 1
 814.668945312 563 l 1
219 0 m 1
 86 0 l 1
 171.022460938 400 l 1
 113.022460938 400 l 1
 128.327148438 472 l 1
 186.327148438 472 l 1
 202.268554688 547 l 2
 226.075195312 659 310.064453125 706 420.064453125 706 c 0
 450.064453125 706 470.427734375 703 497.514648438 694 c 1
 477.470703125 595 l 1
 476.258789062 594 l 2
 475.258789062 594 475.470703125 595 475.470703125 595 c 1
 460.209960938 622 438.547851562 633 404.547851562 633 c 0
 368.547851562 633 346.084960938 612 338.432617188 576 c 2
 316.327148438 472 l 1
 423.327148438 472 l 1
 408.022460938 400 l 1
 304.022460938 400 l 1
 219 0 l 1
524 0 m 1
 391 0 l 1
 507.268554688 547 l 2
 529.799804688 653 602.064453125 706 709.064453125 706 c 0
 734.064453125 706 751.427734375 703 775.15234375 697 c 1
 775.939453125 696 l 1
 753.833007812 592 l 1
 751.833007812 592 l 1
 743.78515625 620 724.547851562 633 693.547851562 633 c 0
 664.547851562 633 650.021484375 607 643.432617188 576 c 2
 621.327148438 472 l 1
 728.327148438 472 l 1
 713.022460938 400 l 1
 609.022460938 400 l 1
 524 0 l 1
796.327148438 472 m 1
 929.327148438 472 l 1
 829 0 l 1
 696 0 l 1
 796.327148438 472 l 1
EndSplineSet
Validated: 1
Ligature2: "'liga' Standard Ligatures lookup 9 subtable" f f i
EndChar

StartChar: ffl
Encoding: 64260 64260 97
Width: 892
Flags: HMW
LayerCount: 2
Fore
SplineSet
843.514648438 694 m 1
 976.514648438 694 l 1
 829 0 l 1
 696 0 l 1
 843.514648438 694 l 1
219 0 m 1
 86 0 l 1
 171.022460938 400 l 1
 113.022460938 400 l 1
 128.327148438 472 l 1
 186.327148438 472 l 1
 202.268554688 547 l 2
 226.075195312 659 310.064453125 706 420.064453125 706 c 0
 450.064453125 706 470.427734375 703 497.514648438 694 c 1
 477.470703125 595 l 1
 476.258789062 594 l 2
 475.258789062 594 475.470703125 595 475.470703125 595 c 1
 460.209960938 622 438.547851562 633 404.547851562 633 c 0
 368.547851562 633 346.084960938 612 338.432617188 576 c 2
 316.327148438 472 l 1
 423.327148438 472 l 1
 408.022460938 400 l 1
 304.022460938 400 l 1
 219 0 l 1
524 0 m 1
 391 0 l 1
 507.268554688 547 l 2
 529.799804688 653 602.064453125 706 709.064453125 706 c 0
 719.064453125 706 777.21484375 702 775.301757812 693 c 2
 754.470703125 595 l 1
 752.470703125 595 l 1
 741.998046875 621 723.547851562 633 693.547851562 633 c 0
 664.547851562 633 650.021484375 607 643.432617188 576 c 2
 621.327148438 472 l 1
 728.327148438 472 l 1
 713.022460938 400 l 1
 609.022460938 400 l 1
 524 0 l 1
EndSplineSet
Validated: 33
Ligature2: "'liga' Standard Ligatures lookup 9 subtable" f f l
EndChar

StartChar: fi
Encoding: 64257 64257 98
Width: 586
Flags: HMW
LayerCount: 2
Fore
SplineSet
508.668945312 563 m 1
 536.939453125 696 l 1
 669.939453125 696 l 1
 641.668945312 563 l 1
 508.668945312 563 l 1
219 0 m 1
 86 0 l 1
 171.022460938 400 l 1
 113.022460938 400 l 1
 128.327148438 472 l 1
 186.327148438 472 l 1
 202.268554688 547 l 2
 224.799804688 653 298.064453125 706 403.064453125 706 c 0
 413.064453125 706 472.21484375 702 470.301757812 693 c 2
 447.196289062 589 l 2
 446.196289062 589 446.196289062 589 446.196289062 589 c 1
 439.572265625 619 420.547851562 633 387.547851562 633 c 0
 360.547851562 633 345.234375 608 338.432617188 576 c 2
 316.327148438 472 l 1
 423.327148438 472 l 1
 408.022460938 400 l 1
 304.022460938 400 l 1
 219 0 l 1
490.327148438 472 m 1
 623.327148438 472 l 1
 523 0 l 1
 390 0 l 1
 490.327148438 472 l 1
EndSplineSet
Validated: 33
Ligature2: "'liga' Standard Ligatures lookup 9 subtable" f i
EndChar

StartChar: fl
Encoding: 64258 64258 99
Width: 586
Flags: HMW
LayerCount: 2
Fore
SplineSet
537.514648438 694 m 1
 670.514648438 694 l 1
 523 0 l 1
 390 0 l 1
 537.514648438 694 l 1
219 0 m 1
 86 0 l 1
 171.022460938 400 l 1
 113.022460938 400 l 1
 128.327148438 472 l 1
 186.327148438 472 l 1
 202.268554688 547 l 2
 224.799804688 653 298.064453125 706 403.064453125 706 c 0
 413.064453125 706 472.21484375 702 470.301757812 693 c 2
 449.470703125 595 l 1
 448.258789062 594 l 2
 447.258789062 594 447.470703125 595 447.470703125 595 c 1
 436.998046875 621 418.547851562 633 387.547851562 633 c 0
 360.547851562 633 345.234375 608 338.432617188 576 c 2
 316.327148438 472 l 1
 423.327148438 472 l 1
 408.022460938 400 l 1
 304.022460938 400 l 1
 219 0 l 1
EndSplineSet
Validated: 33
Ligature2: "'liga' Standard Ligatures lookup 9 subtable" f l
EndChar

StartChar: Aacute
Encoding: 193 193 100
Width: 733
Flags: HMW
LayerCount: 2
Fore
SplineSet
478.944335938 569 m 1
 476.944335938 569 l 1
 473.543945312 553 387.384765625 397 298.375976562 237 c 1
 515.375976562 237 l 1
 496.049000381 384.314807054 478.544955051 528.238730923 478.544955051 562.622219937 c 0
 478.544955051 565.582962317 478.674744618 567.731480705 478.944335938 569 c 1
527.095703125 151 m 1
 251.095703125 151 l 1
 219.405273438 96 190.352539062 44 166 0 c 1
 30 0 l 1
 420.514648438 694 l 1
 605.514648438 694 l 1
 701 0 l 1
 548 0 l 1
 542.352539062 44 534.405273438 96 527.095703125 151 c 1
612.377929688 938 m 1
 612.377929688 938 612.377929688 938 613.377929688 938 c 2
 746.165039062 937 l 1
 746.165039062 937 746.165039062 937 745.165039062 937 c 2
 553.131835938 791 l 2
 551.919921875 790 551.919921875 790 551.919921875 790 c 1
 481.919921875 790 l 1
 481.131835938 791 l 2
 481.344726562 792 481.344726562 792 481.344726562 792 c 1
 612.377929688 938 l 1
EndSplineSet
Validated: 1
EndChar

StartChar: aacute
Encoding: 225 225 101
Width: 525
Flags: HMW
LayerCount: 2
Fore
SplineSet
164.756835938 347 m 1
 163.756835938 347 l 1
 176.799804688 446 l 1
 245.389648438 477 296.940429688 489 365.940429688 489 c 0
 471.564020883 489 537.740203058 451.522362883 537.740203058 366.833016627 c 0
 537.740203058 353.702357652 536.149397163 339.436778791 532.868164062 324 c 2
 464 0 l 1
 330 0 l 1
 344.87890625 70 l 1
 303.250976562 20 234.662109375 -11 164.662109375 -11 c 0
 98.890243203 -11 54.5409958049 36.9328352327 54.5409958049 100.39069295 c 0
 54.5409958049 110.258977049 55.6134993319 120.502704755 57.8447265625 131 c 0
 80.3759765625 237 235.540039062 266 385.390625 270 c 1
 396.868164062 324 l 2
 399.931305044 338.410760232 401.619448591 351.960643507 401.619448591 364.138418036 c 0
 401.619448591 399.283294269 387.559052614 423 351.911132812 423 c 0
 279.911132812 423 225.022460938 400 165.756835938 347 c 2
 164.544921875 346 l 1
 164.756835938 347 l 1
376.887695312 230 m 1
 294.038085938 226 203.723632812 201 188.844726562 131 c 0
 187.761118399 125.902023834 187.240410108 120.912036703 187.240410108 116.092817833 c 0
 187.240410108 84.9898763964 208.929639211 61 240.965820312 61 c 0
 294.965820312 61 348.618164062 97 358.608398438 144 c 2
 376.887695312 230 l 1
465.190429688 716 m 1
 465.190429688 716 465.190429688 716 466.190429688 716 c 2
 598.977539062 715 l 1
 598.977539062 715 598.977539062 715 597.977539062 715 c 2
 405.944335938 569 l 2
 404.732421875 568 404.732421875 568 404.732421875 568 c 1
 334.732421875 568 l 1
 333.944335938 569 l 2
 334.157226562 570 334.157226562 570 334.157226562 570 c 1
 465.190429688 716 l 1
EndSplineSet
Validated: 1
EndChar

StartChar: Abreve
Encoding: 258 258 102
Width: 733
Flags: HMW
LayerCount: 2
Fore
SplineSet
478.944335938 569 m 1
 476.944335938 569 l 1
 473.543945312 553 387.384765625 397 298.375976562 237 c 1
 515.375976562 237 l 1
 496.049000381 384.314807054 478.544955051 528.238730923 478.544955051 562.622219937 c 0
 478.544955051 565.582962317 478.674744618 567.731480705 478.944335938 569 c 1
527.095703125 151 m 1
 251.095703125 151 l 1
 219.405273438 96 190.352539062 44 166 0 c 1
 30 0 l 1
 420.514648438 694 l 1
 605.514648438 694 l 1
 701 0 l 1
 548 0 l 1
 542.352539062 44 534.405273438 96 527.095703125 151 c 1
396.827148438 926 m 1
 457.827148438 926 l 1
 456.974536367 921.988797174 456.566252889 918.152121574 456.566252889 914.491488491 c 0
 456.566252889 877.99761864 497.14412253 859 542.5859375 859 c 0
 591.5859375 859 645.474609375 882 654.827148438 926 c 1
 716.827148438 926 l 1
 699.185546875 843 611.793945312 780 525.793945312 780 c 0
 449.888576359 780 393.763749221 829.07820136 393.763749221 897.668739146 c 0
 393.763749221 906.790573106 394.756387288 916.257507245 396.827148438 926 c 1
EndSplineSet
Validated: 1
EndChar

StartChar: abreve
Encoding: 259 259 103
Width: 525
Flags: HMW
LayerCount: 2
Fore
SplineSet
164.756835938 347 m 1
 163.756835938 347 l 1
 176.799804688 446 l 1
 245.389648438 477 296.940429688 489 365.940429688 489 c 0
 471.564020883 489 537.740203058 451.522362883 537.740203058 366.833016627 c 0
 537.740203058 353.702357652 536.149397163 339.436778791 532.868164062 324 c 2
 464 0 l 1
 330 0 l 1
 344.87890625 70 l 1
 303.250976562 20 234.662109375 -11 164.662109375 -11 c 0
 98.890243203 -11 54.5409958049 36.9328352327 54.5409958049 100.39069295 c 0
 54.5409958049 110.258977049 55.6134993319 120.502704755 57.8447265625 131 c 0
 80.3759765625 237 235.540039062 266 385.390625 270 c 1
 396.868164062 324 l 2
 399.931305044 338.410760232 401.619448591 351.960643507 401.619448591 364.138418036 c 0
 401.619448591 399.283294269 387.559052614 423 351.911132812 423 c 0
 279.911132812 423 225.022460938 400 165.756835938 347 c 2
 164.544921875 346 l 1
 164.756835938 347 l 1
376.887695312 230 m 1
 294.038085938 226 203.723632812 201 188.844726562 131 c 0
 187.761118399 125.902023834 187.240410108 120.912036703 187.240410108 116.092817833 c 0
 187.240410108 84.9898763964 208.929639211 61 240.965820312 61 c 0
 294.965820312 61 348.618164062 97 358.608398438 144 c 2
 376.887695312 230 l 1
251.765625 714 m 1
 312.765625 714 l 1
 311.913012929 709.988797174 311.504729451 706.152121574 311.504729451 702.491488491 c 0
 311.504729451 665.99761864 352.082599092 647 397.524414062 647 c 0
 446.524414062 647 500.413085938 670 509.765625 714 c 1
 571.765625 714 l 1
 554.123046875 631 466.732421875 568 380.732421875 568 c 0
 304.827386202 568 248.701957888 617.077770384 248.701957888 685.667835661 c 0
 248.701957888 694.789947995 249.694680851 704.257185592 251.765625 714 c 1
EndSplineSet
Validated: 1
EndChar

StartChar: uni1EAE
Encoding: 7854 7854 104
Width: 733
Flags: HMW
LayerCount: 2
Fore
SplineSet
478.944335938 569 m 1
 476.944335938 569 l 1
 473.543945312 553 387.384765625 397 298.375976562 237 c 1
 515.375976562 237 l 1
 496.049000381 384.314807054 478.544955051 528.238730923 478.544955051 562.622219937 c 0
 478.544955051 565.582962317 478.674744618 567.731480705 478.944335938 569 c 1
527.095703125 151 m 1
 251.095703125 151 l 1
 219.405273438 96 190.352539062 44 166 0 c 1
 30 0 l 1
 420.514648438 694 l 1
 605.514648438 694 l 1
 701 0 l 1
 548 0 l 1
 542.352539062 44 534.405273438 96 527.095703125 151 c 1
396.827148438 926 m 1
 457.827148438 926 l 1
 456.974536367 921.988797174 456.566252889 918.152121574 456.566252889 914.491488491 c 0
 456.566252889 877.99761864 497.14412253 859 542.5859375 859 c 0
 591.5859375 859 645.474609375 882 654.827148438 926 c 1
 716.827148438 926 l 1
 699.185546875 843 611.793945312 780 525.793945312 780 c 0
 449.888576359 780 393.763749221 829.07820136 393.763749221 897.668739146 c 0
 393.763749221 906.790573106 394.756387288 916.257507245 396.827148438 926 c 1
655.450195312 1103 m 1
 655.450195312 1103 655.450195312 1103 656.450195312 1103 c 2
 789.237304688 1102 l 1
 789.237304688 1102 789.237304688 1102 788.237304688 1102 c 2
 596.204101562 956 l 2
 594.991210938 955 594.991210938 955 594.991210938 955 c 1
 524.991210938 955 l 1
 524.204101562 956 l 2
 524.416992188 957 524.416992188 957 524.416992188 957 c 1
 655.450195312 1103 l 1
EndSplineSet
Validated: 1
EndChar

StartChar: uni1EAF
Encoding: 7855 7855 105
Width: 525
Flags: HMW
LayerCount: 2
Fore
SplineSet
164.756835938 347 m 1
 163.756835938 347 l 1
 176.799804688 446 l 1
 245.389648438 477 296.940429688 489 365.940429688 489 c 0
 471.564020883 489 537.740203058 451.522362883 537.740203058 366.833016627 c 0
 537.740203058 353.702357652 536.149397163 339.436778791 532.868164062 324 c 2
 464 0 l 1
 330 0 l 1
 344.87890625 70 l 1
 303.250976562 20 234.662109375 -11 164.662109375 -11 c 0
 98.890243203 -11 54.5409958049 36.9328352327 54.5409958049 100.39069295 c 0
 54.5409958049 110.258977049 55.6134993319 120.502704755 57.8447265625 131 c 0
 80.3759765625 237 235.540039062 266 385.390625 270 c 1
 396.868164062 324 l 2
 399.931305044 338.410760232 401.619448591 351.960643507 401.619448591 364.138418036 c 0
 401.619448591 399.283294269 387.559052614 423 351.911132812 423 c 0
 279.911132812 423 225.022460938 400 165.756835938 347 c 2
 164.544921875 346 l 1
 164.756835938 347 l 1
376.887695312 230 m 1
 294.038085938 226 203.723632812 201 188.844726562 131 c 0
 187.761118399 125.902023834 187.240410108 120.912036703 187.240410108 116.092817833 c 0
 187.240410108 84.9898763964 208.929639211 61 240.965820312 61 c 0
 294.965820312 61 348.618164062 97 358.608398438 144 c 2
 376.887695312 230 l 1
251.765625 714 m 1
 312.765625 714 l 1
 311.913012929 709.988797174 311.504729451 706.152121574 311.504729451 702.491488491 c 0
 311.504729451 665.99761864 352.082599092 647 397.524414062 647 c 0
 446.524414062 647 500.413085938 670 509.765625 714 c 1
 571.765625 714 l 1
 554.123046875 631 466.732421875 568 380.732421875 568 c 0
 304.827386202 568 248.701957888 617.077770384 248.701957888 685.667835661 c 0
 248.701957888 694.789947995 249.694680851 704.257185592 251.765625 714 c 1
510.387695312 891 m 1
 510.387695312 891 510.387695312 891 511.387695312 891 c 2
 644.17578125 890 l 1
 644.17578125 890 644.17578125 890 643.17578125 890 c 2
 451.141601562 744 l 2
 449.9296875 743 449.9296875 743 449.9296875 743 c 1
 379.9296875 743 l 1
 379.141601562 744 l 2
 379.354492188 745 379.354492188 745 379.354492188 745 c 1
 510.387695312 891 l 1
EndSplineSet
Validated: 1
EndChar

StartChar: uni1EB6
Encoding: 7862 7862 106
Width: 733
Flags: HMW
LayerCount: 2
Fore
SplineSet
478.944335938 569 m 1
 476.944335938 569 l 1
 473.543945312 553 387.384765625 397 298.375976562 237 c 1
 515.375976562 237 l 1
 496.049000381 384.314807054 478.544955051 528.238730923 478.544955051 562.622219937 c 0
 478.544955051 565.582962317 478.674744618 567.731480705 478.944335938 569 c 1
527.095703125 151 m 1
 251.095703125 151 l 1
 219.405273438 96 190.352539062 44 166 0 c 1
 30 0 l 1
 420.514648438 694 l 1
 605.514648438 694 l 1
 701 0 l 1
 548 0 l 1
 542.352539062 44 534.405273438 96 527.095703125 151 c 1
396.827148438 926 m 1
 457.827148438 926 l 1
 456.974536367 921.988797174 456.566252889 918.152121574 456.566252889 914.491488491 c 0
 456.566252889 877.99761864 497.14412253 859 542.5859375 859 c 0
 591.5859375 859 645.474609375 882 654.827148438 926 c 1
 716.827148438 926 l 1
 699.185546875 843 611.793945312 780 525.793945312 780 c 0
 449.888576359 780 393.763749221 829.07820136 393.763749221 897.668739146 c 0
 393.763749221 906.790573106 394.756387288 916.257507245 396.827148438 926 c 1
265.276367188 -201 m 1
 287.594726562 -96 l 1
 391.594726562 -96 l 1
 369.276367188 -201 l 1
 265.276367188 -201 l 1
EndSplineSet
Validated: 1
EndChar

StartChar: uni1EB7
Encoding: 7863 7863 107
Width: 525
Flags: HMW
LayerCount: 2
Fore
SplineSet
164.756835938 347 m 1
 163.756835938 347 l 1
 176.799804688 446 l 1
 245.389648438 477 296.940429688 489 365.940429688 489 c 0
 471.564020883 489 537.740203058 451.522362883 537.740203058 366.833016627 c 0
 537.740203058 353.702357652 536.149397163 339.436778791 532.868164062 324 c 2
 464 0 l 1
 330 0 l 1
 344.87890625 70 l 1
 303.250976562 20 234.662109375 -11 164.662109375 -11 c 0
 98.890243203 -11 54.5409958049 36.9328352327 54.5409958049 100.39069295 c 0
 54.5409958049 110.258977049 55.6134993319 120.502704755 57.8447265625 131 c 0
 80.3759765625 237 235.540039062 266 385.390625 270 c 1
 396.868164062 324 l 2
 399.931305044 338.410760232 401.619448591 351.960643507 401.619448591 364.138418036 c 0
 401.619448591 399.283294269 387.559052614 423 351.911132812 423 c 0
 279.911132812 423 225.022460938 400 165.756835938 347 c 2
 164.544921875 346 l 1
 164.756835938 347 l 1
376.887695312 230 m 1
 294.038085938 226 203.723632812 201 188.844726562 131 c 0
 187.761118399 125.902023834 187.240410108 120.912036703 187.240410108 116.092817833 c 0
 187.240410108 84.9898763964 208.929639211 61 240.965820312 61 c 0
 294.965820312 61 348.618164062 97 358.608398438 144 c 2
 376.887695312 230 l 1
251.765625 714 m 1
 312.765625 714 l 1
 311.913012929 709.988797174 311.504729451 706.152121574 311.504729451 702.491488491 c 0
 311.504729451 665.99761864 352.082599092 647 397.524414062 647 c 0
 446.524414062 647 500.413085938 670 509.765625 714 c 1
 571.765625 714 l 1
 554.123046875 631 466.732421875 568 380.732421875 568 c 0
 304.827386202 568 248.701957888 617.077770384 248.701957888 685.667835661 c 0
 248.701957888 694.789947995 249.694680851 704.257185592 251.765625 714 c 1
165.276367188 -201 m 1
 187.594726562 -96 l 1
 291.594726562 -96 l 1
 269.276367188 -201 l 1
 165.276367188 -201 l 1
EndSplineSet
Validated: 1
EndChar

StartChar: uni1EB0
Encoding: 7856 7856 108
Width: 733
Flags: HMW
LayerCount: 2
Fore
SplineSet
478.944335938 569 m 1
 476.944335938 569 l 1
 473.543945312 553 387.384765625 397 298.375976562 237 c 1
 515.375976562 237 l 1
 496.049000381 384.314807054 478.544955051 528.238730923 478.544955051 562.622219937 c 0
 478.544955051 565.582962317 478.674744618 567.731480705 478.944335938 569 c 1
527.095703125 151 m 1
 251.095703125 151 l 1
 219.405273438 96 190.352539062 44 166 0 c 1
 30 0 l 1
 420.514648438 694 l 1
 605.514648438 694 l 1
 701 0 l 1
 548 0 l 1
 542.352539062 44 534.405273438 96 527.095703125 151 c 1
396.827148438 926 m 1
 457.827148438 926 l 1
 456.974536367 921.988797174 456.566252889 918.152121574 456.566252889 914.491488491 c 0
 456.566252889 877.99761864 497.14412253 859 542.5859375 859 c 0
 591.5859375 859 645.474609375 882 654.827148438 926 c 1
 716.827148438 926 l 1
 699.185546875 843 611.793945312 780 525.793945312 780 c 0
 449.888576359 780 393.763749221 829.07820136 393.763749221 897.668739146 c 0
 393.763749221 906.790573106 394.756387288 916.257507245 396.827148438 926 c 1
400.237304688 1102 m 1
 399.237304688 1102 l 1
 532.450195312 1103 l 2
 533.450195312 1103 533.450195312 1103 533.450195312 1103 c 1
 602.416992188 957 l 1
 601.991210938 955 l 1
 601.991210938 955 601.991210938 955 600.991210938 955 c 2
 530.991210938 955 l 1
 530.991210938 955 530.991210938 955 530.204101562 956 c 2
 400.237304688 1102 l 1
EndSplineSet
Validated: 1
EndChar

StartChar: uni1EB1
Encoding: 7857 7857 109
Width: 525
Flags: HMW
LayerCount: 2
Fore
SplineSet
164.756835938 347 m 1
 163.756835938 347 l 1
 176.799804688 446 l 1
 245.389648438 477 296.940429688 489 365.940429688 489 c 0
 471.564020883 489 537.740203058 451.522362883 537.740203058 366.833016627 c 0
 537.740203058 353.702357652 536.149397163 339.436778791 532.868164062 324 c 2
 464 0 l 1
 330 0 l 1
 344.87890625 70 l 1
 303.250976562 20 234.662109375 -11 164.662109375 -11 c 0
 98.890243203 -11 54.5409958049 36.9328352327 54.5409958049 100.39069295 c 0
 54.5409958049 110.258977049 55.6134993319 120.502704755 57.8447265625 131 c 0
 80.3759765625 237 235.540039062 266 385.390625 270 c 1
 396.868164062 324 l 2
 399.931305044 338.410760232 401.619448591 351.960643507 401.619448591 364.138418036 c 0
 401.619448591 399.283294269 387.559052614 423 351.911132812 423 c 0
 279.911132812 423 225.022460938 400 165.756835938 347 c 2
 164.544921875 346 l 1
 164.756835938 347 l 1
376.887695312 230 m 1
 294.038085938 226 203.723632812 201 188.844726562 131 c 0
 187.761118399 125.902023834 187.240410108 120.912036703 187.240410108 116.092817833 c 0
 187.240410108 84.9898763964 208.929639211 61 240.965820312 61 c 0
 294.965820312 61 348.618164062 97 358.608398438 144 c 2
 376.887695312 230 l 1
251.765625 714 m 1
 312.765625 714 l 1
 311.913012929 709.988797174 311.504729451 706.152121574 311.504729451 702.491488491 c 0
 311.504729451 665.99761864 352.082599092 647 397.524414062 647 c 0
 446.524414062 647 500.413085938 670 509.765625 714 c 1
 571.765625 714 l 1
 554.123046875 631 466.732421875 568 380.732421875 568 c 0
 304.827386202 568 248.701957888 617.077770384 248.701957888 685.667835661 c 0
 248.701957888 694.789947995 249.694680851 704.257185592 251.765625 714 c 1
255.17578125 890 m 1
 254.17578125 890 l 1
 387.387695312 891 l 2
 388.387695312 891 388.387695312 891 388.387695312 891 c 1
 457.354492188 745 l 1
 456.9296875 743 l 1
 456.9296875 743 456.9296875 743 455.9296875 743 c 2
 385.9296875 743 l 1
 385.9296875 743 385.9296875 743 385.141601562 744 c 2
 255.17578125 890 l 1
EndSplineSet
Validated: 1
EndChar

StartChar: uni1EB2
Encoding: 7858 7858 110
Width: 733
Flags: HMW
LayerCount: 2
Fore
SplineSet
478.944335938 569 m 1
 476.944335938 569 l 1
 473.543945312 553 387.384765625 397 298.375976562 237 c 1
 515.375976562 237 l 1
 496.049000381 384.314807054 478.544955051 528.238730923 478.544955051 562.622219937 c 0
 478.544955051 565.582962317 478.674744618 567.731480705 478.944335938 569 c 1
527.095703125 151 m 1
 251.095703125 151 l 1
 219.405273438 96 190.352539062 44 166 0 c 1
 30 0 l 1
 420.514648438 694 l 1
 605.514648438 694 l 1
 701 0 l 1
 548 0 l 1
 542.352539062 44 534.405273438 96 527.095703125 151 c 1
396.827148438 926 m 1
 457.827148438 926 l 1
 456.974536367 921.988797174 456.566252889 918.152121574 456.566252889 914.491488491 c 0
 456.566252889 877.99761864 497.14412253 859 542.5859375 859 c 0
 591.5859375 859 645.474609375 882 654.827148438 926 c 1
 716.827148438 926 l 1
 699.185546875 843 611.793945312 780 525.793945312 780 c 0
 449.888576359 780 393.763749221 829.07820136 393.763749221 897.668739146 c 0
 393.763749221 906.790573106 394.756387288 916.257507245 396.827148438 926 c 1
604.338867188 1126 m 0
 577.338867188 1126 543.150390625 1111 515.836914062 1086 c 1
 508.165039062 1144 l 1
 541.991210938 1162 581.329101562 1173 614.329101562 1173 c 0
 671.374704267 1173 710.675044169 1158.36572427 710.675044169 1113.54989764 c 0
 710.675044169 1107.30081141 709.910915458 1100.46489592 708.32421875 1093 c 0
 703.22265625 1069 688.333984375 1046 667.571289062 1033 c 0
 631.89453125 1011 605.581054688 986 598.56640625 953 c 2
 592.827148438 926 l 1
 529.827148438 926 l 1
 535.56640625 953 l 2
 545.131835938 998 576.571289062 1033 619.010742188 1068 c 0
 626.286132812 1074 630.19921875 1083 632.32421875 1093 c 0
 633.22739832 1097.24872266 633.649592555 1100.96786903 633.649592555 1104.22032793 c 0
 633.649592555 1122.40227567 620.455805381 1126 604.338867188 1126 c 0
EndSplineSet
Validated: 1
EndChar

StartChar: uni1EB3
Encoding: 7859 7859 111
Width: 525
Flags: HMW
LayerCount: 2
Fore
SplineSet
164.756835938 347 m 1
 163.756835938 347 l 1
 176.799804688 446 l 1
 245.389648438 477 296.940429688 489 365.940429688 489 c 0
 471.564020883 489 537.740203058 451.522362883 537.740203058 366.833016627 c 0
 537.740203058 353.702357652 536.149397163 339.436778791 532.868164062 324 c 2
 464 0 l 1
 330 0 l 1
 344.87890625 70 l 1
 303.250976562 20 234.662109375 -11 164.662109375 -11 c 0
 98.890243203 -11 54.5409958049 36.9328352327 54.5409958049 100.39069295 c 0
 54.5409958049 110.258977049 55.6134993319 120.502704755 57.8447265625 131 c 0
 80.3759765625 237 235.540039062 266 385.390625 270 c 1
 396.868164062 324 l 2
 399.931305044 338.410760232 401.619448591 351.960643507 401.619448591 364.138418036 c 0
 401.619448591 399.283294269 387.559052614 423 351.911132812 423 c 0
 279.911132812 423 225.022460938 400 165.756835938 347 c 2
 164.544921875 346 l 1
 164.756835938 347 l 1
376.887695312 230 m 1
 294.038085938 226 203.723632812 201 188.844726562 131 c 0
 187.761118399 125.902023834 187.240410108 120.912036703 187.240410108 116.092817833 c 0
 187.240410108 84.9898763964 208.929639211 61 240.965820312 61 c 0
 294.965820312 61 348.618164062 97 358.608398438 144 c 2
 376.887695312 230 l 1
251.765625 714 m 1
 312.765625 714 l 1
 311.913012929 709.988797174 311.504729451 706.152121574 311.504729451 702.491488491 c 0
 311.504729451 665.99761864 352.082599092 647 397.524414062 647 c 0
 446.524414062 647 500.413085938 670 509.765625 714 c 1
 571.765625 714 l 1
 554.123046875 631 466.732421875 568 380.732421875 568 c 0
 304.827386202 568 248.701957888 617.077770384 248.701957888 685.667835661 c 0
 248.701957888 694.789947995 249.694680851 704.257185592 251.765625 714 c 1
459.276367188 914 m 0
 432.276367188 914 398.087890625 899 370.774414062 874 c 1
 363.102539062 932 l 1
 396.928710938 950 436.266601562 961 469.266601562 961 c 0
 526.312337875 961 565.613480438 946.365655717 565.613480438 901.549582748 c 0
 565.613480438 895.300581773 564.849365369 888.464770538 563.262695312 881 c 0
 558.161132812 857 543.272460938 834 522.508789062 821 c 0
 486.833007812 799 460.518554688 774 453.504882812 741 c 2
 447.765625 714 l 1
 384.765625 714 l 1
 390.504882812 741 l 2
 400.069335938 786 431.508789062 821 473.948242188 856 c 0
 481.223632812 862 485.13671875 871 487.262695312 881 c 0
 488.165612665 885.248186137 488.587688631 888.966929716 488.587688631 892.219095752 c 0
 488.587688631 910.402113126 475.393669452 914 459.276367188 914 c 0
EndSplineSet
Validated: 1
EndChar

StartChar: uni1EB4
Encoding: 7860 7860 112
Width: 733
Flags: HMW
LayerCount: 2
Fore
SplineSet
478.944335938 569 m 1
 476.944335938 569 l 1
 473.543945312 553 387.384765625 397 298.375976562 237 c 1
 515.375976562 237 l 1
 496.049000381 384.314807054 478.544955051 528.238730923 478.544955051 562.622219937 c 0
 478.544955051 565.582962317 478.674744618 567.731480705 478.944335938 569 c 1
527.095703125 151 m 1
 251.095703125 151 l 1
 219.405273438 96 190.352539062 44 166 0 c 1
 30 0 l 1
 420.514648438 694 l 1
 605.514648438 694 l 1
 701 0 l 1
 548 0 l 1
 542.352539062 44 534.405273438 96 527.095703125 151 c 1
396.827148438 926 m 1
 457.827148438 926 l 1
 456.974536367 921.988797174 456.566252889 918.152121574 456.566252889 914.491488491 c 0
 456.566252889 877.99761864 497.14412253 859 542.5859375 859 c 0
 591.5859375 859 645.474609375 882 654.827148438 926 c 1
 716.827148438 926 l 1
 699.185546875 843 611.793945312 780 525.793945312 780 c 0
 449.888576359 780 393.763749221 829.07820136 393.763749221 897.668739146 c 0
 393.763749221 906.790573106 394.756387288 916.257507245 396.827148438 926 c 1
486.73046875 982 m 0
 486.517578125 981 485.517578125 981 485.517578125 981 c 1
 421.517578125 981 l 1
 421.517578125 981 420.517578125 981 420.73046875 982 c 0
 433.696289062 1043 486.961914062 1096 543.961914062 1096 c 0
 600.961914062 1096 638.333984375 1046 664.333984375 1046 c 0
 686.333984375 1046 702.22265625 1069 709.961914062 1096 c 1
 772.961914062 1096 l 1
 772.961914062 1096 773.961914062 1096 773.749023438 1095 c 0
 760.571289062 1033 707.517578125 981 650.517578125 981 c 0
 594.517578125 981 556.145507812 1031 530.145507812 1031 c 0
 509.145507812 1031 492.256835938 1008 486.73046875 982 c 0
EndSplineSet
Validated: 1
EndChar

StartChar: uni1EB5
Encoding: 7861 7861 113
Width: 525
Flags: HMW
LayerCount: 2
Fore
SplineSet
164.756835938 347 m 1
 163.756835938 347 l 1
 176.799804688 446 l 1
 245.389648438 477 296.940429688 489 365.940429688 489 c 0
 471.564020883 489 537.740203058 451.522362883 537.740203058 366.833016627 c 0
 537.740203058 353.702357652 536.149397163 339.436778791 532.868164062 324 c 2
 464 0 l 1
 330 0 l 1
 344.87890625 70 l 1
 303.250976562 20 234.662109375 -11 164.662109375 -11 c 0
 98.890243203 -11 54.5409958049 36.9328352327 54.5409958049 100.39069295 c 0
 54.5409958049 110.258977049 55.6134993319 120.502704755 57.8447265625 131 c 0
 80.3759765625 237 235.540039062 266 385.390625 270 c 1
 396.868164062 324 l 2
 399.931305044 338.410760232 401.619448591 351.960643507 401.619448591 364.138418036 c 0
 401.619448591 399.283294269 387.559052614 423 351.911132812 423 c 0
 279.911132812 423 225.022460938 400 165.756835938 347 c 2
 164.544921875 346 l 1
 164.756835938 347 l 1
376.887695312 230 m 1
 294.038085938 226 203.723632812 201 188.844726562 131 c 0
 187.761118399 125.902023834 187.240410108 120.912036703 187.240410108 116.092817833 c 0
 187.240410108 84.9898763964 208.929639211 61 240.965820312 61 c 0
 294.965820312 61 348.618164062 97 358.608398438 144 c 2
 376.887695312 230 l 1
251.765625 714 m 1
 312.765625 714 l 1
 311.913012929 709.988797174 311.504729451 706.152121574 311.504729451 702.491488491 c 0
 311.504729451 665.99761864 352.082599092 647 397.524414062 647 c 0
 446.524414062 647 500.413085938 670 509.765625 714 c 1
 571.765625 714 l 1
 554.123046875 631 466.732421875 568 380.732421875 568 c 0
 304.827386202 568 248.701957888 617.077770384 248.701957888 685.667835661 c 0
 248.701957888 694.789947995 249.694680851 704.257185592 251.765625 714 c 1
341.668945312 770 m 0
 341.456054688 769 340.456054688 769 340.456054688 769 c 1
 276.456054688 769 l 1
 276.456054688 769 275.456054688 769 275.668945312 770 c 0
 288.634765625 831 341.900390625 884 398.900390625 884 c 0
 455.900390625 884 493.272460938 834 519.272460938 834 c 0
 541.272460938 834 557.161132812 857 564.900390625 884 c 1
 627.900390625 884 l 1
 627.900390625 884 628.900390625 884 628.6875 883 c 0
 615.508789062 821 562.456054688 769 505.456054688 769 c 0
 449.456054688 769 411.083984375 819 385.083984375 819 c 0
 364.083984375 819 347.1953125 796 341.668945312 770 c 0
EndSplineSet
Validated: 1
EndChar

StartChar: Acircumflex
Encoding: 194 194 116
Width: 733
Flags: HMW
LayerCount: 2
Fore
SplineSet
478.944335938 569 m 1
 476.944335938 569 l 1
 473.543945312 553 387.384765625 397 298.375976562 237 c 1
 515.375976562 237 l 1
 496.049000381 384.314807054 478.544955051 528.238730923 478.544955051 562.622219937 c 0
 478.544955051 565.582962317 478.674744618 567.731480705 478.944335938 569 c 1
527.095703125 151 m 1
 251.095703125 151 l 1
 219.405273438 96 190.352539062 44 166 0 c 1
 30 0 l 1
 420.514648438 694 l 1
 605.514648438 694 l 1
 701 0 l 1
 548 0 l 1
 542.352539062 44 534.405273438 96 527.095703125 151 c 1
501.551757812 920 m 1
 609.551757812 920 l 1
 690.09375 772 l 2
 688.880859375 771 688.880859375 771 688.880859375 771 c 1
 618.880859375 771 l 2
 617.880859375 771 617.880859375 771 618.09375 772 c 2
 542.373046875 858 l 1
 430.09375 772 l 2
 429.880859375 771 429.880859375 771 428.880859375 771 c 2
 358.09375 772 l 2
 358.306640625 773 358.306640625 773 358.306640625 773 c 1
 501.551757812 920 l 1
EndSplineSet
Validated: 1
EndChar

StartChar: acircumflex
Encoding: 226 226 117
Width: 525
Flags: HMW
LayerCount: 2
Fore
SplineSet
164.756835938 347 m 1
 163.756835938 347 l 1
 176.799804688 446 l 1
 245.389648438 477 296.940429688 489 365.940429688 489 c 0
 471.564020883 489 537.740203058 451.522362883 537.740203058 366.833016627 c 0
 537.740203058 353.702357652 536.149397163 339.436778791 532.868164062 324 c 2
 464 0 l 1
 330 0 l 1
 344.87890625 70 l 1
 303.250976562 20 234.662109375 -11 164.662109375 -11 c 0
 98.890243203 -11 54.5409958049 36.9328352327 54.5409958049 100.39069295 c 0
 54.5409958049 110.258977049 55.6134993319 120.502704755 57.8447265625 131 c 0
 80.3759765625 237 235.540039062 266 385.390625 270 c 1
 396.868164062 324 l 2
 399.931305044 338.410760232 401.619448591 351.960643507 401.619448591 364.138418036 c 0
 401.619448591 399.283294269 387.559052614 423 351.911132812 423 c 0
 279.911132812 423 225.022460938 400 165.756835938 347 c 2
 164.544921875 346 l 1
 164.756835938 347 l 1
376.887695312 230 m 1
 294.038085938 226 203.723632812 201 188.844726562 131 c 0
 187.761118399 125.902023834 187.240410108 120.912036703 187.240410108 116.092817833 c 0
 187.240410108 84.9898763964 208.929639211 61 240.965820312 61 c 0
 294.965820312 61 348.618164062 97 358.608398438 144 c 2
 376.887695312 230 l 1
354.364257812 698 m 1
 462.364257812 698 l 1
 542.90625 550 l 2
 541.693359375 549 541.693359375 549 541.693359375 549 c 1
 471.693359375 549 l 2
 470.693359375 549 470.693359375 549 470.90625 550 c 2
 395.185546875 636 l 1
 282.90625 550 l 2
 282.693359375 549 282.693359375 549 281.693359375 549 c 2
 210.90625 550 l 2
 211.119140625 551 211.119140625 551 211.119140625 551 c 1
 354.364257812 698 l 1
EndSplineSet
Validated: 1
EndChar

StartChar: uni1EA4
Encoding: 7844 7844 118
Width: 733
Flags: HMW
LayerCount: 2
Fore
SplineSet
478.944335938 569 m 1
 476.944335938 569 l 1
 473.543945312 553 387.384765625 397 298.375976562 237 c 1
 515.375976562 237 l 1
 496.049000381 384.314807054 478.544955051 528.238730923 478.544955051 562.622219937 c 0
 478.544955051 565.582962317 478.674744618 567.731480705 478.944335938 569 c 1
527.095703125 151 m 1
 251.095703125 151 l 1
 219.405273438 96 190.352539062 44 166 0 c 1
 30 0 l 1
 420.514648438 694 l 1
 605.514648438 694 l 1
 701 0 l 1
 548 0 l 1
 542.352539062 44 534.405273438 96 527.095703125 151 c 1
501.551757812 920 m 1
 609.551757812 920 l 1
 690.09375 772 l 2
 688.880859375 771 688.880859375 771 688.880859375 771 c 1
 618.880859375 771 l 2
 617.880859375 771 617.880859375 771 618.09375 772 c 2
 542.373046875 858 l 1
 430.09375 772 l 2
 429.880859375 771 429.880859375 771 428.880859375 771 c 2
 358.09375 772 l 2
 358.306640625 773 358.306640625 773 358.306640625 773 c 1
 501.551757812 920 l 1
511.010742188 1068 m 1
 511.010742188 1068 511.010742188 1068 512.010742188 1068 c 2
 644.797851562 1067 l 1
 644.797851562 1067 644.797851562 1067 643.797851562 1067 c 2
 451.764648438 921 l 2
 450.551757812 920 450.551757812 920 450.551757812 920 c 1
 380.551757812 920 l 1
 379.764648438 921 l 2
 379.977539062 922 379.977539062 922 379.977539062 922 c 1
 511.010742188 1068 l 1
EndSplineSet
Validated: 1
EndChar

StartChar: uni1EA5
Encoding: 7845 7845 119
Width: 525
Flags: HMW
LayerCount: 2
Fore
SplineSet
164.756835938 347 m 1
 163.756835938 347 l 1
 176.799804688 446 l 1
 245.389648438 477 296.940429688 489 365.940429688 489 c 0
 471.564020883 489 537.740203058 451.522362883 537.740203058 366.833016627 c 0
 537.740203058 353.702357652 536.149397163 339.436778791 532.868164062 324 c 2
 464 0 l 1
 330 0 l 1
 344.87890625 70 l 1
 303.250976562 20 234.662109375 -11 164.662109375 -11 c 0
 98.890243203 -11 54.5409958049 36.9328352327 54.5409958049 100.39069295 c 0
 54.5409958049 110.258977049 55.6134993319 120.502704755 57.8447265625 131 c 0
 80.3759765625 237 235.540039062 266 385.390625 270 c 1
 396.868164062 324 l 2
 399.931305044 338.410760232 401.619448591 351.960643507 401.619448591 364.138418036 c 0
 401.619448591 399.283294269 387.559052614 423 351.911132812 423 c 0
 279.911132812 423 225.022460938 400 165.756835938 347 c 2
 164.544921875 346 l 1
 164.756835938 347 l 1
376.887695312 230 m 1
 294.038085938 226 203.723632812 201 188.844726562 131 c 0
 187.761118399 125.902023834 187.240410108 120.912036703 187.240410108 116.092817833 c 0
 187.240410108 84.9898763964 208.929639211 61 240.965820312 61 c 0
 294.965820312 61 348.618164062 97 358.608398438 144 c 2
 376.887695312 230 l 1
354.364257812 698 m 1
 462.364257812 698 l 1
 542.90625 550 l 2
 541.693359375 549 541.693359375 549 541.693359375 549 c 1
 471.693359375 549 l 2
 470.693359375 549 470.693359375 549 470.90625 550 c 2
 395.185546875 636 l 1
 282.90625 550 l 2
 282.693359375 549 282.693359375 549 281.693359375 549 c 2
 210.90625 550 l 2
 211.119140625 551 211.119140625 551 211.119140625 551 c 1
 354.364257812 698 l 1
363.823242188 846 m 1
 363.823242188 846 363.823242188 846 364.823242188 846 c 2
 497.610351562 845 l 1
 497.610351562 845 497.610351562 845 496.610351562 845 c 2
 304.577148438 699 l 2
 303.364257812 698 303.364257812 698 303.364257812 698 c 1
 233.364257812 698 l 1
 232.577148438 699 l 2
 232.790039062 700 232.790039062 700 232.790039062 700 c 1
 363.823242188 846 l 1
EndSplineSet
Validated: 1
EndChar

StartChar: uni1EAC
Encoding: 7852 7852 120
Width: 733
Flags: HMW
LayerCount: 2
Fore
SplineSet
478.944335938 569 m 1
 476.944335938 569 l 1
 473.543945312 553 387.384765625 397 298.375976562 237 c 1
 515.375976562 237 l 1
 496.049000381 384.314807054 478.544955051 528.238730923 478.544955051 562.622219937 c 0
 478.544955051 565.582962317 478.674744618 567.731480705 478.944335938 569 c 1
527.095703125 151 m 1
 251.095703125 151 l 1
 219.405273438 96 190.352539062 44 166 0 c 1
 30 0 l 1
 420.514648438 694 l 1
 605.514648438 694 l 1
 701 0 l 1
 548 0 l 1
 542.352539062 44 534.405273438 96 527.095703125 151 c 1
501.551757812 920 m 1
 609.551757812 920 l 1
 690.09375 772 l 2
 688.880859375 771 688.880859375 771 688.880859375 771 c 1
 618.880859375 771 l 2
 617.880859375 771 617.880859375 771 618.09375 772 c 2
 542.373046875 858 l 1
 430.09375 772 l 2
 429.880859375 771 429.880859375 771 428.880859375 771 c 2
 358.09375 772 l 2
 358.306640625 773 358.306640625 773 358.306640625 773 c 1
 501.551757812 920 l 1
265.276367188 -201 m 1
 287.594726562 -96 l 1
 391.594726562 -96 l 1
 369.276367188 -201 l 1
 265.276367188 -201 l 1
EndSplineSet
Validated: 1
EndChar

StartChar: uni1EAD
Encoding: 7853 7853 121
Width: 525
Flags: HMW
LayerCount: 2
Fore
SplineSet
164.756835938 347 m 1
 163.756835938 347 l 1
 176.799804688 446 l 1
 245.389648438 477 296.940429688 489 365.940429688 489 c 0
 471.564020883 489 537.740203058 451.522362883 537.740203058 366.833016627 c 0
 537.740203058 353.702357652 536.149397163 339.436778791 532.868164062 324 c 2
 464 0 l 1
 330 0 l 1
 344.87890625 70 l 1
 303.250976562 20 234.662109375 -11 164.662109375 -11 c 0
 98.890243203 -11 54.5409958049 36.9328352327 54.5409958049 100.39069295 c 0
 54.5409958049 110.258977049 55.6134993319 120.502704755 57.8447265625 131 c 0
 80.3759765625 237 235.540039062 266 385.390625 270 c 1
 396.868164062 324 l 2
 399.931305044 338.410760232 401.619448591 351.960643507 401.619448591 364.138418036 c 0
 401.619448591 399.283294269 387.559052614 423 351.911132812 423 c 0
 279.911132812 423 225.022460938 400 165.756835938 347 c 2
 164.544921875 346 l 1
 164.756835938 347 l 1
376.887695312 230 m 1
 294.038085938 226 203.723632812 201 188.844726562 131 c 0
 187.761118399 125.902023834 187.240410108 120.912036703 187.240410108 116.092817833 c 0
 187.240410108 84.9898763964 208.929639211 61 240.965820312 61 c 0
 294.965820312 61 348.618164062 97 358.608398438 144 c 2
 376.887695312 230 l 1
354.364257812 698 m 1
 462.364257812 698 l 1
 542.90625 550 l 2
 541.693359375 549 541.693359375 549 541.693359375 549 c 1
 471.693359375 549 l 2
 470.693359375 549 470.693359375 549 470.90625 550 c 2
 395.185546875 636 l 1
 282.90625 550 l 2
 282.693359375 549 282.693359375 549 281.693359375 549 c 2
 210.90625 550 l 2
 211.119140625 551 211.119140625 551 211.119140625 551 c 1
 354.364257812 698 l 1
165.276367188 -201 m 1
 187.594726562 -96 l 1
 291.594726562 -96 l 1
 269.276367188 -201 l 1
 165.276367188 -201 l 1
EndSplineSet
Validated: 1
EndChar

StartChar: uni1EA6
Encoding: 7846 7846 122
Width: 733
Flags: HMW
LayerCount: 2
Fore
SplineSet
478.944335938 569 m 1
 476.944335938 569 l 1
 473.543945312 553 387.384765625 397 298.375976562 237 c 1
 515.375976562 237 l 1
 496.049000381 384.314807054 478.544955051 528.238730923 478.544955051 562.622219937 c 0
 478.544955051 565.582962317 478.674744618 567.731480705 478.944335938 569 c 1
527.095703125 151 m 1
 251.095703125 151 l 1
 219.405273438 96 190.352539062 44 166 0 c 1
 30 0 l 1
 420.514648438 694 l 1
 605.514648438 694 l 1
 701 0 l 1
 548 0 l 1
 542.352539062 44 534.405273438 96 527.095703125 151 c 1
501.551757812 920 m 1
 609.551757812 920 l 1
 690.09375 772 l 2
 688.880859375 771 688.880859375 771 688.880859375 771 c 1
 618.880859375 771 l 2
 617.880859375 771 617.880859375 771 618.09375 772 c 2
 542.373046875 858 l 1
 430.09375 772 l 2
 429.880859375 771 429.880859375 771 428.880859375 771 c 2
 358.09375 772 l 2
 358.306640625 773 358.306640625 773 358.306640625 773 c 1
 501.551757812 920 l 1
529.797851562 1067 m 1
 528.797851562 1067 l 1
 662.010742188 1068 l 2
 663.010742188 1068 663.010742188 1068 663.010742188 1068 c 1
 731.977539062 922 l 1
 731.551757812 920 l 1
 731.551757812 920 731.551757812 920 730.551757812 920 c 2
 660.551757812 920 l 1
 660.551757812 920 660.551757812 920 659.764648438 921 c 2
 529.797851562 1067 l 1
EndSplineSet
Validated: 1
EndChar

StartChar: uni1EA7
Encoding: 7847 7847 123
Width: 525
Flags: HMW
LayerCount: 2
Fore
SplineSet
164.756835938 347 m 1
 163.756835938 347 l 1
 176.799804688 446 l 1
 245.389648438 477 296.940429688 489 365.940429688 489 c 0
 471.564020883 489 537.740203058 451.522362883 537.740203058 366.833016627 c 0
 537.740203058 353.702357652 536.149397163 339.436778791 532.868164062 324 c 2
 464 0 l 1
 330 0 l 1
 344.87890625 70 l 1
 303.250976562 20 234.662109375 -11 164.662109375 -11 c 0
 98.890243203 -11 54.5409958049 36.9328352327 54.5409958049 100.39069295 c 0
 54.5409958049 110.258977049 55.6134993319 120.502704755 57.8447265625 131 c 0
 80.3759765625 237 235.540039062 266 385.390625 270 c 1
 396.868164062 324 l 2
 399.931305044 338.410760232 401.619448591 351.960643507 401.619448591 364.138418036 c 0
 401.619448591 399.283294269 387.559052614 423 351.911132812 423 c 0
 279.911132812 423 225.022460938 400 165.756835938 347 c 2
 164.544921875 346 l 1
 164.756835938 347 l 1
376.887695312 230 m 1
 294.038085938 226 203.723632812 201 188.844726562 131 c 0
 187.761118399 125.902023834 187.240410108 120.912036703 187.240410108 116.092817833 c 0
 187.240410108 84.9898763964 208.929639211 61 240.965820312 61 c 0
 294.965820312 61 348.618164062 97 358.608398438 144 c 2
 376.887695312 230 l 1
354.364257812 698 m 1
 462.364257812 698 l 1
 542.90625 550 l 2
 541.693359375 549 541.693359375 549 541.693359375 549 c 1
 471.693359375 549 l 2
 470.693359375 549 470.693359375 549 470.90625 550 c 2
 395.185546875 636 l 1
 282.90625 550 l 2
 282.693359375 549 282.693359375 549 281.693359375 549 c 2
 210.90625 550 l 2
 211.119140625 551 211.119140625 551 211.119140625 551 c 1
 354.364257812 698 l 1
382.610351562 845 m 1
 381.610351562 845 l 1
 514.823242188 846 l 2
 515.823242188 846 515.823242188 846 515.823242188 846 c 1
 584.790039062 700 l 1
 584.364257812 698 l 1
 584.364257812 698 584.364257812 698 583.364257812 698 c 2
 513.364257812 698 l 1
 513.364257812 698 513.364257812 698 512.577148438 699 c 2
 382.610351562 845 l 1
EndSplineSet
Validated: 1
EndChar

StartChar: uni1EA8
Encoding: 7848 7848 124
Width: 733
Flags: HMW
LayerCount: 2
Fore
SplineSet
478.944335938 569 m 1
 476.944335938 569 l 1
 473.543945312 553 387.384765625 397 298.375976562 237 c 1
 515.375976562 237 l 1
 496.049000381 384.314807054 478.544955051 528.238730923 478.544955051 562.622219937 c 0
 478.544955051 565.582962317 478.674744618 567.731480705 478.944335938 569 c 1
527.095703125 151 m 1
 251.095703125 151 l 1
 219.405273438 96 190.352539062 44 166 0 c 1
 30 0 l 1
 420.514648438 694 l 1
 605.514648438 694 l 1
 701 0 l 1
 548 0 l 1
 542.352539062 44 534.405273438 96 527.095703125 151 c 1
501.551757812 920 m 1
 609.551757812 920 l 1
 690.09375 772 l 2
 688.880859375 771 688.880859375 771 688.880859375 771 c 1
 618.880859375 771 l 2
 617.880859375 771 617.880859375 771 618.09375 772 c 2
 542.373046875 858 l 1
 430.09375 772 l 2
 429.880859375 771 429.880859375 771 428.880859375 771 c 2
 358.09375 772 l 2
 358.306640625 773 358.306640625 773 358.306640625 773 c 1
 501.551757812 920 l 1
742.498046875 1075 m 0
 715.498046875 1075 681.309570312 1060 653.99609375 1035 c 1
 646.32421875 1093 l 1
 680.150390625 1111 719.48828125 1122 752.48828125 1122 c 0
 809.534017562 1122 848.835160125 1107.36565572 848.835160125 1062.54958275 c 0
 848.835160125 1056.30058177 848.071045057 1049.46477054 846.484375 1042 c 0
 841.3828125 1018 826.494140625 995 805.73046875 982 c 0
 770.0546875 960 743.740234375 935 736.725585938 902 c 2
 730.987304688 875 l 1
 667.987304688 875 l 1
 673.725585938 902 l 2
 683.291015625 947 714.73046875 982 757.169921875 1017 c 0
 764.4453125 1023 768.358398438 1032 770.484375 1042 c 0
 771.387292352 1046.24818614 771.809368319 1049.96692972 771.809368319 1053.21909575 c 0
 771.809368319 1071.40211313 758.615349139 1075 742.498046875 1075 c 0
EndSplineSet
Validated: 1
EndChar

StartChar: uni1EA9
Encoding: 7849 7849 125
Width: 525
Flags: HMW
LayerCount: 2
Fore
SplineSet
164.756835938 347 m 1
 163.756835938 347 l 1
 176.799804688 446 l 1
 245.389648438 477 296.940429688 489 365.940429688 489 c 0
 471.564020883 489 537.740203058 451.522362883 537.740203058 366.833016627 c 0
 537.740203058 353.702357652 536.149397163 339.436778791 532.868164062 324 c 2
 464 0 l 1
 330 0 l 1
 344.87890625 70 l 1
 303.250976562 20 234.662109375 -11 164.662109375 -11 c 0
 98.890243203 -11 54.5409958049 36.9328352327 54.5409958049 100.39069295 c 0
 54.5409958049 110.258977049 55.6134993319 120.502704755 57.8447265625 131 c 0
 80.3759765625 237 235.540039062 266 385.390625 270 c 1
 396.868164062 324 l 2
 399.931305044 338.410760232 401.619448591 351.960643507 401.619448591 364.138418036 c 0
 401.619448591 399.283294269 387.559052614 423 351.911132812 423 c 0
 279.911132812 423 225.022460938 400 165.756835938 347 c 2
 164.544921875 346 l 1
 164.756835938 347 l 1
376.887695312 230 m 1
 294.038085938 226 203.723632812 201 188.844726562 131 c 0
 187.761118399 125.902023834 187.240410108 120.912036703 187.240410108 116.092817833 c 0
 187.240410108 84.9898763964 208.929639211 61 240.965820312 61 c 0
 294.965820312 61 348.618164062 97 358.608398438 144 c 2
 376.887695312 230 l 1
354.364257812 698 m 1
 462.364257812 698 l 1
 542.90625 550 l 2
 541.693359375 549 541.693359375 549 541.693359375 549 c 1
 471.693359375 549 l 2
 470.693359375 549 470.693359375 549 470.90625 550 c 2
 395.185546875 636 l 1
 282.90625 550 l 2
 282.693359375 549 282.693359375 549 281.693359375 549 c 2
 210.90625 550 l 2
 211.119140625 551 211.119140625 551 211.119140625 551 c 1
 354.364257812 698 l 1
612.310546875 853 m 0
 585.310546875 853 551.122070312 838 523.80859375 813 c 1
 516.13671875 871 l 1
 549.962890625 889 589.30078125 900 622.30078125 900 c 0
 679.346038479 900 718.647000003 885.365901521 718.647000003 840.550711869 c 0
 718.647000003 834.301405209 717.882783571 827.465220139 716.295898438 820 c 0
 711.1953125 796 696.306640625 773 675.54296875 760 c 0
 639.8671875 738 613.552734375 713 606.538085938 680 c 2
 600.799804688 653 l 1
 537.799804688 653 l 1
 543.538085938 680 l 2
 553.103515625 725 584.54296875 760 626.982421875 795 c 0
 634.2578125 801 638.170898438 810 640.295898438 820 c 0
 641.199078007 824.248722662 641.621272243 827.967869026 641.621272243 831.220327928 c 0
 641.621272243 849.402275669 628.427485068 853 612.310546875 853 c 0
EndSplineSet
Validated: 1
EndChar

StartChar: uni1EAA
Encoding: 7850 7850 126
Width: 733
Flags: HMW
LayerCount: 2
Fore
SplineSet
478.944335938 569 m 1
 476.944335938 569 l 1
 473.543945312 553 387.384765625 397 298.375976562 237 c 1
 515.375976562 237 l 1
 496.049000381 384.314807054 478.544955051 528.238730923 478.544955051 562.622219937 c 0
 478.544955051 565.582962317 478.674744618 567.731480705 478.944335938 569 c 1
527.095703125 151 m 1
 251.095703125 151 l 1
 219.405273438 96 190.352539062 44 166 0 c 1
 30 0 l 1
 420.514648438 694 l 1
 605.514648438 694 l 1
 701 0 l 1
 548 0 l 1
 542.352539062 44 534.405273438 96 527.095703125 151 c 1
501.551757812 920 m 1
 609.551757812 920 l 1
 690.09375 772 l 2
 688.880859375 771 688.880859375 771 688.880859375 771 c 1
 618.880859375 771 l 2
 617.880859375 771 617.880859375 771 618.09375 772 c 2
 542.373046875 858 l 1
 430.09375 772 l 2
 429.880859375 771 429.880859375 771 428.880859375 771 c 2
 358.09375 772 l 2
 358.306640625 773 358.306640625 773 358.306640625 773 c 1
 501.551757812 920 l 1
492.928710938 950 m 0
 492.715820312 949 491.715820312 949 491.715820312 949 c 1
 427.715820312 949 l 1
 427.715820312 949 426.715820312 949 426.928710938 950 c 0
 439.89453125 1011 493.16015625 1064 550.16015625 1064 c 0
 607.16015625 1064 644.532226562 1014 670.532226562 1014 c 0
 692.532226562 1014 708.420898438 1037 716.16015625 1064 c 1
 779.16015625 1064 l 1
 779.16015625 1064 780.16015625 1064 779.947265625 1063 c 0
 766.76953125 1001 713.715820312 949 656.715820312 949 c 0
 600.715820312 949 562.34375 999 536.34375 999 c 0
 515.34375 999 498.455078125 976 492.928710938 950 c 0
EndSplineSet
Validated: 1
EndChar

StartChar: uni1EAB
Encoding: 7851 7851 127
Width: 525
Flags: HMW
LayerCount: 2
Fore
SplineSet
164.756835938 347 m 1
 163.756835938 347 l 1
 176.799804688 446 l 1
 245.389648438 477 296.940429688 489 365.940429688 489 c 0
 471.564020883 489 537.740203058 451.522362883 537.740203058 366.833016627 c 0
 537.740203058 353.702357652 536.149397163 339.436778791 532.868164062 324 c 2
 464 0 l 1
 330 0 l 1
 344.87890625 70 l 1
 303.250976562 20 234.662109375 -11 164.662109375 -11 c 0
 98.890243203 -11 54.5409958049 36.9328352327 54.5409958049 100.39069295 c 0
 54.5409958049 110.258977049 55.6134993319 120.502704755 57.8447265625 131 c 0
 80.3759765625 237 235.540039062 266 385.390625 270 c 1
 396.868164062 324 l 2
 399.931305044 338.410760232 401.619448591 351.960643507 401.619448591 364.138418036 c 0
 401.619448591 399.283294269 387.559052614 423 351.911132812 423 c 0
 279.911132812 423 225.022460938 400 165.756835938 347 c 2
 164.544921875 346 l 1
 164.756835938 347 l 1
376.887695312 230 m 1
 294.038085938 226 203.723632812 201 188.844726562 131 c 0
 187.761118399 125.902023834 187.240410108 120.912036703 187.240410108 116.092817833 c 0
 187.240410108 84.9898763964 208.929639211 61 240.965820312 61 c 0
 294.965820312 61 348.618164062 97 358.608398438 144 c 2
 376.887695312 230 l 1
354.364257812 698 m 1
 462.364257812 698 l 1
 542.90625 550 l 2
 541.693359375 549 541.693359375 549 541.693359375 549 c 1
 471.693359375 549 l 2
 470.693359375 549 470.693359375 549 470.90625 550 c 2
 395.185546875 636 l 1
 282.90625 550 l 2
 282.693359375 549 282.693359375 549 281.693359375 549 c 2
 210.90625 550 l 2
 211.119140625 551 211.119140625 551 211.119140625 551 c 1
 354.364257812 698 l 1
347.654296875 737 m 0
 347.44140625 736 346.44140625 736 346.44140625 736 c 1
 282.44140625 736 l 1
 282.44140625 736 281.44140625 736 281.654296875 737 c 0
 294.620117188 798 347.885742188 851 404.885742188 851 c 0
 461.885742188 851 499.2578125 801 525.2578125 801 c 0
 547.2578125 801 563.146484375 824 570.885742188 851 c 1
 633.885742188 851 l 1
 633.885742188 851 634.885742188 851 634.672851562 850 c 0
 621.494140625 788 568.44140625 736 511.44140625 736 c 0
 455.44140625 736 417.069335938 786 391.069335938 786 c 0
 370.069335938 786 353.180664062 763 347.654296875 737 c 0
EndSplineSet
Validated: 1
EndChar

StartChar: acute
Encoding: 180 180 128
Width: 550
Flags: HMW
HStem: 537 21G<216 224 224 261> 674 20G<322 404 404 412>
LayerCount: 2
Fore
SplineSet
561.5625 666 m 2
 375.142578125 537 l 1
 338.142578125 537 l 2
 322.142578125 537 311.142578125 537 313.90625 550 c 1
 313.90625 550 314.755859375 554 326.094726562 565 c 2
 436.963867188 682 l 2
 448.301757812 693 449.514648438 694 469.514648438 694 c 2
 551.514648438 694 l 2
 565.85337714 694 576.176497623 694 576.176497623 684.643458517 c 0
 576.176497623 675.484773559 568.484821561 670.732737291 561.5625 666 c 2
EndSplineSet
Validated: 1
EndChar

StartChar: uni0301
Encoding: 769 769 129
Width: 0
Flags: HMW
HStem: 537 21G<-321 -313 -313 -276> 674 20G<-215 -133 -133 -125>
LayerCount: 2
Fore
SplineSet
24.5625 666 m 2
 -161.857421875 537 l 1
 -198.857421875 537 l 2
 -214.857421875 537 -225.857421875 537 -223.09375 550 c 1
 -223.09375 550 -222.244140625 554 -210.905273438 565 c 2
 -100.036132812 682 l 2
 -88.6982421875 693 -87.4853515625 694 -67.4853515625 694 c 2
 14.5146484375 694 l 2
 28.8533771395 694 39.176497623 694 39.176497623 684.643458517 c 0
 39.176497623 675.484773559 31.4848215606 670.732737291 24.5625 666 c 2
EndSplineSet
Validated: 1
EndChar

StartChar: uni1EA0
Encoding: 7840 7840 134
Width: 733
Flags: HMW
LayerCount: 2
Fore
SplineSet
478.944335938 569 m 1
 476.944335938 569 l 1
 473.543945312 553 387.384765625 397 298.375976562 237 c 1
 515.375976562 237 l 1
 496.049000381 384.314807054 478.544955051 528.238730923 478.544955051 562.622219937 c 0
 478.544955051 565.582962317 478.674744618 567.731480705 478.944335938 569 c 1
527.095703125 151 m 1
 251.095703125 151 l 1
 219.405273438 96 190.352539062 44 166 0 c 1
 30 0 l 1
 420.514648438 694 l 1
 605.514648438 694 l 1
 701 0 l 1
 548 0 l 1
 542.352539062 44 534.405273438 96 527.095703125 151 c 1
265.276367188 -201 m 1
 287.594726562 -96 l 1
 391.594726562 -96 l 1
 369.276367188 -201 l 1
 265.276367188 -201 l 1
EndSplineSet
Validated: 1
EndChar

StartChar: uni1EA1
Encoding: 7841 7841 135
Width: 525
Flags: HMW
LayerCount: 2
Fore
SplineSet
164.756835938 347 m 1
 163.756835938 347 l 1
 176.799804688 446 l 1
 245.389648438 477 296.940429688 489 365.940429688 489 c 0
 471.564020883 489 537.740203058 451.522362883 537.740203058 366.833016627 c 0
 537.740203058 353.702357652 536.149397163 339.436778791 532.868164062 324 c 2
 464 0 l 1
 330 0 l 1
 344.87890625 70 l 1
 303.250976562 20 234.662109375 -11 164.662109375 -11 c 0
 98.890243203 -11 54.5409958049 36.9328352327 54.5409958049 100.39069295 c 0
 54.5409958049 110.258977049 55.6134993319 120.502704755 57.8447265625 131 c 0
 80.3759765625 237 235.540039062 266 385.390625 270 c 1
 396.868164062 324 l 2
 399.931305044 338.410760232 401.619448591 351.960643507 401.619448591 364.138418036 c 0
 401.619448591 399.283294269 387.559052614 423 351.911132812 423 c 0
 279.911132812 423 225.022460938 400 165.756835938 347 c 2
 164.544921875 346 l 1
 164.756835938 347 l 1
376.887695312 230 m 1
 294.038085938 226 203.723632812 201 188.844726562 131 c 0
 187.761118399 125.902023834 187.240410108 120.912036703 187.240410108 116.092817833 c 0
 187.240410108 84.9898763964 208.929639211 61 240.965820312 61 c 0
 294.965820312 61 348.618164062 97 358.608398438 144 c 2
 376.887695312 230 l 1
165.276367188 -201 m 1
 187.594726562 -96 l 1
 291.594726562 -96 l 1
 269.276367188 -201 l 1
 165.276367188 -201 l 1
EndSplineSet
Validated: 1
EndChar

StartChar: AE
Encoding: 198 198 136
Width: 947
Flags: HMW
LayerCount: 2
Fore
SplineSet
460 0 m 1
 500.810546875 192 l 1
 276.810546875 192 l 1
 166 0 l 1
 30 0 l 1
 429.514648438 694 l 1
 1031.51464844 694 l 1
 1010.25878906 594 l 1
 733.258789062 594 l 1
 693.72265625 408 l 1
 940.72265625 408 l 1
 920.743164062 314 l 1
 673.743164062 314 l 1
 630.380859375 110 l 1
 922.380859375 110 l 1
 899 0 l 1
 460 0 l 1
326.090820312 278 m 1
 519.090820312 278 l 1
 586.258789062 594 l 1
 507.258789062 594 l 1
 326.090820312 278 l 1
EndSplineSet
Validated: 1
EndChar

StartChar: ae
Encoding: 230 230 137
Width: 794
Flags: HMW
LayerCount: 2
Fore
SplineSet
806.82421875 432 m 0
 822.022843198 406.979274887 827.552135407 377.701500315 827.552135407 346.547587839 c 0
 827.552135407 315.445286046 822.041148068 282.473057353 815.138671875 250 c 1
 517.138671875 250 l 1
 514.80078125 239 l 2
 509.78225183 215.389285069 506.343984996 190.419104546 506.343984996 166.888122678 c 0
 506.343984996 109.692640444 526.657399553 61 593.965820312 61 c 0
 655.965820312 61 720.067382812 85 773.419921875 129 c 1
 775.419921875 129 l 1
 764.290039062 39 l 2
 764.077148438 38 764.077148438 38 763.077148438 38 c 0
 704.275390625 6 640.662109375 -11 578.662109375 -11 c 0
 512.662109375 -11 448.212890625 1 408.565429688 45 c 1
 351.275390625 6 263.662109375 -11 165.662109375 -11 c 0
 99.1486724367 -11 54.8833200327 37.500999168 54.8833200327 101.630994381 c 0
 54.8833200327 111.741782064 55.9836209942 122.241058677 58.2705078125 133 c 0
 81.4384765625 242 235.028320312 273 386.877929688 277 c 1
 396.868164062 324 l 2
 400.069410024 339.060072885 401.861273107 353.073027601 401.861273107 365.540874382 c 0
 401.861273107 400.261860748 387.964754368 423 351.911132812 423 c 0
 279.911132812 423 225.022460938 400 165.756835938 347 c 1
 165.544921875 346 l 1
 163.756835938 347 l 1
 176.799804688 446 l 1
 245.389648438 477 296.940429688 489 365.940429688 489 c 0
 427.940429688 489 476.814453125 479 508.225585938 448 c 1
 557.814453125 479 615.940429688 489 669.940429688 489 c 0
 725.940429688 489 780.96484375 475 806.82421875 432 c 0
375.400390625 223 m 1
 297.549804688 219 203.298828125 199 189.270507812 133 c 0
 188.131093285 127.639691536 187.582495908 122.392727872 187.582495908 117.329212442 c 0
 187.582495908 85.5521051539 209.18868497 61 241.965820312 61 c 0
 299.965820312 61 354.642578125 83 372.14453125 123 c 1
 370.554389996 134.174993128 369.854471845 145.869780101 369.854471845 157.850139442 c 0
 369.854471845 179.103906988 372.057293921 201.256444076 375.400390625 223 c 1
532.404296875 303 m 1
 711.404296875 303 l 1
 712.816222194 313.526250947 713.697772262 324.563698937 713.697772262 335.452909122 c 0
 713.697772262 377.322247277 700.664711699 417 654.635742188 417 c 0
 594.635742188 417 551.9453125 362 532.404296875 303 c 1
EndSplineSet
Validated: 1
EndChar

StartChar: Agrave
Encoding: 192 192 140
Width: 733
Flags: HMW
LayerCount: 2
Fore
SplineSet
478.944335938 569 m 1
 476.944335938 569 l 1
 473.543945312 553 387.384765625 397 298.375976562 237 c 1
 515.375976562 237 l 1
 496.049000381 384.314807054 478.544955051 528.238730923 478.544955051 562.622219937 c 0
 478.544955051 565.582962317 478.674744618 567.731480705 478.944335938 569 c 1
527.095703125 151 m 1
 251.095703125 151 l 1
 219.405273438 96 190.352539062 44 166 0 c 1
 30 0 l 1
 420.514648438 694 l 1
 605.514648438 694 l 1
 701 0 l 1
 548 0 l 1
 542.352539062 44 534.405273438 96 527.095703125 151 c 1
373.165039062 937 m 1
 372.165039062 937 l 1
 505.377929688 938 l 2
 506.377929688 938 506.377929688 938 506.377929688 938 c 1
 575.344726562 792 l 1
 574.919921875 790 l 1
 574.919921875 790 574.919921875 790 573.919921875 790 c 2
 503.919921875 790 l 1
 503.919921875 790 503.919921875 790 503.131835938 791 c 2
 373.165039062 937 l 1
EndSplineSet
Validated: 1
EndChar

StartChar: agrave
Encoding: 224 224 141
Width: 525
Flags: HMW
LayerCount: 2
Fore
SplineSet
164.756835938 347 m 1
 163.756835938 347 l 1
 176.799804688 446 l 1
 245.389648438 477 296.940429688 489 365.940429688 489 c 0
 471.564020883 489 537.740203058 451.522362883 537.740203058 366.833016627 c 0
 537.740203058 353.702357652 536.149397163 339.436778791 532.868164062 324 c 2
 464 0 l 1
 330 0 l 1
 344.87890625 70 l 1
 303.250976562 20 234.662109375 -11 164.662109375 -11 c 0
 98.890243203 -11 54.5409958049 36.9328352327 54.5409958049 100.39069295 c 0
 54.5409958049 110.258977049 55.6134993319 120.502704755 57.8447265625 131 c 0
 80.3759765625 237 235.540039062 266 385.390625 270 c 1
 396.868164062 324 l 2
 399.931305044 338.410760232 401.619448591 351.960643507 401.619448591 364.138418036 c 0
 401.619448591 399.283294269 387.559052614 423 351.911132812 423 c 0
 279.911132812 423 225.022460938 400 165.756835938 347 c 2
 164.544921875 346 l 1
 164.756835938 347 l 1
376.887695312 230 m 1
 294.038085938 226 203.723632812 201 188.844726562 131 c 0
 187.761118399 125.902023834 187.240410108 120.912036703 187.240410108 116.092817833 c 0
 187.240410108 84.9898763964 208.929639211 61 240.965820312 61 c 0
 294.965820312 61 348.618164062 97 358.608398438 144 c 2
 376.887695312 230 l 1
225.977539062 715 m 1
 224.977539062 715 l 1
 358.190429688 716 l 2
 359.190429688 716 359.190429688 716 359.190429688 716 c 1
 428.157226562 570 l 1
 427.732421875 568 l 1
 427.732421875 568 427.732421875 568 426.732421875 568 c 2
 356.732421875 568 l 1
 356.732421875 568 356.732421875 568 355.944335938 569 c 2
 225.977539062 715 l 1
EndSplineSet
Validated: 1
EndChar

StartChar: uni1EA2
Encoding: 7842 7842 142
Width: 733
Flags: HMW
LayerCount: 2
Fore
SplineSet
478.944335938 569 m 1
 476.944335938 569 l 1
 473.543945312 553 387.384765625 397 298.375976562 237 c 1
 515.375976562 237 l 1
 496.049000381 384.314807054 478.544955051 528.238730923 478.544955051 562.622219937 c 0
 478.544955051 565.582962317 478.674744618 567.731480705 478.944335938 569 c 1
527.095703125 151 m 1
 251.095703125 151 l 1
 219.405273438 96 190.352539062 44 166 0 c 1
 30 0 l 1
 420.514648438 694 l 1
 605.514648438 694 l 1
 701 0 l 1
 548 0 l 1
 542.352539062 44 534.405273438 96 527.095703125 151 c 1
573.305664062 980 m 0
 546.305664062 980 512.1171875 965 484.802734375 940 c 1
 477.131835938 998 l 1
 510.95703125 1016 550.295898438 1027 583.295898438 1027 c 0
 640.341501142 1027 679.641841044 1012.36572427 679.641841044 967.54989764 c 0
 679.641841044 961.300811414 678.877712333 954.464895923 677.291015625 947 c 0
 672.189453125 923 657.30078125 900 636.538085938 887 c 0
 600.861328125 865 574.547851562 840 567.533203125 807 c 2
 561.793945312 780 l 1
 498.793945312 780 l 1
 504.533203125 807 l 2
 514.098632812 852 545.538085938 887 587.977539062 922 c 0
 595.252929688 928 599.165039062 937 601.291015625 947 c 0
 602.193973772 951.248378075 602.616069564 954.967265749 602.616069564 958.219536558 c 0
 602.616069564 976.402171275 589.422836083 980 573.305664062 980 c 0
EndSplineSet
Validated: 1
EndChar

StartChar: uni1EA3
Encoding: 7843 7843 143
Width: 525
Flags: HMW
LayerCount: 2
Fore
SplineSet
164.756835938 347 m 1
 163.756835938 347 l 1
 176.799804688 446 l 1
 245.389648438 477 296.940429688 489 365.940429688 489 c 0
 471.564020883 489 537.740203058 451.522362883 537.740203058 366.833016627 c 0
 537.740203058 353.702357652 536.149397163 339.436778791 532.868164062 324 c 2
 464 0 l 1
 330 0 l 1
 344.87890625 70 l 1
 303.250976562 20 234.662109375 -11 164.662109375 -11 c 0
 98.890243203 -11 54.5409958049 36.9328352327 54.5409958049 100.39069295 c 0
 54.5409958049 110.258977049 55.6134993319 120.502704755 57.8447265625 131 c 0
 80.3759765625 237 235.540039062 266 385.390625 270 c 1
 396.868164062 324 l 2
 399.931305044 338.410760232 401.619448591 351.960643507 401.619448591 364.138418036 c 0
 401.619448591 399.283294269 387.559052614 423 351.911132812 423 c 0
 279.911132812 423 225.022460938 400 165.756835938 347 c 2
 164.544921875 346 l 1
 164.756835938 347 l 1
376.887695312 230 m 1
 294.038085938 226 203.723632812 201 188.844726562 131 c 0
 187.761118399 125.902023834 187.240410108 120.912036703 187.240410108 116.092817833 c 0
 187.240410108 84.9898763964 208.929639211 61 240.965820312 61 c 0
 294.965820312 61 348.618164062 97 358.608398438 144 c 2
 376.887695312 230 l 1
426.118164062 758 m 0
 399.118164062 758 364.9296875 743 337.615234375 718 c 1
 329.944335938 776 l 1
 363.76953125 794 403.108398438 805 436.108398438 805 c 0
 493.154001142 805 532.454341044 790.365724267 532.454341044 745.54989764 c 0
 532.454341044 739.300811414 531.690212333 732.464895923 530.103515625 725 c 0
 525.001953125 701 510.11328125 678 489.350585938 665 c 0
 453.673828125 643 427.360351562 618 420.345703125 585 c 2
 414.606445312 558 l 1
 351.606445312 558 l 1
 357.345703125 585 l 2
 366.91015625 630 398.350585938 665 440.790039062 700 c 0
 448.064453125 706 451.977539062 715 454.103515625 725 c 0
 455.006473772 729.248378075 455.428569564 732.967265749 455.428569564 736.219536558 c 0
 455.428569564 754.402171275 442.235336083 758 426.118164062 758 c 0
EndSplineSet
Validated: 1
EndChar

StartChar: anglearc
Encoding: 8738 8738 146
Width: 856
Flags: HMW
HStem: -117 21G<502.5 520.5> 597 20G<502.5 520.5>
VStem: 585 84<232 268>
LayerCount: 2
Fore
SplineSet
802.927734375 42 m 0
 798.0390625 19 775 0 752 0 c 0
 748 0 743.212890625 1 739.424804688 2 c 2
 636.077148438 38 l 1
 605.44921875 -12 568.458984375 -59 525.532226562 -101 c 0
 515.40625 -111 502.130859375 -117 489.130859375 -117 c 0
 469.075283231 -117 455.132223219 -102.553314641 455.132223219 -83.6051360821 c 0
 455.132223219 -80.8232928395 455.432753659 -77.9444238558 456.05859375 -75 c 0
 458.18359375 -65 463.096679688 -56 470.584960938 -49 c 0
 505.024414062 -14 535.888671875 23 560.390625 63 c 1
 134.63671875 210 l 2
 121.337174177 214.172406141 113.148115233 226.004760402 113.148115233 240.84827521 c 0
 113.148115233 243.79247606 113.47029285 246.855143334 114.138671875 250 c 0
 118.177734375 269 133.579101562 285 151.641601562 290 c 2
 639.887695312 437 l 1
 632.389648438 477 617.25390625 514 597.693359375 549 c 0
 593.181640625 556 592.094726562 565 594.219726562 575 c 0
 599.108398438 598 622.147460938 617 645.147460938 617 c 0
 658.147460938 617 668.872070312 611 674.74609375 601 c 0
 699.819335938 559 716.829101562 512 726.201171875 462 c 1
 844.853515625 498 l 2
 849.065429688 499 854.278320312 500 858.278320312 500 c 0
 878.333896457 500 892.276956468 485.553314641 892.276956468 466.605136082 c 0
 892.276956468 463.82329284 891.976426028 460.944423856 891.350585938 458 c 0
 887.3125 439 871.911132812 423 853.848632812 418 c 2
 734.196289062 382 l 1
 734.478254778 375.482669612 734.617496736 368.942367026 734.617496736 362.379092241 c 0
 734.617496736 325.63923538 730.25430934 288.179537966 722.138671875 250 c 0
 712.57421875 205 698.221679688 161 678.08203125 118 c 1
 782.4296875 82 l 2
 795.729232073 77.8275938594 803.918291017 65.995239598 803.918291017 51.1517247904 c 0
 803.918291017 48.2075239401 803.5961134 45.1448566658 802.927734375 42 c 0
638.138671875 250 m 0
 645.281065045 283.600967561 648.938813088 317.201935122 648.938813088 349.989795407 c 0
 648.938813088 352.330773841 648.920167226 354.667607351 648.8828125 357 c 1
 294.138671875 250 l 1
 603.395507812 143 l 1
 618.834960938 178 630.487304688 214 638.138671875 250 c 0
EndSplineSet
Validated: 1
EndChar

StartChar: angleleft
Encoding: 9001 9001 147
Width: 428
Flags: HMW
HStem: -249 21G<310 335.5> 730 20G<304.5 317> 731 20G<323.5 336>
LayerCount: 2
Fore
SplineSet
321.788085938 -208 m 0x20
 317.112304688 -230 294.073242188 -249 271.073242188 -249 c 0
 243.073242188 -249 237.75 -227 234.638671875 -204 c 2
 210.111328125 -23 l 1
 176.912109375 216 l 2
 175.6732456 224.198919839 173.441542333 232.953395764 173.441542333 241.84934052 c 0
 173.441542333 244.888552375 173.702022249 247.944276187 174.3515625 251 c 0
 176.90234375 263 185.453125 275 191.791015625 286 c 2
 225.544921875 346 l 1
 426.21484375 702 l 2
 436.041015625 720 451.416992188 750 476.416992188 750 c 0xc0
 479.629882812 751 481.629882812 751 484.629882812 751 c 0
 504.267936207 751 517.501210489 735.860723799 517.501210489 716.962302091 c 0
 517.501210489 714.689313923 517.309780228 712.361946605 516.915039062 710 c 0
 514.15234375 697 505.6015625 685 499.05078125 673 c 0
 428.41796875 543 349.998046875 414 279.153320312 283 c 0
 274.028320312 273 264.264648438 260 262.3515625 251 c 0
 260.438476562 242 263.313476562 232 264.612304688 224 c 2
 315.092773438 -136 l 2
 316.935294513 -153.447799405 323.275259184 -173.41151372 323.275259184 -192.898153491 c 0
 323.275259184 -197.982295685 322.843692112 -203.033962988 321.788085938 -208 c 0x20
EndSplineSet
Validated: 1
EndChar

StartChar: angleright
Encoding: 9002 9002 148
Width: 428
Flags: HMW
HStem: -249 21G<92 104 104 106> 730 20G<96 96> 731 20G<103 116>
LayerCount: 2
Fore
SplineSet
359.564453125 252 m 0x20
 357.013671875 240 348.462890625 228 341.912109375 216 c 2
 105.850585938 -203 l 2
 93.3876953125 -224 80.498046875 -247 53.0732421875 -249 c 2
 51.0732421875 -249 l 2
 30.208225233 -249 16.0141535979 -235.395345859 16.0141535979 -216.07107478 c 0
 16.0141535979 -213.167589855 16.3345885649 -210.134983046 17.0009765625 -207 c 2
 17.42578125 -205 l 2
 21.189453125 -192 29.740234375 -180 36.2900390625 -168 c 2
 214.670898438 149 l 2
 233.685546875 182 267.313476562 232 271.3515625 251 c 0
 273.264648438 260 270.390625 270 269.090820312 278 c 2
 217.374023438 651 l 2
 215.637407192 665.379744224 210.614431014 682.312291461 210.614431014 697.718902335 c 0
 210.614431014 701.59768287 210.932804803 705.379744224 211.702148438 709 c 0
 215.954101562 729 233.779296875 747 255.416992188 750 c 2xc0
 262.629882812 751 l 2
 288.629882812 751 296.37890625 731 299.064453125 706 c 2
 323.655273438 530 l 2
 333.4375 449 348.220703125 368 356.791015625 286 c 0
 358.046018271 277.69427156 360.441270916 269.38854312 360.441270916 260.65233255 c 0
 360.441270916 257.81841812 360.189225614 254.939205338 359.564453125 252 c 0x20
EndSplineSet
Validated: 1
EndChar

StartChar: uni2193
Encoding: 8595 8595 155
Width: 622
Flags: HMW
VStem: 269 83<21 653 21 680.5>
LayerCount: 2
Fore
SplineSet
609.280273438 86 m 2
 605.454101562 68 590.478515625 54 572.840820312 51 c 0
 458.951171875 28 355.883789062 -57 310.715820312 -166 c 0
 304.314453125 -182 286.763671875 -194 269.763671875 -194 c 0
 251.763671875 -194 240.314453125 -182 239.715820312 -166 c 0
 240.883789062 -57 173.951171875 28 69.8408203125 51 c 0
 56.6990379947 53.5663692887 47.4635544776 64.1826013091 47.4635544776 78.4665008051 c 0
 47.4635544776 80.8800028393 47.7272248936 83.3982157321 48.2802734375 86 c 2
 50.6181640625 97 l 2
 54.9262301464 117.268392411 74.5519181973 132.877339858 93.4813135097 132.877339858 c 0
 96.0324620591 132.877339858 98.5709635397 132.593827737 101.057617188 132 c 0
 173.869140625 117 233.579101562 78 273.463867188 21 c 1
 407.799804688 653 l 2
 413.645019531 680.5 437.317626953 694.25 458.067626953 694.25 c 0
 476.099831249 694.25 491.924885192 683.866013036 491.924885192 663.098039109 c 0
 491.924885192 659.967910957 491.565399858 656.601897921 490.799804688 653 c 2
 356.463867188 21 l 1
 420.579101562 78 496.869140625 117 576.057617188 132 c 0
 578.796647623 132.593827737 581.455619716 132.877339858 584.006725495 132.877339858 c 0
 600.473564102 132.877339858 612.446234105 121.065021139 612.446234105 104.648747445 c 0
 612.446234105 102.194068919 612.178544757 99.6364534779 611.618164062 97 c 2
 609.280273438 86 l 2
EndSplineSet
Validated: 33
EndChar

StartChar: uni2190
Encoding: 8592 8592 156
Width: 1100
Flags: HMW
HStem: -46 21G<318.5 355.5> 209 84<266 955 266 955> 527 20G<323.5 351>
LayerCount: 2
Fore
SplineSet
1091.3515625 251 m 0
 1084.97460938 221 1056.21191406 208 1028.21191406 208 c 0
 1018.21191406 208 1008.42480469 209 999.424804688 209 c 2
 310.424804688 209 l 1
 349.796875 159 376.467773438 101 381.801757812 32 c 0
 382.065768762 24.9474640338 382.800326028 16.8587142435 382.800326028 8.74874163794 c 0
 382.800326028 3.05946930052 382.438832662 -2.64024729672 381.299804688 -8 c 0
 377.260742188 -27 360.22265625 -46 331.22265625 -46 c 0
 286.22265625 -46 297.787109375 -1 293.376953125 30 c 0
 282.168945312 109 233.772460938 173 162.57421875 205 c 0
 142.487304688 214 110.336914062 218 113.713867188 248 c 2
 114.3515625 251 l 2
 121.791015625 286 157.791015625 286 190.766601562 300 c 0
 281.631835938 337 363.998046875 414 403.916015625 503 c 0
 412.591796875 525 423.268554688 547 456.268554688 547 c 0
 475.420208246 547 492.364261277 540.17960226 492.364261277 519.282034856 c 0
 492.364261277 516.174025849 491.989469227 512.754638492 491.19140625 509 c 0
 489.065429688 499 483.727539062 488 478.814453125 479 c 0
 443.297851562 406 394.969726562 348 328.279296875 293 c 1
 1017.27929688 293 l 2
 1026.27929688 293 1036.49121094 294 1046.49121094 294 c 0
 1071.32644817 294 1092.41477454 283.772631237 1092.41477454 260.526694484 c 0
 1092.41477454 257.564456822 1092.07233192 254.390817249 1091.3515625 251 c 0
EndSplineSet
Validated: 33
EndChar

StartChar: uni2192
Encoding: 8594 8594 157
Width: 1100
Flags: HMW
HStem: -45 21G<748 775.5> 209 84<139.5 833 144 833> 213 84 528 20G<743.5 771.5>
LayerCount: 2
Fore
SplineSet
1091.3515625 251 m 2x30
 1086.67578125 229 1068.54980469 219 1045.27441406 213 c 0x20
 944.685546875 182 847.467773438 101 801.787109375 -1 c 0
 793.111328125 -23 782.434570312 -45 749.434570312 -45 c 0
 730.282916754 -45 713.338863723 -38.1796022601 713.338863723 -17.2820348557 c 0
 713.338863723 -14.1740258486 713.713655773 -10.7546384915 714.51171875 -7 c 0
 716.637695312 3 721.975585938 14 726.888671875 23 c 0
 762.405273438 96 810.733398438 154 877.424804688 209 c 1
 188.424804688 209 l 2
 179.424804688 209 169.211914062 208 159.211914062 208 c 0
 134.376676828 208 113.28835046 218.227368763 113.28835046 241.473305516 c 0
 113.28835046 244.435543178 113.630793078 247.609182751 114.3515625 251 c 0
 120.728515625 281 149.491210938 294 177.491210938 294 c 0
 187.491210938 294 197.279296875 293 206.279296875 293 c 2
 895.279296875 293 l 1xc0
 855.907226562 343 829.235351562 401 823.901367188 470 c 0
 823.637391858 477.051584458 822.902997173 485.139103152 822.902997173 493.247975838 c 0
 822.902997173 498.938338319 823.264647137 504.639216496 824.404296875 510 c 0
 828.442382812 529 845.481445312 548 874.481445312 548 c 0
 901.316405151 548 909.554643359 530.219381 909.554643359 506.439431808 c 0
 909.554643359 503.003819841 909.311785983 499.616212245 909.311785983 496.22071975 c 0
 909.311785983 408.158609152 968.086659212 329.790877986 1042.12890625 297 c 0
 1063.21582031 288 1095.57910156 285 1091.98925781 254 c 2
 1091.3515625 251 l 2x30
EndSplineSet
Validated: 33
EndChar

StartChar: uni2191
Encoding: 8593 8593 158
Width: 622
Flags: HMW
VStem: 269 83<-153 479>
LayerCount: 2
Fore
SplineSet
676.66015625 403 m 2
 672.352090166 382.731607589 652.726402115 367.122660142 633.797006803 367.122660142 c 0
 631.245858253 367.122660142 628.707356773 367.406172263 626.220703125 368 c 0
 553.409179688 383 493.69921875 422 453.814453125 479 c 1
 319.478515625 -153 l 2
 313.633300781 -180.5 289.960693359 -194.25 269.210693359 -194.25 c 0
 251.178489063 -194.25 235.353435121 -183.866013036 235.353435121 -163.098039109 c 0
 235.353435121 -159.967910957 235.712920454 -156.601897921 236.478515625 -153 c 2
 370.814453125 479 l 1
 306.69921875 422 230.409179688 383 151.220703125 368 c 0
 148.481672689 367.406172263 145.822700596 367.122660142 143.271594817 367.122660142 c 0
 126.80475621 367.122660142 114.832086207 378.934978861 114.832086207 395.351252555 c 0
 114.832086207 397.805931081 115.099775556 400.363546522 115.66015625 403 c 2
 117.998046875 414 l 2
 121.82421875 432 137.799804688 446 154.4375 449 c 0
 268.327148438 472 371.393554688 557 416.5625 666 c 0
 423.963867188 682 440.514648438 694 458.514648438 694 c 0
 475.247812181 694 487.571933892 682.373753542 487.571933892 666.750432615 c 0
 487.571933892 557.063922663 552.047202255 472.282764987 657.4375 449 c 0
 671.280738812 446.461866331 679.871578683 436.050027354 679.871578683 422.003622943 c 0
 679.871578683 419.447586852 679.587106863 416.771197983 678.998046875 414 c 2
 676.66015625 403 l 2
EndSplineSet
Validated: 1
EndChar

StartChar: asterisk.math
Encoding: 8727 8727 159
Width: 550
Flags: HMW
HStem: 23 21G<261.5 288.5> 460 20G<261.5 288.5>
VStem: 219 111<55 88.5 413.5 446.5>
LayerCount: 2
Fore
SplineSet
516.709960938 168 m 0
 510.333007812 138 479.743164062 107 447.743164062 107 c 2
 443.743164062 107 l 2
 425.956054688 108 416.506835938 120 405.844726562 131 c 0
 387.670898438 149 368.497070312 167 351.53515625 186 c 1
 348.670898438 149 352.53125 106 345.091796875 71 c 0
 338.290039062 39 306.888671875 23 279.888671875 23 c 0
 255.881388181 23 232.98202975 35.6496498298 232.98202975 60.9489494894 c 0
 232.98202975 64.1027268006 233.337880893 67.4530769708 234.091796875 71 c 0
 241.53125 106 263.670898438 149 276.53515625 186 c 1
 251.497070312 167 224.670898438 149 198.844726562 131 c 0
 183.506835938 120 168.956054688 108 150.743164062 107 c 2
 146.743164062 107 l 2
 119.149830644 107 102.404730653 130.049954612 102.404730653 155.632925679 c 0
 102.404730653 159.718536575 102.831801368 163.86875008 103.709960938 168 c 0
 110.723632812 201 137.849609375 211 166.974609375 221 c 0
 195.100585938 231 224.013671875 240 252.3515625 251 c 1
 228.689453125 262 203.602539062 271 179.728515625 281 c 0
 157.952635662 289.754122598 137.710197334 298.508245196 137.710197334 322.692360095 c 0
 137.710197334 326.134217562 138.120201428 329.888604574 138.994140625 334 c 0
 145.370117188 364 175.959960938 395 207.959960938 395 c 2
 211.959960938 395 l 2
 229.747070312 394 239.196289062 382 249.858398438 371 c 0
 268.032226562 353 287.206054688 335 304.16796875 316 c 1
 307.032226562 353 303.172851562 396 310.612304688 431 c 0
 317.4140625 463 350.02734375 480 377.02734375 480 c 0
 400.979659381 480 422.70781487 465.834236443 422.70781487 440.993479285 c 0
 422.70781487 437.832749923 422.356037559 434.499193165 421.612304688 431 c 0
 414.172851562 396 392.032226562 353 379.16796875 316 c 1
 404.206054688 335 431.032226562 353 456.858398438 371 c 0
 472.196289062 382 486.747070312 394 504.959960938 395 c 2
 508.959960938 395 l 2
 536.553810254 395 553.299020492 371.949183474 553.299020492 346.365639384 c 0
 553.299020492 342.280491676 552.872062922 338.130766266 551.994140625 334 c 0
 544.979492188 301 517.853515625 291 488.728515625 281 c 0
 460.602539062 271 431.689453125 262 403.3515625 251 c 1
 427.013671875 240 452.100585938 231 475.974609375 221 c 0
 497.750841734 212.245735735 517.993582827 203.49147147 517.993582827 179.306465787 c 0
 517.993582827 175.864928621 517.583679106 172.110927925 516.709960938 168 c 0
EndSplineSet
Validated: 1
EndChar

StartChar: Atilde
Encoding: 195 195 160
Width: 733
Flags: HMW
LayerCount: 2
Fore
SplineSet
478.944335938 569 m 1
 476.944335938 569 l 1
 473.543945312 553 387.384765625 397 298.375976562 237 c 1
 515.375976562 237 l 1
 496.049000381 384.314807054 478.544955051 528.238730923 478.544955051 562.622219937 c 0
 478.544955051 565.582962317 478.674744618 567.731480705 478.944335938 569 c 1
527.095703125 151 m 1
 251.095703125 151 l 1
 219.405273438 96 190.352539062 44 166 0 c 1
 30 0 l 1
 420.514648438 694 l 1
 605.514648438 694 l 1
 701 0 l 1
 548 0 l 1
 542.352539062 44 534.405273438 96 527.095703125 151 c 1
452.295898438 820 m 0
 452.083984375 819 451.083984375 819 451.083984375 819 c 1
 387.083984375 819 l 1
 387.083984375 819 386.083984375 819 386.295898438 820 c 0
 399.262695312 881 452.52734375 934 509.52734375 934 c 0
 566.52734375 934 603.900390625 884 629.900390625 884 c 0
 651.900390625 884 667.7890625 907 675.52734375 934 c 1
 738.52734375 934 l 1
 738.52734375 934 739.52734375 934 739.315429688 933 c 0
 726.13671875 871 673.083984375 819 616.083984375 819 c 0
 560.083984375 819 521.711914062 869 495.711914062 869 c 0
 474.711914062 869 457.823242188 846 452.295898438 820 c 0
EndSplineSet
Validated: 1
EndChar

StartChar: atilde
Encoding: 227 227 161
Width: 525
Flags: HMW
LayerCount: 2
Fore
SplineSet
164.756835938 347 m 1
 163.756835938 347 l 1
 176.799804688 446 l 1
 245.389648438 477 296.940429688 489 365.940429688 489 c 0
 471.564020883 489 537.740203058 451.522362883 537.740203058 366.833016627 c 0
 537.740203058 353.702357652 536.149397163 339.436778791 532.868164062 324 c 2
 464 0 l 1
 330 0 l 1
 344.87890625 70 l 1
 303.250976562 20 234.662109375 -11 164.662109375 -11 c 0
 98.890243203 -11 54.5409958049 36.9328352327 54.5409958049 100.39069295 c 0
 54.5409958049 110.258977049 55.6134993319 120.502704755 57.8447265625 131 c 0
 80.3759765625 237 235.540039062 266 385.390625 270 c 1
 396.868164062 324 l 2
 399.931305044 338.410760232 401.619448591 351.960643507 401.619448591 364.138418036 c 0
 401.619448591 399.283294269 387.559052614 423 351.911132812 423 c 0
 279.911132812 423 225.022460938 400 165.756835938 347 c 2
 164.544921875 346 l 1
 164.756835938 347 l 1
376.887695312 230 m 1
 294.038085938 226 203.723632812 201 188.844726562 131 c 0
 187.761118399 125.902023834 187.240410108 120.912036703 187.240410108 116.092817833 c 0
 187.240410108 84.9898763964 208.929639211 61 240.965820312 61 c 0
 294.965820312 61 348.618164062 97 358.608398438 144 c 2
 376.887695312 230 l 1
305.108398438 598 m 0
 304.896484375 597 303.896484375 597 303.896484375 597 c 1
 239.896484375 597 l 1
 239.896484375 597 238.896484375 597 239.108398438 598 c 0
 252.075195312 659 305.33984375 712 362.33984375 712 c 0
 419.33984375 712 456.712890625 662 482.712890625 662 c 0
 504.712890625 662 520.6015625 685 528.33984375 712 c 1
 591.33984375 712 l 1
 591.33984375 712 592.33984375 712 592.127929688 711 c 0
 578.94921875 649 525.896484375 597 468.896484375 597 c 0
 412.896484375 597 374.524414062 647 348.524414062 647 c 0
 327.524414062 647 310.635742188 624 305.108398438 598 c 0
EndSplineSet
Validated: 1
EndChar

StartChar: baht
Encoding: 3647 3647 162
Width: 733
Flags: HMW
HStem: 0 86<232 309 232 309> 325 72<232 309 232 309> 608 86<232 309 232 232>
VStem: 91 141<86 325 397 608> 309 100<-76 0 -82.5 0 87 322 403 603 694 770> 504 136<475.5 542> 532 139<154 242>
LayerCount: 2
Fore
SplineSet
712.236328125 194 m 0xbc
 673.763671875 13 487 0 413 0 c 2
 409 0 l 1
 392.845703125 -76 l 2
 390.08203125 -89 376.744140625 -100 363.744140625 -100 c 2
 311.744140625 -100 l 2
 299.650601041 -100 292.286346927 -91.7918842023 292.286346927 -81.1768640341 c 0
 292.286346927 -79.5034816776 292.469358051 -77.7702846721 292.845703125 -76 c 2
 309 0 l 1
 139 0 l 2
 110.105733865 0 98.6230358238 7.31814710451 98.6230358238 27.6693734772 c 0
 98.6230358238 33.3785208915 99.5266963006 40.1133400237 101.203125 48 c 2
 228.311523438 646 l 2
 236.17578125 683 250.514648438 694 286.514648438 694 c 2
 456.514648438 694 l 1
 472.668945312 770 l 2
 475.64453125 784 487.76953125 794 501.76953125 794 c 2
 553.76953125 794 l 2
 565.064545374 794 573.245615449 786.45104473 573.245615449 775.288467563 c 0
 573.245615449 773.603473086 573.05920162 771.836138636 572.668945312 770 c 2
 556.514648438 694 l 1
 618.467649061 691.281264833 753.831381065 674.600767947 753.831381065 554.644785621 c 0
 753.831381065 542.23482392 752.382611284 528.719526245 749.25390625 514 c 0
 732.674804688 436 668.622070312 384 572.158203125 363 c 1
 604.343967802 357.594354104 716.561715657 339.201593738 716.561715657 232.498954013 c 0
 716.561715657 220.766932897 715.205099787 207.967321438 712.236328125 194 c 0xbc
612.616210938 511 m 0
 614.198892879 518.445817791 614.937814603 525.314734411 614.937814603 531.651783338 c 0
 614.937814603 578.082213345 575.27078079 595.960750683 537.171875 603 c 1
 494.66015625 403 l 1
 540.786132812 413 597.524414062 440 612.616210938 511 c 0
393.384765625 397 m 1
 438.234375 608 l 1
 361.234375 608 l 1
 316.384765625 397 l 1
 393.384765625 397 l 1
573.661132812 196 m 0
 576.114531697 207.54263894 577.245249317 218.046366501 577.245249317 227.605979356 c 0
 577.245249317 294.240760803 522.306912724 315.003707734 477.443359375 322 c 1
 427.4921875 87 l 1
 480.555664062 92 555.806640625 112 573.661132812 196 c 0
327.280273438 86 m 1
 378.081054688 325 l 1
 301.081054688 325 l 1
 250.280273438 86 l 1
 327.280273438 86 l 1
EndSplineSet
Validated: 1
EndChar

StartChar: blanksymbol
Encoding: 9250 9250 163
Width: 561
Flags: HMW
HStem: -11 72<302 331 254 416.5> 362 72 397 72<294 336.5> 588 72<193 264> 622 72
VStem: 61 136<100 362 100 434 100 434> 387 136<206 255 206 267.5>
LayerCount: 2
Fore
SplineSet
572.100585938 231 m 0x30
 561.47265625 181 520.662109375 -11 307.662109375 -11 c 0
 291.662109375 -11 240.662109375 -11 205.290039062 39 c 1
 196 0 166 0 149 0 c 2
 109 0 l 2
 80.1057338645 0 68.6230358238 7.31814710451 68.6230358238 27.6693734772 c 0
 68.6230358238 33.3785208915 69.5266963006 40.1133400237 71.203125 48 c 2
 153.25 434 l 1
 143.82421875 432 135.461914062 435 131.162109375 443 c 2
 107.876953125 484 l 2
 106.24708733 486.774700872 105.485309904 490.011339639 105.485309904 493.410843756 c 0
 105.485309904 502.263125595 110.650751088 512.219760697 119.104492188 518 c 2
 179.606445312 558 l 1
 198.311523438 646 l 2
 206.17578125 683 220.514648438 694 256.514648438 694 c 2
 293.514648438 694 l 2xce
 324.155022167 694 333.843055414 685.569667326 333.843055414 668.038070696 c 0
 333.843055414 665.54360996 333.646924512 662.864897263 333.287109375 660 c 1x10
 344.775390625 667 l 2
 350.270608806 670.829987957 356.066652146 672.667915602 361.348679638 672.667915602 c 0
 368.47876622 672.667915602 374.672229837 669.318903608 377.924804688 663 c 2
 401.209960938 622 l 2x08
 402.751880964 619.004452021 403.489126228 615.712265772 403.489126228 612.345589795 c 0
 403.489126228 603.349440668 398.225044259 593.821419652 388.983398438 588 c 2
 307.504882812 534 l 1
 281.786132812 413 l 1
 292.911132812 423 352.689453125 469 434.689453125 469 c 0
 557.428352293 469 582.821335225 388.015417041 582.821335225 318.433323983 c 0
 582.821335225 281.43605562 575.642432583 247.662408723 572.100585938 231 c 0x30
435.887695312 230 m 0
 442.08280054 259.144507286 448.82338131 290.856097094 448.82338131 318.738704543 c 0
 448.82338131 362.608744621 432.136829146 397 370.384765625 397 c 0x22
 324.384765625 397 289.49609375 374 273.9453125 362 c 1
 218.255859375 100 l 1
 226.280273438 86 245.965820312 61 287.965820312 61 c 0
 399.965820312 61 420.159179688 156 435.887695312 230 c 0
EndSplineSet
Validated: 1
EndChar

StartChar: breve
Encoding: 728 728 164
Width: 550
Flags: HMW
LayerCount: 2
Fore
SplineSet
233.514648438 694 m 1
 305.514648438 694 l 1
 304.508085128 689.264821708 304.026541451 684.73694661 304.026541451 680.417884886 c 0
 304.026541451 637.306586915 352.004201268 615 404.72265625 615 c 0
 462.72265625 615 526.4609375 642 537.514648438 694 c 1
 609.514648438 694 l 1
 588.68359375 596 485.954101562 522 384.954101562 522 c 0
 295.850384442 522 229.885230484 579.594447402 229.885230484 660.45179719 c 0
 229.885230484 671.247103346 231.061063099 682.457072058 233.514648438 694 c 1
EndSplineSet
Validated: 1
EndChar

StartChar: uni032E
Encoding: 814 814 165
Width: 0
Flags: HMW
HStem: -213 93<-284.5 -238.5> -91 20G<-422 -411 -112 -101.5>
LayerCount: 2
Fore
SplineSet
-96.1689453125 -109 m 0
 -118.274414062 -213 -260.274414062 -213 -307.274414062 -213 c 0
 -349.081441269 -213 -475.474689385 -213 -475.474689385 -129.604299854 c 0
 -475.474689385 -123.235030872 -474.737437764 -116.379314899 -473.168945312 -109 c 0
 -467.642578125 -83 -445.091796875 -71 -429.091796875 -71 c 0
 -423.530162163 -71 -400.289987768 -72.7184322593 -400.289987768 -100.048528036 c 0
 -400.289987768 -102.202672623 -400.434367681 -104.515930033 -400.743164062 -107 c 1
 -377.506835938 -120 -337.506835938 -120 -286.506835938 -120 c 0
 -237.506835938 -120 -196.506835938 -120 -167.743164062 -107 c 1
 -157.516601562 -73 -130.091796875 -71 -124.091796875 -71 c 0
 -110.994618193 -71 -95.1055109728 -79.3862088161 -95.1055109728 -99.4869802462 c 0
 -95.1055109728 -102.407317314 -95.4408931714 -105.574921627 -96.1689453125 -109 c 0
EndSplineSet
Validated: 1
EndChar

StartChar: uni032F
Encoding: 815 815 166
Width: 0
Flags: HMW
HStem: -213 21G<-421.5 -411 -112 -101> -164 93<-284.5 -238.5 -284.5 -236.5>
LayerCount: 2
Fore
SplineSet
-110.197265625 -175 m 0
 -115.723632812 -201 -138.274414062 -213 -154.274414062 -213 c 0
 -159.835955711 -213 -183.075445414 -211.28162525 -183.075445414 -183.952843893 c 0
 -183.075445414 -181.798309561 -182.931003614 -179.484597325 -182.622070312 -177 c 1
 -205.859375 -164 -245.859375 -164 -296.859375 -164 c 0
 -345.859375 -164 -386.859375 -164 -415.622070312 -177 c 1
 -425.849609375 -211 -453.274414062 -213 -459.274414062 -213 c 0
 -472.371592744 -213 -488.260699965 -204.613791184 -488.260699965 -184.513019754 c 0
 -488.260699965 -181.592682686 -487.925317766 -178.425078373 -487.197265625 -175 c 0
 -465.091796875 -71 -323.091796875 -71 -276.091796875 -71 c 0
 -234.284769668 -71 -107.891521552 -71 -107.891521552 -154.395700146 c 0
 -107.891521552 -160.764969128 -108.628773174 -167.620685101 -110.197265625 -175 c 0
EndSplineSet
Validated: 1
EndChar

StartChar: uni0306
Encoding: 774 774 167
Width: 0
Flags: HMW
HStem: 545 93<-284.5 -238.5> 667 20G<-422 -411 -112 -101.5>
LayerCount: 2
Fore
SplineSet
64.94921875 649 m 0
 42.84375 545 -99.15625 545 -146.15625 545 c 0
 -187.963277207 545 -314.356525323 545 -314.356525323 628.395700146 c 0
 -314.356525323 634.764969128 -313.619273701 641.620685101 -312.05078125 649 c 0
 -306.524414062 675 -283.973632812 687 -267.973632812 687 c 0
 -262.412091164 687 -239.172601461 685.28162525 -239.172601461 657.952843893 c 0
 -239.172601461 655.798309561 -239.317043261 653.484597325 -239.625976562 651 c 1
 -216.388671875 638 -176.388671875 638 -125.388671875 638 c 0
 -76.388671875 638 -35.388671875 638 -6.6259765625 651 c 1
 3.6015625 685 31.0263671875 687 37.0263671875 687 c 0
 50.1235458692 687 66.0126530897 678.613791184 66.0126530897 658.513019754 c 0
 66.0126530897 655.592682686 65.6772708911 652.425078373 64.94921875 649 c 0
EndSplineSet
Validated: 1
EndChar

StartChar: uni0311
Encoding: 785 785 168
Width: 0
Flags: HMW
HStem: 545 21G<-421.5 -411 -112 -101> 594 93<-284.5 -238.5 -284.5 -236.5>
LayerCount: 2
Fore
SplineSet
50.9208984375 583 m 0
 45.3935546875 557 22.84375 545 6.84375 545 c 0
 1.28211528821 545 -21.9580591068 546.718432259 -21.9580591068 574.048528036 c 0
 -21.9580591068 576.202672623 -21.8136791939 578.515930033 -21.5048828125 581 c 1
 -44.7412109375 594 -84.7412109375 594 -135.741210938 594 c 0
 -184.741210938 594 -225.741210938 594 -254.504882812 581 c 1
 -264.731445312 547 -292.15625 545 -298.15625 545 c 0
 -311.253428682 545 -327.142535902 553.386208816 -327.142535902 573.486980246 c 0
 -327.142535902 576.407317314 -326.807153704 579.574921627 -326.079101562 583 c 0
 -303.973632812 687 -161.973632812 687 -114.973632812 687 c 0
 -73.1666056055 687 53.2266425103 687 53.2266425103 603.604299854 c 0
 53.2266425103 597.235030872 52.4893908885 590.379314899 50.9208984375 583 c 0
EndSplineSet
Validated: 1
EndChar

StartChar: brokenbar
Encoding: 166 166 169
Width: 319
Flags: HMW
HStem: 730 20G<144.5 175>
VStem: 129 61<-206 159 341 706>
LayerCount: 2
Fore
SplineSet
262.481445312 341 m 2
 257.380859375 317 242.853515625 291 221.853515625 291 c 0
 205.543539462 291 199.416532972 305.290079304 199.416532972 322.461175188 c 0
 199.416532972 328.451615879 200.162242787 334.792701269 201.481445312 341 c 2
 279.064453125 706 l 2
 282.252929688 721 288.416992188 750 319.416992188 750 c 0
 338.255085447 750 342.749979272 738.170874745 342.749979272 725.902130433 c 0
 342.749979272 718.632680284 341.171923559 711.208889812 340.064453125 706 c 2
 262.481445312 341 l 2
146.212890625 -206 m 2
 143.025390625 -221 136.861328125 -250 105.861328125 -250 c 0
 87.0227281425 -250 82.528099236 -238.170238357 82.528099236 -225.901140386 c 0
 82.528099236 -218.632006245 84.1058337938 -211.208653342 85.212890625 -206 c 2
 162.796875 159 l 2
 167.897460938 183 182.424804688 209 204.424804688 209 c 0
 219.928996569 209 225.879396403 194.827938519 225.879396403 177.751834046 c 0
 225.879396403 171.698826298 225.1317246 165.280923564 223.796875 159 c 2
 146.212890625 -206 l 2
EndSplineSet
Validated: 1
EndChar

StartChar: bullet
Encoding: 8226 8226 170
Width: 856
Flags: HMW
HStem: 114 304<308.5 517 339 517>
VStem: 276 304<177 355 146.5 385.5>
LayerCount: 2
Fore
SplineSet
617.622070312 177 m 2
 604.65625 116 602.231445312 114 541.231445312 114 c 2
 363.231445312 114 l 2
 320.750443197 114 307.089681485 114.969973416 307.089681485 136.161643498 c 0
 307.089681485 145.39985526 309.685775248 158.481002116 313.622070312 177 c 2
 351.458007812 355 l 2
 364.423828125 416 366.848632812 418 427.848632812 418 c 2
 605.848632812 418 l 2
 648.329634928 418 661.99039664 417.030026584 661.99039664 395.838356502 c 0
 661.99039664 386.60014474 659.394302877 373.518997884 655.458007812 355 c 2
 617.622070312 177 l 2
EndSplineSet
Validated: 1
EndChar

StartChar: caron
Encoding: 711 711 173
Width: 550
Flags: HMW
LayerCount: 2
Fore
SplineSet
579.5 661 m 1
 580.5 661 l 1
 437.041992188 513 l 1
 329.041992188 513 l 1
 248.5 661 l 2
 249.5 661 249.5 661 249.5 661 c 1
 319.5 661 l 2
 320.5 661 320.5 661 320.5 661 c 1
 396.432617188 576 l 1
 508.5 661 l 1
 508.5 661 508.5 661 509.5 661 c 2
 579.5 661 l 1
EndSplineSet
Validated: 1
EndChar

StartChar: uni030C
Encoding: 780 780 174
Width: 0
Flags: HMW
HStem: 535 21G<-320 -318 -318 -207> 677 20G<-412 -365 -365 -365 -157 -110 -110 -105>
LayerCount: 2
Fore
SplineSet
44.11328125 678 m 2
 -83.431640625 539 l 2
 -86.0693359375 536 -89.2822265625 535 -93.2822265625 535 c 2
 -204.282226562 535 l 2
 -208.282226562 535 -211.069335938 536 -212.431640625 539 c 2
 -279.311523438 676 l 2
 -282.611328125 684 -273.84765625 697 -263.84765625 697 c 2
 -216.84765625 697 l 1
 -216.84765625 697 -213.060546875 696 -211.2734375 695 c 2
 -134.741210938 594 l 1
 -15.2734375 695 l 2
 -13.060546875 696 -8.84765625 697 -8.84765625 697 c 1
 38.15234375 697 l 2
 48.15234375 697 50.8134765625 686 44.11328125 678 c 2
EndSplineSet
Validated: 1
EndChar

StartChar: ccedilla
Encoding: 231 231 178
Width: 489
Flags: HMW
HStem: -11 78<225 287.5> 397 78<229 312.5>
VStem: 37 136<200 272.5 200 317.5>
LayerCount: 2
Fore
SplineSet
467.627929688 50 m 0
 465.501953125 40 464.290039062 39 433.1015625 24 c 0
 358.874023438 -10 298.662109375 -11 271.662109375 -11 c 0
 146.461073636 -11 76.9058767987 40.5612232469 76.9058767987 152.804049155 c 0
 76.9058767987 175.932840679 79.8592496784 201.638224719 85.8876953125 230 c 0
 123.084960938 405 230.96484375 475 379.96484375 475 c 0
 449.96484375 475 477.838867188 465 521.162109375 443 c 0
 536.461914062 435 542.612304688 431 540.69921875 422 c 0
 539.635742188 417 517.733398438 361 514.032226562 353 c 0
 512.182617188 349 508.26953125 340 498.26953125 340 c 0
 494.26953125 340 492.26953125 340 482.607421875 351 c 0
 452.984375 381 429.384765625 397 364.384765625 397 c 0
 262.384765625 397 239.530273438 313 222.313476562 232 c 0
 217.092376859 207.436468761 210.712677694 177.422600247 210.712677694 149.760495442 c 0
 210.712677694 105.349302222 227.156949201 67 291.241210938 67 c 0
 373.241210938 67 428.956054688 108 449.14453125 123 c 0
 461.270507812 133 463.270507812 133 467.270507812 133 c 0
 477.270507812 133 477.14453125 123 476.506835938 120 c 0
 475.743164062 107 469.965820312 61 467.627929688 50 c 0
319.458984375 -59 m 2
 319.458984375 -59 318.821289062 -62 311.05859375 -75 c 2
 234.338867188 -196 l 2
 222.512695312 -214 221.512695312 -214 199.512695312 -214 c 2
 149.512695312 -214 l 2
 135.297668361 -214 125.818586517 -214 125.818586517 -204.883535049 c 0
 125.818586517 -194.528211806 222.370564826 -86.0648361078 238.758789062 -67 c 0
 256.009765625 -47 257.22265625 -46 278.22265625 -46 c 2
 296.22265625 -46 l 2
 312.22265625 -46 322.22265625 -46 319.458984375 -59 c 2
EndSplineSet
Validated: 1
Substitution2: "'smcp' Lowercase to Small Capitals in lookup 1 subtable" Ccedilla.sc
EndChar

StartChar: cedilla
Encoding: 184 184 183
Width: 489
Flags: HMW
HStem: -192 21G<165 173 173 223> -44 20G<266 284 284 292>
VStem: 147 163<-185.5 -30.5>
LayerCount: 2
Fore
SplineSet
302.135742188 -37 m 2
 302.135742188 -37 301.498046875 -40 293.734375 -53 c 2
 217.015625 -174 l 2
 205.189453125 -192 204.189453125 -192 182.189453125 -192 c 2
 132.189453125 -192 l 2
 117.973912648 -192 108.494659462 -192 108.494659462 -182.882547002 c 0
 108.494659462 -172.528283546 205.046914884 -64.0641743988 221.434570312 -45 c 0
 238.686523438 -25 239.8984375 -24 260.8984375 -24 c 2
 278.8984375 -24 l 2
 294.8984375 -24 304.8984375 -24 302.135742188 -37 c 2
EndSplineSet
Validated: 1
EndChar

StartChar: cent
Encoding: 162 162 184
Width: 489
Flags: HMW
VStem: 37 136<207.5 262 207.5 305> 219 100<-76 -9 -82.5 -7 -82.5 -7 82 382 382 382 474 534>
LayerCount: 2
Fore
SplineSet
467.627929688 50 m 0
 465.501953125 40 464.290039062 39 433.1015625 24 c 0
 387.637695312 3 347.9375 -5 317.086914062 -9 c 1
 302.845703125 -76 l 2
 300.08203125 -89 286.744140625 -100 273.744140625 -100 c 2
 221.744140625 -100 l 2
 210.380229082 -100 202.331043136 -91.5945364435 202.331043136 -80.7952911416 c 0
 202.331043136 -79.2404989805 202.497886844 -77.6360884573 202.845703125 -76 c 2
 217.51171875 -7 l 1
 126.427226713 6.65635868106 76.8540301553 57.7410069147 76.8540301553 152.474644258 c 0
 76.8540301553 175.669356078 79.825808822 201.480706397 85.8876953125 230 c 0
 117.771484375 380 201.288085938 453 319.114257812 471 c 1
 332.504882812 534 l 2
 335.481445312 548 348.606445312 558 361.606445312 558 c 2
 413.606445312 558 l 2
 424.901017308 558 433.081889033 550.451635706 433.081889033 539.289778379 c 0
 433.081889033 537.604389674 432.895368431 535.836614774 432.504882812 534 c 2
 419.751953125 474 l 1
 462.901367188 470 486.776367188 460 521.162109375 443 c 0
 536.461914062 435 542.612304688 431 540.69921875 422 c 0
 539.635742188 417 517.733398438 361 514.032226562 353 c 0
 512.182617188 349 508.26953125 340 498.26953125 340 c 0
 494.26953125 340 492.26953125 340 482.607421875 351 c 0
 459.49609375 374 440.684570312 389 402.959960938 395 c 1
 334.091796875 71 l 1
 392.216796875 81 432.59375 111 449.14453125 123 c 0
 461.270507812 133 463.270507812 133 467.270507812 133 c 0
 477.270507812 133 477.14453125 123 476.506835938 120 c 0
 475.743164062 107 469.965820312 61 467.627929688 50 c 0
236.4296875 82 m 1
 300.196289062 382 l 1
 251.245117188 354 235.06640625 292 222.313476562 232 c 0
 217.065787972 207.313329952 210.685310159 177.296353681 210.685310159 149.621812353 c 0
 210.685310159 122.365797132 216.874261462 97.3819026225 236.4296875 82 c 1
EndSplineSet
Validated: 1
Substitution2: "'onum' Oldstyle Figures lookup 4 subtable" cent.oldstyle
Substitution2: "'aalt' Access All Alternates lookup 0 subtable" cent.oldstyle
EndChar

StartChar: centigrade
Encoding: 8451 8451 185
Width: 947
Flags: HMW
HStem: -21 100<643 708.5 643 710> 450 85<113.5 136 113.5 155> 582 85 611 85<118.5 133.5> 617 100<644 662 662 669.5 644 703.5>
VStem: 305 142<317.5 405> 706 142
LayerCount: 2
Fore
SplineSet
901.203125 48 m 0x8e
 898.65234375 36 885.014648438 33 875.951171875 28 c 0
 802.874023438 -10 740.536132812 -21 670.536132812 -21 c 0
 588.536132812 -21 504.086914062 -9 445.077148438 38 c 0
 386.044647568 85.3859075671 365.585325872 155.295360711 365.585325872 230.909283503 c 0
 365.585325872 270.186110314 371.105597902 311.002099797 379.607421875 351 c 0
 402.563476562 459 453.794921875 573 554.673828125 643 c 0
 632.15234375 697 712.702148438 709 796.403320312 717 c 1
 814.403320312 717 l 2x8c
 829.403320312 717 844.403320312 717 858.190429688 716 c 0
 910.08603555 713.082457017 1021.04512065 698.815504626 1021.04512065 669.519988406 c 0
 1021.04512065 650.773955077 979.126844806 551 965.119140625 551 c 0
 959.119140625 551 954.181640625 556 950.03125 560 c 0
 912.534179688 600 863.147460938 617 806.147460938 617 c 0
 611.147460938 617 547.751953125 474 522.245117188 354 c 0
 514.901170016 319.449383918 508.730208564 281.986648126 508.730208564 246.170768171 c 0
 508.730208564 206.31334521 516.372436958 168.4954178 538.544921875 139 c 0
 570.98046875 94 629.791992188 79 689.791992188 79 c 0
 760.791992188 79 812.767578125 93 874.844726562 131 c 0
 882.907226562 136 893.033203125 146 902.033203125 146 c 0
 909.752998264 146 912.080341082 139.248977059 912.080341082 130.127414043 c 0
 912.080341082 120.343681565 909.40283188 107.832743272 907.830078125 98 c 0
 905.216796875 81 904.81640625 65 901.203125 48 c 0x8e
365.794921875 573 m 0
 347.727539062 488 282.650390625 450 218.650390625 450 c 0
 155.577481158 450 118.387468259 486.323885214 118.387468259 542.253159875 c 0
 118.387468259 551.94264864 119.503687956 562.220572853 121.794921875 573 c 0
 136.249023438 641 186.239257812 688 254.7265625 695 c 0
 258.7265625 695 263.939453125 696 268.939453125 696 c 0x50
 331.179687038 696 369.283344334 661.107029003 369.283344334 604.336692092 c 0
 369.283344334 594.522533189 368.1445904 584.054554199 365.794921875 573 c 0
281.794921875 573 m 2
 283.708007812 582 l 2x20
 285.171875 603 273.872070312 611 252.872070312 611 c 0
 219.872070312 611 210.68359375 596 205.794921875 573 c 2
 203.881835938 564 l 2
 201.568359375 539 217.717773438 535 236.717773438 535 c 0
 262.717773438 535 276.481445312 548 281.794921875 573 c 2
EndSplineSet
Validated: 33
EndChar

StartChar: circumflex
Encoding: 710 710 186
Width: 550
Flags: HMW
LayerCount: 2
Fore
SplineSet
367.514648438 694 m 1
 475.514648438 694 l 1
 556.268554688 547 l 2
 555.055664062 546 555.055664062 546 555.055664062 546 c 1
 485.055664062 546 l 2
 484.055664062 546 484.055664062 546 484.268554688 547 c 2
 408.3359375 632 l 1
 296.268554688 547 l 2
 296.055664062 546 296.055664062 546 295.055664062 546 c 2
 224.268554688 547 l 2
 224.481445312 548 224.481445312 548 224.481445312 548 c 1
 367.514648438 694 l 1
EndSplineSet
Validated: 1
EndChar

StartChar: uni0302
Encoding: 770 770 187
Width: 0
Flags: HMW
HStem: 535 21G<-158 -100> 677 20G<-316 -205 -205 -203>
LayerCount: 2
Fore
SplineSet
18.181640625 556 m 2
 21.4814453125 548 12.7177734375 535 2.7177734375 535 c 2
 -44.2822265625 535 l 1
 -44.2822265625 535 -48.0693359375 536 -49.857421875 537 c 2
 -126.388671875 638 l 1
 -245.857421875 537 l 2
 -248.069335938 536 -252.282226562 535 -252.282226562 535 c 1
 -299.282226562 535 l 2
 -309.282226562 535 -311.944335938 546 -305.244140625 554 c 2
 -177.698242188 693 l 2
 -175.060546875 696 -171.84765625 697 -167.84765625 697 c 2
 -56.84765625 697 l 2
 -52.84765625 697 -50.060546875 696 -48.6982421875 693 c 2
 18.181640625 556 l 2
EndSplineSet
Validated: 1
EndChar

StartChar: colonmonetary
Encoding: 8353 8353 188
Width: 703
Flags: HMW
HStem: -22 100<437 437> 568 100 616 100<437 437>
VStem: 61 147<290 386 290 449> 337 100<-126 -22 93 601 601 601 716 820>
LayerCount: 2
Fore
SplineSet
657.415039062 49 m 0xa8
 655.290039062 39 654.077148438 38 623.888671875 23 c 0
 553.662109375 -11 510.536132812 -21 432.32421875 -22 c 1
 410.217773438 -126 l 2
 407.455078125 -139 394.116210938 -150 381.116210938 -150 c 2
 329.116210938 -150 l 2
 317.0223174 -150 309.658714915 -141.791403725 309.658714915 -131.175931987 c 0
 309.658714915 -129.502838105 309.841631195 -127.769956001 310.217773438 -126 c 2
 333.811523438 -15 l 1
 197.010173385 7.52564655344 121.088595776 85.0632879733 121.088595776 229.58820044 c 0
 121.088595776 264.711740659 125.57270684 303.791710297 134.756835938 347 c 0
 178.119140625 551 290.326171875 679 487.702148438 709 c 1
 511.295898438 820 l 2
 514.272460938 834 526.397460938 844 540.397460938 844 c 2
 592.397460938 844 l 2
 603.692032933 844 611.872904658 836.451635706 611.872904658 825.289778379 c 0
 611.872904658 823.604389674 611.686384056 821.836614774 611.295898438 820 c 2
 589.190429688 716 l 1xb8
 669.977539062 715 714.21484375 702 752.026367188 687 c 0
 773.02512252 679.755417619 777.630861948 677.694437596 777.630861948 672.471941195 c 0
 777.630861948 671.206490446 777.360445217 669.755417619 776.987304688 668 c 0
 776.350585938 665 775.924804688 663 772.224609375 655 c 2
 738.732421875 568 l 2x40
 732.543945312 553 726.90625 550 720.90625 550 c 0
 715.90625 550 713.331054688 552 708.393554688 557 c 0
 674.833007812 592 637.509765625 614 567.934570312 616 c 1
 453.579101562 78 l 1
 536.791992188 79 575.193359375 95 637.482421875 134 c 0
 652.8203125 145 654.8203125 145 658.8203125 145 c 0
 668.8203125 145 668.6953125 135 667.995117188 127 c 0
 666.018554688 113 659.965820312 61 657.415039062 49 c 0xa8
356.767578125 93 m 1
 464.74609375 601 l 1
 336.393554688 557 298.336914062 425 281.756835938 347 c 0
 274.084240103 310.903270571 269.252888006 275.909396839 269.252888006 243.764408789 c 0
 269.252888006 174.389710825 291.756092272 118.284394835 356.767578125 93 c 1
EndSplineSet
Validated: 1
EndChar

StartChar: uni0326
Encoding: 806 806 189
Width: 0
Flags: HMW
HStem: -292 21G<-304 -297 -297 -286> -197 118<-297 -290>
LayerCount: 2
Fore
SplineSet
-239.772460938 -173 m 2
 -242.9609375 -188 -243.385742188 -190 -253.936523438 -202 c 2
 -316.877929688 -277 l 2
 -329.06640625 -292 -330.06640625 -292 -348.06640625 -292 c 2
 -359.06640625 -292 l 2
 -373.06640625 -292 -382.06640625 -292 -379.728515625 -281 c 2
 -357.013671875 -240 l 2
 -348.038085938 -226 -340.849609375 -211 -331.874023438 -197 c 1
 -353.640085261 -197 -360.028434481 -196.473598392 -360.028434481 -187.400412214 c 0
 -360.028434481 -183.968093834 -359.114228337 -179.312685936 -357.772460938 -173 c 2
 -342.893554688 -103 l 2
 -338.004882812 -80 -336.791992188 -79 -313.791992188 -79 c 2
 -243.791992188 -79 l 2
 -227.686437629 -79 -222.47271103 -79.4903381619 -222.47271103 -87.681472241 c 0
 -222.47271103 -91.187922566 -223.428133752 -96.1055545581 -224.893554688 -103 c 2
 -239.772460938 -173 l 2
EndSplineSet
Validated: 1
EndChar

StartChar: copyright
Encoding: 169 169 190
Width: 694
Flags: HMW
HStem: 0 74<271.5 422.5 271.5 443> 620 74<271.5 422.5>
VStem: 0 74<271.5 422.5 271.5 443> 620 74<271.5 422.5>
LayerCount: 2
Fore
SplineSet
767.756835938 347 m 0
 726.946289062 155 539 0 347 0 c 0
 179.983018652 0 65.8937932485 117.287168214 65.8937932485 274.190269538 c 0
 65.8937932485 297.660416557 68.4465721157 322.016981348 73.7568359375 347 c 0
 114.568359375 539 302.514648438 694 494.514648438 694 c 0
 661.531159282 694 775.620212388 576.713492603 775.620212388 419.811056494 c 0
 775.620212388 396.340500852 773.06732684 371.983489155 767.756835938 347 c 0
693.756835938 347 m 0
 697.930948217 366.637263427 699.937468135 385.784064097 699.937468135 404.235854119 c 0
 699.937468135 527.668410846 610.147892823 620 478.78515625 620 c 0
 327.78515625 620 179.853515625 498 147.756835938 347 c 0
 143.582950629 327.363206905 141.576537336 308.216853073 141.576537336 289.765471699 c 0
 141.576537336 166.332250325 231.366285283 74 362.729492188 74 c 0
 513.729492188 74 661.661132812 196 693.756835938 347 c 0
519.236328125 194 m 0
 517.9609375 188 517.9609375 188 502.259765625 180 c 0
 464.434570312 162 442.37109375 157 399.37109375 157 c 0
 299.531414519 157 242.689790996 196.456514464 242.689790996 286.312114914 c 0
 242.689790996 304.456381221 245.007479121 324.655644481 249.756835938 347 c 0
 275.4765625 468 348.142578125 537 480.142578125 537 c 0
 524.142578125 537 548.655273438 530 568.166992188 523 c 0
 582.104492188 518 581.891601562 517 581.041992188 513 c 0
 580.616210938 511 580.404296875 510 578.553710938 506 c 2
 560.98828125 461 l 2
 558.288085938 453 555.075195312 452 552.075195312 452 c 0
 550.075195312 452 548.288085938 453 545.92578125 456 c 0
 527.751953125 474 508.302734375 486 468.302734375 486 c 0
 362.302734375 486 336.172851562 396 325.756835938 347 c 0
 321.847555421 328.607497803 319.428615447 310.832753344 319.428615447 294.504893608 c 0
 319.428615447 245.139591666 341.539706097 209 411.424804688 209 c 0
 456.424804688 209 476.125 217 509.375976562 237 c 0
 516.651367188 243 517.651367188 243 520.651367188 243 c 0
 525.651367188 243 525.588867188 238 524.73828125 234 c 0
 524.25 227 520.51171875 200 519.236328125 194 c 0
EndSplineSet
Validated: 1
EndChar

StartChar: currency
Encoding: 164 164 191
Width: 856
Flags: HMW
HStem: -5 84<400 455.5> 421 84<400.5 455.5 400.5 475>
VStem: 173 84<222.5 277.5> 599 84<222.5 277.5 222.5 297.5>
LayerCount: 2
Fore
SplineSet
685.086914062 -9 m 0
 673.941041748 -18.4518080243 663.883766287 -21.8485747479 655.163109827 -21.8485747479 c 0
 636.204438362 -21.8485747479 623.562973428 -5.79457812767 619.787109375 -1 c 2
 585.139648438 43 l 1
 536.763671875 13 481.9375 -5 426.9375 -5 c 0
 370.9375 -5 323.763671875 13 287.927734375 42 c 1
 235.787109375 -1 l 2
 229.28887744 -5.79457812767 210.075694275 -21.8485747479 191.023211713 -21.8485747479 c 0
 182.259403794 -21.8485747479 173.52959753 -18.4518080243 166.086914062 -9 c 0
 160.860535361 -2.06939680154 158.78300375 4.86120639692 158.78300375 11.5082285652 c 0
 158.78300375 33.6336897347 181.801558346 52.6171407463 188.328125 58 c 2
 241.680664062 102 l 1
 227.705286831 129.854899619 220.289001185 161.668449404 220.289001185 195.982080534 c 0
 220.289001185 213.407013434 222.201474222 231.476654262 226.138671875 250 c 0
 237.830078125 305 265.8828125 357 304.59765625 398 c 1
 270.162109375 443 l 2
 266.90611046 447.13518785 257.329709499 459.296802367 257.329709499 474.743303261 c 0
 257.329709499 485.444467283 261.92596471 497.722233642 276.404296875 510 c 0
 287.86492178 519.451808024 298.038617762 522.848574748 306.802335781 522.848574748 c 0
 325.854622902 522.848574748 338.242990101 506.794578128 342.703125 502 c 2
 377.350585938 458 l 1
 425.727539062 488 480.340820312 505 535.340820312 505 c 0
 590.340820312 505 637.727539062 488 673.350585938 458 c 1
 725.491210938 501 l 2
 731.989442873 505.794578128 751.202626037 521.848574748 770.2551086 521.848574748 c 0
 779.018916519 521.848574748 787.748722783 518.451808024 795.19140625 509 c 0
 800.417784951 502.069396802 802.495316562 495.138793603 802.495316562 488.491771435 c 0
 802.495316562 466.366310265 779.476761966 447.382859254 772.950195312 442 c 2
 719.59765625 398 l 1
 733.946282997 370.36131651 741.77934215 337.723903052 741.77934215 302.538461452 c 0
 741.77934215 285.528829936 739.948734786 267.923717269 736.138671875 250 c 0
 724.448242188 195 695.608398438 144 657.680664062 102 c 1
 692.328125 58 l 2
 695.550100896 53.9087469928 704.958554839 41.9607169061 704.958554839 26.7479187191 c 0
 704.958554839 15.9321170809 700.202821635 3.46605854043 685.086914062 -9 c 0
652.138671875 250 m 0
 654.754694328 262.307121785 656.010650124 274.295369367 656.010650124 285.840813577 c 0
 656.010650124 363.415898043 599.30875499 421 517.486328125 421 c 0
 422.486328125 421 330.33203125 345 310.138671875 250 c 0
 307.494469687 237.55970456 306.22276282 225.445221648 306.22276282 213.784547182 c 0
 306.22276282 136.398777407 362.232287627 79 444.791992188 79 c 0
 538.791992188 79 631.946289062 155 652.138671875 250 c 0
EndSplineSet
Validated: 1
EndChar

StartChar: dagger
Encoding: 8224 8224 192
Width: 511
Flags: HMW
HStem: 388 111<102.5 131.5 379.5 408.5> 682 20G<245 265>
VStem: 200 111<166.5 252.5 626.5 666> 279 111
LayerCount: 2
Fore
SplineSet
541.162109375 443 m 0x90
 535.848632812 418 513.471679688 388 472.471679688 388 c 0x90
 445.471679688 388 419.447265625 402 397.998046875 414 c 0
 380.911132812 423 370.548828125 426 360.974609375 428 c 1
 360.530576871 422.595424528 360.339223761 417.080416406 360.339223761 411.532824537 c 0
 360.339223761 393.471788188 362.367428775 375.065387613 364.307617188 359 c 0
 367.615048917 330.491497553 369.152398349 311.603120266 369.152398349 296.120214624 c 0
 369.152398349 273.58627259 365.895966427 258.265841249 360.100585938 231 c 0x20
 315.250976562 20 241.0390625 -188 236.48828125 -200 c 0x10
 231.150390625 -211 221.150390625 -211 210.150390625 -211 c 0
 201.150390625 -211 193.150390625 -211 191.638671875 -204 c 0
 190.949984853 -202.718954568 190.68208434 -198.976293037 190.68208434 -193.954556179 c 0
 190.68208434 -183.296171999 191.888920691 -166.875818271 192.840820312 -156 c 0
 204.048828125 -28 221.680664062 102 249.100585938 231 c 0
 258.240234375 274 261.428710938 289 296.032226562 353 c 0
 307.283203125 373 323.235351562 401 331.974609375 428 c 1
 318.336914062 425 308.911132812 423 272.510742188 407 c 0
 250.384765625 397 224.471679688 388 203.471679688 388 c 0
 172.007915621 388 156.987648847 407.524578618 156.987648847 431.200444185 c 0
 156.987648847 435.366353179 157.452683667 439.660788052 158.375 444 c 0
 163.689453125 469 186.065429688 499 227.065429688 499 c 0
 254.065429688 499 280.08984375 485 301.5390625 473 c 0
 318.625976562 464 328.98828125 461 338.563476562 459 c 1
 339.456200615 467.799299326 339.833740085 476.173755477 339.833740085 484.607965784 c 0
 339.833740085 502.053506789 338.21848025 519.754699176 336.206054688 542 c 0
 334.395748568 560.113010966 332.537258531 579.507588989 332.537258531 598.914271044 c 0
 332.537258531 613.793099383 333.629692315 628.679042559 336.673828125 643 c 0
 346.451171875 689 383.21484375 702 405.21484375 702 c 0
 420.94946332 702 449.578037347 694.358695894 449.578037347 659.705213347 c 0
 449.578037347 654.716003355 448.984607329 649.166868948 447.673828125 643 c 0xe0
 440.659179688 610 421.794921875 573 403.142578125 537 c 0
 388.404296875 510 376.514648438 487 367.563476562 459 c 1
 381.201171875 462 390.625976562 464 427.02734375 480 c 0
 449.15234375 490 475.065429688 499 496.065429688 499 c 0
 527.528786156 499 542.54977753 479.475927242 542.54977753 455.800475941 c 0
 542.54977753 451.634279165 542.084639744 447.339531417 541.162109375 443 c 0x90
EndSplineSet
Validated: 1
EndChar

